<mxfile host="65bd71144e" modified="2021-03-07T15:26:52.779Z" agent="5.0 (Macintosh; Intel Mac OS X 11_2_1) AppleWebKit/537.36 (KHTML, like Gecko) Code/1.53.2 Chrome/87.0.4280.141 Electron/11.2.1 Safari/537.36" etag="EsgtpV0Q0WgjagmpsvAo" version="14.2.4" type="embed">
    <diagram id="gsUUC5bKEg0x1V-4-cX3" name="Page-1">
        <mxGraphModel dx="1065" dy="735" grid="1" gridSize="10" guides="1" tooltips="1" connect="1" arrows="1" fold="1" page="1" pageScale="1" pageWidth="827" pageHeight="1169" math="0" shadow="0">
            <root>
                <mxCell id="0"/>
                <mxCell id="1" parent="0"/>
                <mxCell id="28" value="" style="shape=image;imageAspect=0;aspect=fixed;verticalLabelPosition=bottom;verticalAlign=top;image=data:image/png,iVBORw0KGgoAAAANSUhEUgAAA6kAAALACAIAAAD+MaPCAAAAKXRFWHRjb3B5bGVmdABHZW5lcmF0ZWQgYnkgaHR0cDovL3BsYW50dW1sLmNvbREwORwAAAKDaVRYdHBsYW50dW1sAAEAAAB4nO1WTU8TQRi+T7L/4Q0X4AC0RIzuwRTBD2qJDS1w8TLsDmV0O4u7s1VvnS2JBOgR0RjjxUD9rIkRoyH6X3wD6sm/4HRb025T/Igx4dBks5l5Z97neeeZd59sypfUk0HRAZ/dDJiwmEHGBsFmy1wwWNVr3OKrVEgfBscMQi3peoCVXawcYLiv3wYxSOccRs7BwKTDblPI3eCOMwAmdEzh69t3h5vb1wSWt6IwllX+FpeSed/ubaJaQ7WL5WrExEtUsjiYQeLYEdliDjK0uGTTBhdWnmFYx7CG4XusrBtEuBrE44UVaeptgbBW5hon9eVlKmyHeTGqNlSDqQO4x6mw8iLieISVN3pgEJsdi9RVc0wwjVTeammA6jmqp6heHe3d1+Ojje0vtU+odlB9RPUA1eb3g8eRPL+TXEN+3qnrJ9r9T6JlXV/m3VaBM0IycVKla51Y1VA9QbWP4VqrocIQw3UMq5GSOrL312KiqjcyT4SYrWyYzM705DtWzHa4E0IzxBA7KfK8yBztBN0t1WzMXpndWvziouNF/OnppxzqBjYsUmmtQMYt+E2elxi+Prz74XDj4Ylqv2r05equa3ZajCjmawZJMWFrIzYISfUw5b7z9p2377x95+077/903qyjf3XnZzNQYp7PXQHJ0fHEeHI0kRjKBQLSVEcSkDxrjk+YiQlI5/LQWB8mQ5eyGfDdwLMY2NyXHl8KpAYYJmlaojAXCKkv1ISrq0ykp6/8DMAFUeKeK4q6G0l6Yba94fSpkfNcQo55uhRYmCXTbJkGjtQZlmtzUTBhPn9x5AzJUFEIaEFjX6dkytW43h0T0lnyA41323XRk2KhAACAAElEQVR4XuydB1jUWBeGEVREFHUV7A177733XtayNqxrXXtd61rR317Xjl0ERBELrgW72MXuiiLqigVsWEFg+I9z12zIzIQMMxMJ+d7nPDzJvTft3MnNOyEEqzgAAAAAAADUgZWwAAAAAAAAgGQK3BcAAAAAAKgFuC8AAAAAAFALcF8AAAAAAKAW4L4AAAAAAEAtyOG+muiYl8cuB6/3vTVtHf2kaSoRNgIAAAAAAMDCWNZ9v777cGPS8t2Z6nlYVebH7kz1b0xaRbXCBQAAAAAAALAYFnTfN5fv7M3VjMnuwZI/X+w76ubUGfSTplnh3lwt31y+K1wMAAAAAAAAy2Ap9yXx3Zm2Fgnu0RpdX1300Wiu8oNKqJxqd6atDf0FAAAAAADyYBH3/fruA7vje77HsNivlwXiy4LKqZba+GRv9jz4UURERGRkpHBFAAAAAAAAmA+LuO+NicvYHd+YqEu61ssF1bK7v0d+nRoUFBQaGgoDBgAAAAAAlsP87quJjtn9U30yWt1HHXSD2lBLz/R1Th47HhgYGBISEh4eDv0FAAAAAACWwPzuG3biyrc/bivVVtd09cb+4m2+vflh1lJ/f3+mvxEREcKVAgAAAAAAYDLmd9/gtd9u5V7qP0pXc/XGhb4jqf32Pr/v2rWL6W9oaChu/QIAAAAAALNjfve9M3sTuez1CX/oaq7euDpuMrXf1mHY1q1bfXx8Tp48GRQUhFu/AAAAAADA7JjffY2973u21wh233fjxo3u7u5+fn6BgYHh4eHC9QIAAAAAAGAa5ndfY5/33VO4NbXfMWUeuS+79RsQEBAaGipcLwAAAAAAAKZhfvfVvuehgcT3PIRf+HaT2CNdbY/t7uS+W7Zs2bVr18mTJ0NCQoTrBQAAAAAAwDTM775x397vu1Li+333lf/l2zvOfh7q6em5adOmzZs3e3l5+fv7BwUFCVcKAAAAAACAaVjEfbX/162lR0L/1+14x9++iW/mBp4bt8B9AQAAAACApbGI+xJvLt/dmbY2u/ur+/BD+AUfdsfXw7aG55xlJL4eHh545gEAAAAAAFgUS7lvnFZ/d2dr+k1wrSrvL9bmRLNf/eu4+DfuvafQtz9u+/eOr1Z8CXf3b8/74m/dAAAAAACA5bCg+xLPgx8d6TvNM923G8Dxwr6WZ7th7FEHdtOXrBfvOAMAAAAAABbFsu4bERERFBR08tjxXTOW7CjfmayXfu6YPM9juztnveS7THzxvy0AAAAAAIBFsaz7RkZGhoaGBgYG+vv77+w0itx3W9vBG7Vs0sKmmfjifxoDAAAAAACLYln3jdPe+g0JCSGj3ddz4rf7vu2HrVu3bu3atWu00ATNuru7+/j4MPGlxrjpCwAAAAAALIHF3TcyMjI8PJyM9ujAmeS+Pt3Gbd26dfPmzRu00ATN+vn5nTx5kokvNcZNXwAAAAAAYAks7r5xWv2NiIg4N3rRt1eeDZy5b98+Hx+fnVpogmbJeoOCgkJDQ6kZxBcAAAAAAFgIOdyXcW3yKnLfi+OWXrp06ezZsye10ATNhoeHw3oBAAAAAIClMYP7vjx+5da0dQnGsboDyX3p56lhcwWh25jWKdwMAAAAAAAApmEG9yVVFb6+1+SgdQo3AwAAAAAAgGmYwX1x3xcAAAAAACgCM7gvn/fv37969erZs2ePHz9+EB9yXHJf+nlBB0FLDloJrYpWSKvF08AAAAAAAMBE4L4AAAAAAEAtwH0BAAAAAIBagPsCAAAAAAC1APcFAAAAAABqAe4LAAAAAADUgpndV4Rb2tcA00+h4T54IGwKAAAAAACABYD7AgAAAAAAtQD3BQAAAAAAagHuCwAAAAAA1ALcFwAAAAAAqAW4LwAAAAAAUAtwXwAAAAAAoBbgvgAAAAAAQC3AfQEAAAAAgFqA+wIAAAAAALUA9wUAAAAAAGpBJveN+RzpV/QXcl/6GXTrDtwXAAAAAADIjxzuq4mNPdPudxJfFoeaDLkfFAT3BQAAAAAAMiOH+waOXEzKu/unhk99TtBPmj7eeyrcFwAz8vXt+5fHr6g8vr77IMyLDkhU4gK5NTaQsSQe6KDkGlJ61uLuG7Tci2TXy7Zm2IkrNBt65Lxn6hpUcnry8rtayH0jIyOFiwEAjIFOeO5XK6oNNsiIg0QlLpBbYwMZS+KBDkquIaVnLeu+oXtPedpU9UhR5dG2gzRLjvv+/fsLCzdRiYd1lYDlW5n7UiH0FwBTYGP034sXvDzuocL4e9ECiUOeyhOViEBujQ1kLIkHOii5hvSetaD7vrl819u+Du3HrRnr476L76tXr0h2Twz7H5V72dW66n2QZqkQ+guAKbAxmk5+jeaqCuPFMQ+JQ57KE5WIQG6NDWQsiQc6KLmG9J61lPt+evzcN3tz2okLvWawEia+z549I9m9e/fuX21GUu0ux8Z3Tp2nQqa/8dcBAJCKysdoNuT9tWhdQEBAYGBgUFBQaGhoRESEME2qT1QiArk1NpCxJB7ooOQa0nvWIu779d2HgyW70B4cbzA49mt0nPamLxPfx48fM/e9c/PW/qq9qI1v4fYPb91l+otbvwAkDpWP0WzI85q2cO/evf7+/hcvXqRRLzw8XJgm1ScqEYHcGhvIWBIPdFByDek9a373Jdkl5aXNk/6yv7ZjTztw4stxL/AGiS+19Kve51HwQ2qAJx8ASBwqH6PZkLd1wmx3d3cfHx8a9ehLP33jF6ZJ9YlKRCC3xgYylsQDHZRcQ3rPmt99L/SaQdv2zd780+PncbzHfDnxpYln3wm5dH23UxNqf7T9WCrHg78AJA6Vj9FsyNsy3nXTpk006tGX/oCAgJCQEGGaVJ+oRARya2wgY0k80EHJNaT3rJnd99aM9bRhb/s6by7fjeOJL3vMlxNf5risKuiv0zvT1qalTo2Yx1VBfwEwCpWP0WzI85y6gIa8zZs3e3l50Tf+oKAgYZpUn6hEBHJrbCBjSTzQQck1pPesOd330baDHimqeNpUDd17Ki6++LKbvnzxjdTCGtza7MtehXZl6TboLwCJQOVjtPQhT+WJSkQgt8YGMpbEAx2UXEN6z5rNfcNOXPGyrUlbDVruFSdBfNlSXLPLrt9uGHumrnHT00+3GQBAHFPG6KVLx82fP1K33Lzx4cPZa9c8Hz3yi4m5zBVK2TS/jaH20oc8UxIlMfQeqaXDUGZ0Y9iwLrt2LdQtNxRJKreKCGTMXCH9U21UmL2DPn4MuH7dKyTkQHS0cYObWcLYM9pcIdsBSg/pPWse9424G8L+WXHgyMVxksWXwTU+038WrcE7Y/2/jwUYagwA0IuUMfr+/b02NtblyhUVlDdoULlatdK67c0YmzfPtLe3s9KSJk3qo0fXsHJDm27cuFrNmmV12xhqL33IS1yi6JKWLl3aQYM6ciVlyxb56acMsbFX2Ozy5eMzZ86gMXyk/KhRoywtrltuShjKjG7Y2qYeM6aHbrmhMEtu06e3t9aH7qdRb/A/D5YL3X5nQf3F9pY6tEiRfPPmjWDl1auX0W2sUUHGxPfNjJvmf6rNuFqzdBCLwECPChWKpUiRgp3yKVPaFC6cl1VJPyVNDN0zWvp4ZUpIPEBLDHeGQnrPmsF9v7x8sy9/W9remXa/a2Jj43iv8uX+vk3cZZn+hoeFHW0+nNazO1eLB1dvcosIWwMAdEhwjKb444/+bIC+ft2LXy5xCEt00ECcM6dT5colz5/fcvmy+4gRXU+f3sCqDG16ypR+48b11G1jqL30IS/RiapXr1Lx4s5s+v37MyRJ1ODvv31YSdu29ShEjpQfdAilShXULTclDGVGN3SvlOJhltx6es7dts2VYsCA9pQ3yjCbPXBguW5j3eB/HjZunD5x4q9clWDWlNDb7xptf+XJk239+ql9+rQhY6AGhw6tpPIqVUqWKVNYdz3JPmPi+8bftInB/1SbcbVm6SCKK1fcU6dORd8ENmyY9uiRH3kwfS+i05/VSj8lTQy9Z7SU8Up3VVxI+ZBIPEBLDHeGQnrPmsF9z/4ykTZ2pErvmM/fvDYy/qt82U1fEfFlMP0Ne/rsQLlutLZDzYdxt4pFlgIAMMTHaAr6xp8/f052S3Ls2HiXEN0hjBpzdwgkhsgif/31J23U3X2ObpXupnVDZvc1lCi6wKdIkSI8/DhNHz26hknSli2zaDYm5nLGjOmXLftd5Ej5IXIxEEkjq9U7rYmfGb1r4Ap1r5TiGzVjbik2bZpBKTpzZqNulcT4+ed6JUoUMDTLQvyI9FYZ6neNtr+4G1crVoynBtOnD9JY2H25SLIZ0xi5byKfXq5Q5FNtKCSuih/m6qA2berS4R8/vk63SqNv50X2ylC5SHCL6J7RGmnjFX9Vgh3Q+yFhLbnpBMccFiLDnfiChkJkEek9awb3/fLyDekv/YzT9ypfprDi4stgyz66cfdIyxF3L1w1alkAVI74GE1BAzSNfatXT/7ppww5cjjyH0XlD2GfP58fOLADtaHBccSIruzxtVu3vEuWLDhyZDfW5tOnc3XqVJg06d+7Ahs2TGvatHqGDOmcnH6aOnWA7qavXHGnTdNqdav4m542bSAZxoMH+2i6b9+fu3VrrttG93LCQvqQl+hEHTmymsp3715I07NmDc6aNbO1tfXQoZ1p9uLFbVR1+/YukSPlh96LgaE0slTs2PG/4sWdM2VymDKl34cPZzt3bpIuXdratcvTFlkzlpm1a6cUKpSHBI4aREScZlVfvpynldCytM+05lSpUnJXSkMb5YcZc6vRZ0s1a5blNr19+2w6zMOHV7HZ4cO7DhvWRcP7PNAVnQ48depU1MzFpblgVmPgA8ytga73uXNnHT++N3+XWBjqd01892XNRo1y0fw4900iGdPo2zf+prnpBD+9hvaBf77rrtbHZxH7VT7/u4qhVfHDLB0UFnaM5JL2ULeKBX/nDZ1okZEXaOcpw9Qj5csXZb9PYNGuXX02vFCQwlICuS/VImc0F1LGK42BHdP9kNB+0oDv7JzTxsY6Z06nNWsma74foN5e4Ife4U7kwOn6wo7O0TET7RKtnHuq+No1z/btG9D4RpubOXOw7rak96wZ3JcPe9pBIL7S790m7p4xAEBkjGbRp08bGs7owvPbb79Yff+lLQv+GE3NaFhZvHgMXaVorFy5ciIrHzeuJy1F1zCapgs/XVeePj3Eqvr3bzdkSCdv7wWdOjWmNo8e+eluvUKFYlTVqlVtbikW3KbZRZQNqfxykWl+SB/yEp0oKkmZ0oZJT8uWtXr1ak3fB9jvN+fMGZY9exbWzNCR8kPvxcBQGumQaX/Ylalx42pURb5F3jB79lAHB3v+N4S0adPQZWnChD7161eiZtyVrF+/dnR1HDSoo4fH3KpVS1EVd6U0tFF+mDG3Gn22RNf4IkXysWl2I419y4qKukiX5FWrJml4/U4LlitXlNzUzW3a/v3LBLMawx9gWoOdnW22bJlJ4/TeqDPU75r47kvNqPbSpe2aH+e+SSRjGn37xt80m5by6RXZB73nPk2nT29Po9Dgwb906NCQVnvu3BbxVfHDLB1EW6TturoO0a1iwd9hQycanZs0qvTs2Wrduj/oM0Yyff78vwdSunSh1q3rsOnnz4/QUitWjOeWMnRGcyFxvNK7Y7ofEpJRqu3evYWv7xL2Cy6NaC/wQ+9wJ3LgtBUybOrHnTvn161bkX90tCrS8T17FtOO0Z7obkt6z1rKfRmJeGaX/6wwA+4LQIKIjNEa7Z8h0yBFAw1N0xDDRjGulhujnz07QlcLNlxqtINvnToV2DRdVulKT5errVtnURsaenS3cvfublqz3qq3b081a1aDaulC6OU1jytnmz51agN9++fuK3Pl4tP8kD7kmZIoykClSiVowtEx09q1U2j4trVNHRl5oVGjquzuiMbwkfJD78WAC0Ea6ZAp7Zcvf7tDRomiqrZt6339ekmj/b1k3rzZuWZ0PXv8+CCbLV++KF0UNdo7RnSZ7NKlKSunBSnVuldKkb4zV25Z6NrS6tWT2UX3y5fz9vZ2WbNmZkJJ11e6ItJnUhO/30V+gy/yAW6g/W5w9eoObkF+iPc7bZo8gL5UkD2w/LPyH+W+SSFjLHT3jS3IP2ET/PSK74Pec5+myZz8/FbQNH3JpNXOmvXtLqDIqvhhlg7aseN/tN3Nm2fqVrHQO1jxTzQyWtrb9u0bsKpXr45T91Fa2Kwh95V4RmukjVdcCEYA3Q8J9zd8XBjqBUHoDnciBx4aephfFR19mX909E2MvjjR2SrYBBfSe9Yi7vvsO4nQVvbkg4krAUBtiIzRFCSsNDCtWjWJBjgKkiS6ZH74cJbVcmO0v/+3x8KoloZdCrK3/Plzcit5+HA/XcaoQdOm1fkr//z5/JYts3777ZfmzWuyrejugEb7kNaGDdPIMGiYY/ePNdpN58zplCVLxvr1K/F/OylyzdO9nGiMGfJMSRQNwTTWkw1YaX9juH79VJqgK7qdnS0dGrcSvUfKD92LgcZwGvmHfO2aJ1V5es5lsz16tMyVK6tuM4qBAzvY2FiTiJOX0CKLFo3hqvhPBxraKD/MlVsWurYUEnKASujafPDgn5RJmqC8hYUdo0PQ2+8iJifyATb0yWEh3u+0INlGsWL56ZNPmSR7YOU/yn2TQsZY6O6bYEEpn16J+2BoOibmstX333KIrIofZumgQ4dW0raWLBmrW8WCv5N6TzT2/Mzixf+dm9QvnGIacl/xM5ofUsYrvTum0fch4d+bYGGoFwRRTWe4Ezlw9mjy0qXjuCr+0c2Y8RvV0iWD0q73DZLSe9Yi7suROGfl9NfE9QCgHkTGaAr6om+lA3fHghvC2CNiXbo0XbNmMgtyAm4l9+7tYX8JNGRIJ67w69dLdepUIHkdNcpl5cqJVgb8iYs7d3bT9/gG3x+So4ncubPmyOFIX+jJrblmhq5zhq7H0oc8UxLl67uEZumanTnzt7cF0eWEZtkv+7gbrlwIjpQfuhcDkTRKsQdBM4pBgzpSyzdvTrIrNDkKV8VdS0Q2yg9z5ZaFXlsqUiRfx46N6HPVqlXtZ8++XeY9PObSp2Lu3OGsAf/oRExO5ANs6JPDQrzfq/GeeeDHj3JfTRLIGAu9+2bohDX06ZW4D4am+dYlsip+mKWDHjzYZ6UdDXSrWHA7aehEY38aS19duEUqViyeL18ONm3IfUXOaEEkOF4Z2jGNvg/J5Ml9Bes31AuC0B3uRA6c/daFPxAJjo4+P3Qysl7mr5OF9J41v/vySbSwMv01y6oAUAMiY/STJwetra3Hjev56JEfi6tXd9jYWNP1njXghrDQ0MMpUqRo0aKW7kqioi5WqlSiQoVi/fq1o3GHe9Zqz57FNLtx43TN91976X3Ajh902RYYG10UM2RIV7RovlevjvPLxaf5IX3IMyVR7HdzVtrHeTXa+7sZM6an2UKF8uiuTRP/SPmhezEQSaMUexA002gfO6ZLmkb7eiNScO6PZv7556+UKW3YtURko/wwS2650GtLw4Z1yZTJIU+ebKtXf3vgu2TJguXKFaVmQUG+rAH/6Nq1q8+/mcefFfkAG/rkaCT0e7Wk574/NmNc6N03QyesoU+vxH0wNM23LpFV8cMsHUTbpbTT2UTfcnVrNbydNHSi0bd9mu7VqzVrz57Q5T519NHiHthgbxdh7ityRgsiwfHK0I5p4n9IqIrWo/tRN9QLgtAd7kQOnNbj6JipU6fGrIo9WCI4OmrTrVtzOkO56wUX0nvWzO4bGR9htTEIVmXi2gBI3oiM0bNnD6VLu+DPmOjyQIXs77H4Q1jPnq1oTBk/vveNG15nz27i7i5MmNDH3t7u7799vnw5z/6ql905uHBhK41NAwa0379/WZMm3/6WhX9XmAWNsLR4YKBHWNixP/+cQG1ol1gVt2l//zU0oNeoUfbz5/OCXTI0zQ/pQ54piaKgQZz2f86cYWyWHTL3YgeRI+UHHUK+fDmOHl3DhZ/fCkNplGIPrFmqVCldXYcEB++bNm0gXUu4F3HUq1eJrnlz5w5fv34qbZe7lkjpO42ZcsuFXluiHbDSwvI8YkRXmiax4Brwk0DHSLUHDiwnCdCdNfQBNvTJ0Ujo92pJz31/bMa40Ltvhk5YkU+vlH0wNC2wLkOr4oe5Oog9YJ05cwbaCp13t2/vWrNmcsWKxVktt5MiJ1rz5jXZ68YuXdrO/tqMvZlBo/0rtPTp7b285k2e3NfWNrUV72/dDJ3RuiE+XonsmOBDQq5Js7SHJ06sd3ef4+OzSCPaC/zQHe6ePTsicuDkxDRLaSQbzps3O02z14yQu//22y979y598GAf7a2T00/cU0lcSO9ZM7tv4oiOjt6+ffubN9/ekgYASAQiYzRdERs3riYo9PZeQGPKggWjaLphwyrVq5dh5TTS9enThsyJasml2Hfx06c3kAdwv6IiA06XLi33P5ZcXJpTewoamFq3rsMfo1nQ1Y77V2c5cjjSyPvp0zlWxd80Dal0IWF/5cAvNzTND+lDnimJomAvATh1agObpbGeZrm/aRM5Un7QIbA2HBs3TjeURv4hX7/uZcXbHF3mc+f+z33Lly9KFwxqQGns3LkJt2nqvqxZM1O5g4P9unV/pEnz3+8QDW2UH2bJLRebN8+krZCU8As/fgygq3uFCsXY7L59S6nNlCn9uAb8JISEHGD3OBtonycRzOr9AAvWIIgE+93Q/2+rWrWUDO6bBDPGhd59M3TCinx6peyDoWlmXfR9T3xV/DBjB9GX9kKF8lhpofOueHFnziz5O2noRHv+/EjTptXZ3VkaVBcuHM2tmaSwcOG8VE7+x55eoK/TrErkjBaE+HilMbxjgg/Ju3enf/mlEV0FqCRt2jTs/WIivcAPvcOdyIGT0dJ3OTq56BNCe04bnTHjN43WfYsVy8/2oXTpQsy/BSG9Z2V137CwsL///pubjYqKCgwMdHd3b9269ZgxY+bOnctrCwAwggTHaKMiMvLC/ft7ub/pSTDCwo6x2wM0PNGgqfvucSoJDt537ZqnbpVZQvqQZ95E6YYpR5pgGkWCLk5s2adPD719e0pQS1emhw/3s7+vF0SCG006ueXHkycH+X/uLZg19gNs3kDGEhdm3AfxVZm9g8LDj58/v0X3V/D8EDnRIiJOU4neP96ibtIt1Iie0caGyI4JPiRkpYb2M3EhcuAstm1ztdI+y86V0P6IvD5Ses/K6r7r168vUaIEN/vixQurb89cP86ePfvRo0fz58/PawsAMAKJY3RyDelDnsoTlYhAbo0NZCyJBzooKceUKf26dGm6bNnvQ4d2zpIlY758OaKiLuo20xvSe1a/+164cKFLly69e/fu8x2abtu27bVr14RNjYH2pkyZMtxseHg4uS/9JCe+cePG27dveW0BAEag8jFa+pCn8kQlIpBbYwMZS+KBDkrKsXXrrE6dGpcpU7hKlZIDB3YIDT2s28ZQSO9Z/e57586d0aNHT+QxatQo8tTDhw8Lm0rg9evXW7Zs2blz55AhQ/LkyeP9HVJe7ZMfG2n/3N3dhYsBACSj8jFa+pCn8kQlIpBbYwMZS+KBDkquIb1n9buvLmTDVt/+pPSpsEICDx8+rFChQo0aNQoVKmRvb1/jO5UqffvHm1WrVq1evXrDhg2FiwEAJKPyMVr6kKfyRCUikFtjAxlL4oEOSq4hvWeluu++fftIWwWFYWFhERERHwzw/v17wasbBM88PHnyhNz348ePvCZGrxMAEKf6MVr6kKfyRCUikFtjAxlL4oEOSq4hvWeluu+SJUvKlSsnKHR2dv7+zgr9FChQgN9e4L53796lNtHR0bwmRq8TABCn+jFa+pCn8kQlIpBbYwMZS+KBDkquIb1npbpvnz59XFxcBIXBWkIMQFX379/nt3dzc+O/58HPzy9Tpky8+m8Yu04AQJzqx2jpQ57KE5WIQG6NDWQsiQc6KLmG9J6V6r7ly5efN2+esNRInj9/fv78eW52+PDhrVu35tUDABIJG6P/XrSATn4VBh24xCFP5YlKRCC3xgYylsQDHZRcQ3rP6nHfxYsXL1q0aEl8bG1te/XqRRNUZboEE0eOHLG2tvb09BRWAACMh43RKg8pQx4SlbhAbo0NZCyJBzoouYaUntXjvp06dWrTps3PBqCqzp07C5cxhpiYGHd39yxZsug+RAEASBxf330IO3GFxV+L1nlNW7h1wuwt411pFFBRbNyS4JCHRCUykFtjAxlL4oEOSq4hoWf1uK9FuX//foECBZycnNasWRMbGyusBgCYTEBAwN69e+kb5iZVQgdOh09JCAkJEaYmPipPVCJAbo0FGUvioIOSK+I9K7f7ajSalStXRkRECCsAAGYiMDCQvuz6+PjQyb9ZZdAh04HT4VMSQkNDhamJj5oTlQiQW2NBxpI46KDkSoI9K7f7AgAsTVBQ0MWLF+m0p2+9XiqDDpkOnA6fkhAeHi5MTXzUnKhEgNwaCzKWxEEHJVcS7FlZ3ffWtHXCIgCAuaGvuXTC0/fdgIAAf3nZNHCisEhe6JDpwOnwKQkJ/n7pByZKhB+eQ0MoK7dJIY3KyljiSAp5TjRq6CBxFN19IiTYs7K6r4dVZWERAMDc0KlO33TpnA8JCQmSl6WpyguL5IUOmQ6cDp+SEBkZKUxNfH5gokT44Tk0hLJymxTSqKyMJY6kkOdEo4YOEkfR3SdCgj0L9wUAmA2c46aDHJoFpFEekGdFo9rug/sCAMwGznHTQQ7NAtIoD8izolFt98F9AQBmA+e46SCHZgFplAfkWdGotvtkdV/8rRsAyRuc46aDHJoFpFEekGdFo9ruk9V9AQAAAAAA+IHAfQEAAAAAgFqA+wIAAAAAALUA9wUAAAAAAGpBVvdV7VPVAKgEnOOmgxyaBaRRHpBnRaPa7pPVfVX7Ng0AVALOcdNBDs0C0igPyLOiUW33wX0BAGYD57jpIIdmAWmUB+RZ0ai2++C+AACzgXPcdJBDs4A0ygPyrGhU231wXwCA2cA5bjrIoVlAGuUBeVY0qu0+Wd1XtU9VA6AScI6bDnJoFpBGeUCeFY1qu09W900E9+/ff/bsmbDUYkjZHL+NePvx48cfOnSIJjQazdu3b6Ojo2NiYujnly9fuDZU8vz58xMnTsyYMWPs2LFUcuvWrZEjR3INAAAAAACAuUhC7hsYGDhmzJhr167xC0uWLDlkyBB+ibn4559/5s6d26BBgx49eqxcuZIVGtrcwoUL9+zZw6b5bQy1J9mln927d9+7dy9N3Lt3L0uWLHm0ODo6duzYkQo/fPhQuHBhKsmZM2eVKlWWL19OGaDy8+fP165dO/76AAAAAACAGUhC7tupUycrKysXFxd+oSG5NJHY2NiCBQsWLVp06tSpbdq0qVChAis3tLkaNWqMGzeOTUtx3xIlStjZ2dlosbW1dXNz46rIobt27UoTt2/fXrBgAWk3qXCrVq1oYv78+S9evCD3JSP/b10AAAAAAMBMJBX3DQ8PT62FlPHt27dcua5csluqJrJ//37y7IsXL7JZbp26m9NFivvS4bx7965Lly6enp40/eHDB66Kc99z584NGzZs7NixDRs2rFatGk2MHDmyZcuW5NmZM2cmG6ZyUuH/VgoAAAAAAExDVvcVeap6wYIFtra2GzduJCVdsWIFV86Xy0ePHjVu3DhNmjT58uXz8fGhkuvXrxctWnThwoWswbZt28qVK/fq1SuanjlzZpUqVWidpUuXPnLkyPf1/cvZs2dpQ7NnzxaUc5t79uwZLT5jxgxWTiZKKxS0EUxz0LJ+fn7Hjx9v0KCBq6urv7//5cuX//zzzzVafvvtt86dO7OWLi4uJLhFihQpWLBgIy2HDh36/fffSX/37t3r5OQk8jAxAEkQkXMcSAQ5NAtIozwgz4pGtd0nq/uKvE2DFLZbt24xMTG5cuUqW7YsV87JZWxsbJkyZcgUySOHDh2aLVs21mD69Ok2NjZHjx59+PBh+vTpSS5Z+Zw5c7y9vW/fvl2zZs169epxK+Ro2rQp6W/Lli3v37/PFbLNRURE0Lbq168fFRXFLxef5rh27dqgQYNoJ0m7mzRpQtNubm6pUqVarmXp0qW+vr6sZYkSJUjiaQ29e/cmQc+ZMycVrlq1auDAgTRBx8i/BQ5A0kfkHAcSQQ7NAtIoD8izolFt9yUJ9z158iRpKP2k6alTp9I0CS6r4uTy3LlzVE5Ge/bsWS8vL5pmfxWn0WjIX7NkyVK+fPlWrVrx1vqNjx8/TpgwgZxYUB6nlemZM2faadm2bRsrpM3169ePXJm0lQyYa2zId/W6L0GCS747fPjw7du3s5K0adNytdyayX3piH7++efmzZsvWbLEycmJCidNmkRCTxMZM2aMjIzklgIg6WPoHAfSQQ7NAtIoD8izolFt9yUJ93VxcSGX7dKlS9euXevXr0/T7MZnHE8uPTw8qNzZ2bnEd7y9vVmbe/fuUVWKFCmePHnCrXPlypW5c+fOmjUrLaLXfRkPHjyoWLEiLfv48eM47eZSp05Na+P/dRor1+u7htx30KBB69atI/fNlStXkSJFFi9ezHffAQMGeHp60kSxYsXq1KlTqFAh2slGjRplzpw5TntDmt0Ytre35xYBQBEYOseBdJBDs4A0ygPyrGhU230/3n3fvHmTJk0ast5536lcuXKGDBk+ffoUp3Pfl4RSsHhsbGzDhg3LlStHptinTx9WeOLECWq8fv16mp4/f76I+xIBAQHcmmlzpK0dOnSws7OjlXBtDPmuIfdt0qRJs2bNqIrd942JiaFjfPHixYcPH54/f16tWrXDhw9TIW1027ZtPXv27NixI7XcunUrZYP29vXr19TS0dFRuF4AkjZ6z3FgFMihWUAa5QF5VjSq7T5Z3VfvU9VLly4l0STn40rYSxg2bdoUx5PL6OjosmXLFi5c+NChQ5GRkdeuXWN3aqdNm0aOGBoa6u7uTkux5319fHxoes+ePadOnapZs6aNjc379++59RPHjh2jliEhIR8/fhw5cqStrW1wcDC3uaioqKZNm5KDXrp0ibU35Lt63Ze2lSVLljZt2qRNm5Z75mHEiBEVK1YsXbp0pUqVBgwY8OXLF9rK3Llzly9f3q5du5YtWy5ZsmT06NFz5szp1q0btb9x40aZMmXirReAJI/ecxwYBXJoFpBGeUCeFY1qu09W99UL6WCvXr34JbGxsblz565Tpw5NlypVaujQoaycVJUK2eMNmTJl8vX1PXHiRMqUKdn/TiOGDRtGFnvlyhUS5QYNGlBLBwcHV1dXctCiRYt+X/03NmzYQC2pQapUqUipmWfH8Tb36dMnkubMmTPfu3ePXy4yzUE237hxYxL0wYMHFylShBqsXLlyy5YtZOekwhs3bly4cCFt8cyZM/379+/YsSO1+emnn0qUKFGsWDGSZhJ3Pz8/MvLu3bsL1gwAAAAAAEzhx7uvsUREREh889fLly9JguO0N2L5f7jGiImJ+fvvv/mPCJuLNWvWHD58mE2/evVq/fr1kyZNIi8fOHDggAED6Ofw4cP37dsXHBxMKkwG/PjxY7afc+fOXb169fnz5zt06PDLL7/cunUr3noBAAAAAIBpKM99AQAAAAAASBxwXwAAAAAAoBZkdV/VPlUNgErAOW46yKFZQBrlAXlWNKrtPlnd16i3aTx8+NDa2jq1lgULFgir43P//n2JDwEnM+bPn//HH39MnTqVfrq6ukZGRk6YMIErmTVrlnABACyJUec40AtyaBaQRnlAnhWNarsvSbsv94+L+QQGBo4ZM4b9UzcOve8asygTJ04co48EFXzhwoV79uwRliaWIkWKuLm57d+/f9++fVmzZv306ZOTk9N+Ldu2bWP/JDlO+xLl06dPx19UKl+/fn316lVwcPDTp0+FdQDEx6hzHOgFOTQLSKM8IM+KRrXdpzz37dSpk5WVlYuLC79Qfvft1atXFy358uVLly4dmybYW4dFqFGjxrhx49j0BS1clWBWCiVKlHB2di5WrFjRokXJdCMjI21sbIppKViwIFWxZocOHcqdO3f8ReNu3bol+AqxePHi3r17t2rVinayePHi2bNnt7Ozs/rO2LFj+Y0B0MWocxzoBTk0C0ijPCDPika13acw9w0PD2dPQZCTvX37livXdV+NRsOftRw9e/YsVKiQsFQa1apVo8UNzTLED4QOPDAw8M2bN69fvyZVJfclx32jJSgoKH/+/KzZyZMndXdyypQpZMxfvnzhSgYOHNitW7eJEycuW7Zsx44d/v7+pPiZMmWilmTJHz9+5C0NgB6MOseBXpBDs4A0ygPyrGhU232yuq9RT1Xrdd8FCxbY2tpu3LjRyspqxYoVXDnffR89etS4ceM0adLky5fPx8eHSq5fv06St3DhQtZg27Zt5cqVe/XqFU3PnDmzSpUqtM7SpUsfOXLk+/qMQOC+1atXX758OZvu0qUL+w8dxJ49e2rWrEkTrVq1oo3SxNixY2m76dOnL1y48NatWwWzcfoOhC0+adIkWrO9vT2liA68atWqDRo0qFevXsWKFT9//uzs7Fy/fn0qqVGjBue+Fy9ezJUrF5vmIOstWLDgjBkzBOUMcu4+ffrUrVs3wac4AOAw6hwHekEOzQLSKA/Is6JRbffJ6r5Godd9SWG7desWExNDJle2bFmunHPf2NjYMmXKNGzY8PLly0OHDuXWMH36dBsbm6NHj9JqyS/Zvz4m5syZ4+3tffv2bRJT0kduhdIRuG/Xrl1Jf2ni9evX7FGB+/fv02z79u379+8fx9tV2pNSpUo1b96cxPTly5eCWUMHQounSJGiR48e+/fvJ9OlWVrw4MGDu3fv9uFBqk1yzz3zEBQUlDFjRjbNh3TfwcGBfwedY9WqVSTTIvd6p02bRscoLAUAAAAASMIkaffNnj07v+TkyZOkkvSTpqdOnUrT5IWsihPKc+fOUTkZ7dmzZ728vGiaPdKq0WhatmyZJUuW8uXLt2rVirfWb5DhTZgwgZxYUC4Fgfu6u7uTZJMUbtq0ifbKycnpzz//pPXb2dmRecfFv0Ut8syDoQOhxZs2bcotwtx37dq1/fr1I1VdsmRJ6dKlR4wYsXTpUr77RkREkDG/f/+eTXOLE5UrV+ZuVPOhZf/66y9hKQ/Scdq0sBQAAAAAIAmTdN2X+Pz5M3/WxcWFFLBLly5du3atX78+TQ8cOJBVcULp4eFB5eRtJb7j7e3N2ty7d4+qSAH5/8d45cqVuXPnzpo1Ky1iFvcl6yX33b59e5s2bUjQu3fv3rp1a9orR0fHmJiYOMnua+hABE820ywd1+nTp8l627Vrd/Xq1Tp16mzevPnMmTNPnz7l3DdO+0YI9qqHUaNGLVu2jCufNGlS3bp1uVnG169fra2txdUW7gsAAAAAxZGk3ZfPmzdv0qRJQ9Y77zuVK1fOkCHDp0+f4nTu+65bJ3yEJTY2tmHDhuXKlbO3t+/Tpw8rPHHiBDVev359nPZFucx9Hz9+rPc+qCF0/9atVq1abdu2tbOzu379OkkwrbZVq1YDBgxgtQL3JTnmFuTPGjoQXfe9efMmfQegbJD1jhw5smDBgp07d6aS4OBgvvv27du3f//+Go0mb968Bw4c4MqPHz9OOWFezqds2bLk7oJCPnBfAAAAACgOWd3XlKeqly5dSjZJBsyV7N+/n+xw06ZNcTwjjI6OJmkrXLjwoUOHIiMjr127xl46Nm3aNEdHx9DQUHd3d1qKPe/r4+ND03v27Dl16lTNmjVtbGzev38fFBREdti7d2/xFyxw6Lrv//73P3bLNk77Ygpra2ua9ff3Z7V8eXVxcaFlucdt+bOGDkTXfZmA1q5d+8yZMzTRrl079qI0/jMPcdp//0FfHipVqlS8eHG+6UZFRXGPjvAJCAgga+/QocPRo0fZ3wUKgPsCXUw5xwEDOTQLSKM8IM+KRrXdJ6v7mvI2jdKlS/fq1YtfEhsbmzt3bvYihVKlSg0dOpSVh4SEUCF7vCFTpky+vr4nTpxImTIlSSRrMGzYMFtb2ytXrpBfNmjQgFo6ODi4urqmTZu2aNGi1ODp06c5cuSYOHHiv1sSRdd9b968SescPXo0myXddHJy4nSTv6vkl+TZtG/s3rNgVvdABIsTJLLBwcELFiyoXr0620SrVq3OnTtHB7t3717BjpEcT5kyRfofqD148KBv376UiiJFigjr4L5AH6ac44CBHJoFpFEekGdFo9ruU4z7GktERITEl3O9fPmSJJgm3r9/z/0dGGkoKXK8dpZBo9E8efKEM2PBbFxCB1KuXLm///571qxZ4eHhrOTPP/+kkgEDBrRu3Zr/XK8p8HV5xYoV2bRYW1uTnf/XCCQvPj8LD17rE/U63l9GJoic53hyBTk0C0ijPCDPika13Zds3RdYiKioqPffEdaB5EXYiSve6esdq/db2MmrwjoD4Bw3HeTQLCCN8oA8KxrVdh/cFwBgkLDjl71SVqcz18epya1p6xO8DYxz3HSQQ7OANMoD8qxoVNt9srqvap+qBkC5kP7utKtFQ6RHiqqeqaqL3wbGOW46yKFZQBrlAXlWNKrtPlndFwCgRP7TX22QAUu8DQwAAAAkNWR1X+7aiUAglBue1lX9inakiV0ZGzw7GKDbQBDCgQAAAAD4ccjqvgAAJXJtzFJPrcX6Zm9+ovGw/YXa+xXvdG/xDnbfV9xuxWsBAAAAmYH7AgDEYOLrV6SDf51BuzI2OOcyNfz0NX4DcbsVrwUAAABkRlb3Ve1T1QAolLv/2+yVqoanTVX+jV4B4nZLta6urm5ubqdPnxbWAX1gnDQLSKM8IM+KRrXdJ6v7il8jAQBJirATV3ZnbqR7o1eA+HlNtVOnTl26dOmRI0eEdUAf4vkEEkEa5QF5VjSq7T64LwBAD9L/r5v4eQ33NRbxfAKJII3ygDwrGtV2H9wXAGAS4uc13NdYxPMJJII0ygPyrGhU231wXwCASYif13BfYxHPJ5AI0igPyLOiUW33yeq+qn2qGoBkjPjoCfc1FoyTZgFplAfkWdGotvtkdV8AQPID7gsAAEBBwH0BACYB9wUAAKAg4L4AAJOA+wIAAFAQcF8AgEnAfQFINDGfvgiLAAAWRlb3Ve1T1QAkY+C+5kV8nKR8IpJZBC3dIexm5SD+cQVJHNV2n6zu6yF6jQQAKBHx89oD7mskCeYzOvp3RLIJ6lDvtNWUq7/iH1eQxFFt98F9AQAmIX5ew32NJcF86voTQrlBHfr86ADl6q/4xxUkcVTbfXBfAIBJiJ/XcF9jSTCfuv6EUG6wDv2mv3ZVT41fHBISEh4eHhkZKez4pIr4xxUkcVTbfXBfAIBJiJ/XcF9jSTCfuv6EUG5wHcr09+iouUFBQQrSX/GPK0jiqLb7ZHVf1T5VDUAyRnz0hPsai/g4CfdNZsHvUKa/h0fMUZD+in9cQRJHtd0nq/sCAJIfprjvq1evYmJiuNno6OjXr1/z6uOxZs2aAwcOCEstxosXL1avXh0bGyus+KHAfZNZCDpUifoLgOKA+wIATMIU97Wxsblx4wY3e/LkyZ9++olX/x8fPnzInDnz/v37hRVGcunSJU9PTy8vLw8Pj+3bt2/ZssXNzc3X11fYLi7u9u3btHvC0h9NUnDfv//u/+TJYN1yVUVY2PDr139l06YkRLdDob8AWBq4LwDAJExxX1tb27t373KzAQEB2bJl49X/x5QpU6ysrNq2bduiRYvGjRvXrVu3d+/e/AbNtbSMD5U0a9aM32zy5MnOzs5lypSpUKFC1apVa9asmSFDhuLFi/PbMO7du5cqVSph6Y9GV5UoZs+u4+7eRrfcQlGihONvv5XXLafdGDWqMsWcOXVv3PjXC394CJLz8eMY2sNTp1x0WxoVq1Y1oQ/k16/fpg0lREro7VDoLwAWBe4LADAJU9w3TZo0Utz3xo0b1HLs2LHz589fsmTJypUrq1SpUr9+fX4b2sqsWbNcXV2HDBlCjV21zNLCbybgxYsXDg4OW7duFVZo3Td16tTC0h+NXlVyds7Ys2cp3XILhSHVo93Inz9jkybODg625IUbNrTQbSNDBAT0oOBmBcl59WoE7dvSpY10FzQqLOq+0dBfACyJrO6r2qeqAUjGmNF9z549mytXLl79N968eVO+fPl16/4bPaKjo0mRd+zQ/z7Ua9euGXpwQpeePXsWKlSI/8wxB7mvjY3NnTt3hBUWRnyc1KtKScd9+/QpE629t5otm32dOnn4tUwTTQwpK6laNWePHiW52R/ivlL2k4WHzr95ix9Vjv+5JSnrr/jHFSRxVNt9srqv+DUSAKBExM9rcfcVPPNw/PjxggUL8urjbt26VaBAgUWLFvELPTw8cuTI8fXrV34hh3T3PXfunLW19cGDB4UVWsh9qZZWVa1aNTc3N9nMI8F86vqTXvedPr1W5co5bG1tSpVy/OuvTqywRo1cnPYtWtSgdu3cbLply4J//FFz5MjKWbPaly7tdOhQZ1b+6NFvHTsWdXRMS+spVOgnktporeoNGFBOtzHnvhSVKmWnYNMPHgxq1Ch/mjQp8+bN4O3djhUGBw9q0CCfnV3KokUz01K0cuaLhvZQ70p8fTvUrJkrdWqbnDnT37nTj0pGj65Cu5o+fWpa4aZNLdleibiv3iwZygZ/n9u3L6LXffXuJ61wwoRqnTsXt7dPdf/+QG5nEgzq7r179wYEBCRZ/RX/uIIkjmq7D+4LADAJ8fNaxH01Gk2xYsXu37/PlezYsaNixYq8JnHHjh2bO3cuv4QMIGvWrKtWreIX8pHoviQT+fLlq1GjBu2GsE4Le+bh06dPK1euLFKkSM6cOVesWCGDfCSYT11D0uu+rq51PD3b3rjxK9lk3br/3oLNnj3dlCk12PTEidVz53Zg02RvKVNaN26c38vrZ3LWatVyUuGXL2PLlHH66ac08+fXv3mz7+7d7SMjxxlqzHaDLPbevQHUnrxw+fLGVBgVNY70kZTxwoWegwdXyJbNPlp7W7Rs2ay0noMHOx0+3Jm8k/NIvXuodyW0MyTl/fqVffBgIOkpSS0VklmWLOnYrFmBc+d6hIYOZXtFO0kazYLSwndfvVnSe4Ai+8y5r979ZA1SpLDq3r0kyfr796NZoZSg7t62bVtS1l/xjytI4qi2++C+AACTED+vRdxXl06dOvXp00dYyoMu/M2bN2/VqpWwgocU971y5YqTk1Pr1q1Jalu2bPnmzRthi/jP+5Ifb9q0KUeOHIMGDYrfyvwkmE9dQ9LrvizevRv1++9V06dPzWb1mmW0Vs5q1sz1+fNYmp41q46dXUqaOHOmO+ndqFHCLeptHK3dDavvzJhRm3khWwkp5qlTLjt2tKHpK1d6kxrSxNq1zdiC/OcH9O6h3pVQ+xw50pUvn400l797us885Mnj8PPPhVm0aFGA774sBFnSe4Ai+8y5r979ZA2aNHHmb1FiUHdv3LjR3d3dz8/v4sWLISEhERERws/ED0X84wqSOKrtPrgvAMAkxM9r6e57+PBhW1vb8+fPCyu+Q4Zaq1atMmXKhIeHC6quX79OqhqkZffu3RkyZGDTBJXfvn2b33jfvn0ODg6//vprTEzMu3fvSKadnZ0fPHjAbxOn72/dPn78qNeSzUuC+dQ1JL3uu2JFYxLHrFnt8+fPKMV9ud/aL1zYgNne9u2tyd58fTsI1qy3cbR2Nzp2LHrpUq9MmdI0b16AFbKV0D4UL56FhadnW+aF1JK1SdB99a4kWuuahQr9RFVktM+efbvLG63PfUWeedCbJb0HKLLPXHtD+8lfoVFB3U1fujZv3uzl5eXv73/r1i3dD/+PRfzjCpI4qu0+Wd1XtU9VA5CMER89pbgvCeWUKVNIfA09yaDRaLy9vQsWLNisWbMPHz4Iq+PiKlWqRE5cVh9UTrWs2aVLl9q1a0fi6+bmxi0bGxvbs2fPbNmykUBzhXH63FcexMdJie7r79+Vu0k5d249vvuOH1+NTXftWlzcfU+fdqGVTJjwb3su9DaO5j3vu2VLK1qQqqK/3wpds6Ypfw2BgX2o0MvrZza7bFkjvvvq7qHelbCgpchK7e1TjRtXlZWQ+7q4lOAaiLivoSzpPUCRfRbc99XdT1Pcd9u2bRs3bmRPPly8eDE0NFT4mfihiH9cQRJHtd0nq/sCAJIfJrpv586dSTGrV69u6I7vy5cvy5cv7+jouHLlSr0vZJCOi4tL9+7dnz59Kiin1bZv337UqFH8wtu3b1tbW/NLjOLzs/DgtT5Rr838G2pD7tuuXZH79weyePToN2/vdiRhu3a1O368W40auWxsUrx5M5Ja1qqVu1q1nFeu9B4xohI1EHffL1/GlirlmC2b/caNLZ8+HeLj0z4iYpShxmw3uL9169ixaOrUNhcv9mIPDRcq9JOf3y8fP46hTQcHD6IGefI40I6dOuXi5taCzJXzSL17qHcl79+PJst8+HDQ8+fDcuZM379/Obbpbt1KFCyYKTz82+O/bK8Mua+hLBk6QEP7zLXXu5+CFRoV1N0eHh7kvlu2bNm1a9fJkydDQkKEnwkAgJHAfQEAJmGi+164cCHB94jR5d/SjzlGR0cLxDosLGzNmjWm/E/jsBNXdv/U8FTLUeGnrwnrEosh97XiUbjwTyRh9evnpWkHB9uZM2unTZuqSJHM1HL37vZOTmlTpLBq0CDf4MEVOPctWdKRZtn0okUNqD2b/vvv/hUrZmerzZEjHRmwSGO++758OTx79nQFCmQiQ33wYGDt2rlpDbTdTJnS0D5Qg61bW5FTUiEtNWpUZavvHmloD3VXQhabL18GmrW1tWnYMN8//3zbt2jt7eq8eR1SprRmN3T1uu+yZd/c11CWDB0gf59Hj67C7TO/ve5+ChoYFdTdnp6e/McegoKChJ8JAICRwH0BACZhovsmb0h/vVLX8EhR2TdH87vztpp+G1iv+xqK0NChpHc08ebNyNev/70P+vnzWBJT3cYi8fz5MGMX0Q3aAcE//v30aczjx99K+M/ORovuoe5KwsNHcIfGBa3q4cNB7K0UCYbeLBkKbp/FQ3c/ExdwXwAsAdwXAGAScF9xSH93pa9L+uuZqoaXbc2TLUy6DWyU+yolBO6L4ALuC4AlkNV9VftUNQDJGLhvgnD6++3xTavKO+1qidwGFh8nk6X7XrjQc/Lkf9/tgOBH0ndf8Y8rSOKotvtkdV/xayQAQImIn9fM9hB6w9uh/rODAbrlghDkU9eQEMk1PJK8+wo+n0BZqLb74L4AAJMQP689cN9Xe9/X264WE1mv1DV2Zay/L3/be4t3sPu+CSZQMKtrSIjkGnBfYFFU231wXwCASYif13BfTnx3ZWqw06722U6TBM/7JphAwayuISGSa8B9gUVRbffBfQEAJiF+Xqvcfb+95yFVdY8UVfg3egUkmEBXV1c3N7fTp0+zWV1DQiTXgPsCi6La7pPVfVX7VDUAyRjx0VPN7sve76t7o1eAUQn00HkaGJG8I4m7Ly7rika13Ser+wIAkh8exqibepD+f90Sl0DSIJIhUiISI0+QrEnK7guAEoH7AgBMInHqBjgSl8CAgIC9e/e6u7tvAiqAOpq6mzod/9MYANOB+wIATCJx6gY4EpfAwMBAf39/Hx8fsqLNIFlDXUwdTd1NnR4aGsr/GAAAEgHcFwBgEolTN8CRuAQGBQVdvHiRfGjv3r1eIFlDXUwdTd1NnR4eHs7/GAAAEoGs7qvap6oBSMYkTt0AR+ISGBoaSiYUGBgYEBDgD3TYNHCisEixUBdTR1N3U6dHRCT8BLmc4LKuaFTbfbK6r/gQDwBQIuLntSF1AxyJSyA5UHh4OMlQSEhIENBhaarywiLFQl1MHU3dTZ0eGRnJ/xj8cMQ/vSCJo9rug/sCAExC/Lw2pG6AAwm0BOJZBeYCeVY0qu0+uC8AwCTEz2uoW4IggZZAPKvAXCDPika13Qf3BQCYhPh5DXVLECTQEohnFZgL5FnRqLb7ZHVf1T5VDUAyRnz0hLolCBJoCXC5kQfkWdGotvtkdV8AQPID6mYiSCAAAMgJ3BcAYBJQNxNBAgEAQE7gvgAAk4C6mQgSCAAAcgL3BQCYhKLV7dSpU/v37xeWyouiEwgAAIpDVvdV7VPVACRjLKdulniN/7t373bs2MGm9+7d261bt169eh0+fDh+K1mxXALVDC438oA8KxrVdp+s7is+xAMAlIj4eZ1odXv58qWVldXjx4+FFfG5dOmSp6enl5eXh4fH9u3bt2zZ4ubm5uvrK2z3nXv37tnb27PpDRs2LFu2bN26dQsXLmQlL168+K+pYYzdqDgWSqDKEc8qMBfIs6JRbffBfQEAJiF+Xida3V69ekXuGx4eLqyIz+TJk52dncuUKVOhQoWqVavWrFkzQ4YMxYsX57f58OFDbGwsm37w4AE1YNNfv37t2rVrx44d37x5Q7PUJn/+/C4uLp8+feKW1YuUjUrHQglUOeJZBeYCeVY0qu0+uC8AwCTEz+tEqxtz39evXwsrRHnx4oWDg8PWrVv5hSSpVoZp0KAB1/LcuXOOjo6VKlViNszh4+Nz+vRpfgkfvRuVjoUSqHLEswrMBfKsaFTbfXBfAIBJiJ/XiVa38PBwElOBgyZIz549CxUqFBMTwy988ODBvXv3grT4+/unT5+eTRNUHhISwm/88OHDokWLtmnThit5//59zpw5+/fvz2sVD70blY6FEqhyxLMKzAXyrGhU232yuq9qn6oGIBkjPnomWt3CwsLIfd++fSsof/78uaCE49y5c9bW1gcPHhRWaP/ErXLlyi9fvgwODmbPPJw/f75Tp07Cdlpoo6TL3OzIkSOdnJwM3YEW2ahELJRAlYPLjTwgz4pGtd0nq/sCAJIfFlI39rduERER/MLHjx9nyZKFtJVfyAgKCsqXL1+NGjU0Go2wLi7O29vb2dmZJjj3/fjxY6ZMme7cuSNsGp9Tp07Z2Nhwr4YQIL5RiVgogQAAAPQC9wUAmISF1O3Fixfkvu/fv+dKQkNDy5cv37FjR13RvHLlipOTU+vWrYsUKdKyZUvdJyVq1649d+7cOJ77EuPGjevSpUu8djyioqImTZqUOnXqJUuWCOu0JLhRiVgogQAAAPQC9wUAmISF1O358+fkvh8+fKBpkt3du3eTaJL4fv78WdBy3759Dg4Ov/76a0xMzLt375o3b+7s7Mx/aOHAgQPUICwsLC6++/7zzz9p06bVexeZCkuXLk21tF1hnZYENyodCyUQAACAXuC+AACTsJC6hYaGkvv6+vpOnz69aNGiuXLlWr16taDNpUuX2rVrRw7q5ubGFcbGxvbs2TNbtmzXr1+P0z4mkSlTpk2bNrFavvsSc+bMyZMnDzPst2/fUrPRo0cXLlw4TZo0w4cP1/tssZSNGoWFEggAAEAvsrqvap+qBiAZY6K6Rb2OCF7r8/mZ8D2+5L62trZ58+bt3bu3p6fn169fBQ0IFxeX7t27P336VFAeExPTvn37UaNGxWmtlP9fJ+7fv58+fXpuNjo62svLi02HhYXlz5+/f//+e/bsYTasFykbNQoTEwj0gsuNPCDPika13Ser+4oP8QAAJSJ+XouoW/jpa2c7TdqduVHYiSuCKobuSx6kQ1Kr96VjT548GTx4sLDUTBjaqDiJTiAQQTyrwFwgz4pGtd0H9wUAmIT4ea2rblGvI+4t3rE3b2uPFJV3pqllSHzVg7EJBFIQzyowF8izolFt98F9AQAmIX5e89Ut/PS1Mx0meNnV8k5X1ytVtd0Z60N844xJoLAOGEY8q8BcIM+KRrXdB/cFAJiE+HlNtTPGTVz38yAvp8beDvU8bapRyU7bGhBfjgQT6Orq6ubmJvJPlYEu4lkF5gJ5VjSq7T5Z3Ve1T1UDkIwRHz2p1j3VN99FJDqWLl3q5eV19epVYXKBYXC5kQfkWdGotvtkdV8AQPLDIyH3nTlmwsbKnT3T1ORk7nCFHnscG+O+rwBXV9ep8aESEt8tW7YcOXLk3r17wgUAAAAYD9wXAGASCbov97jqE88jfiU6e6SoSoX7C/wM/RXg5ua2ND5U4uXlRam7evWq7lvVAAAAJAK4LwDAJKS7Lyv58uL1hV4zvO3reKSoTD+hvxynT58+Eh8qIeu9d+8eiW9ERIRwAQAAAMYD9wUAmISx7svxxPPI8QZDRN7vCwAAAJgdWd1XtU9VA5CMSbT7Mgz9XzfVgnHSLCCN8oA8KxrVdp+s7it+jQQAKBHx8zpB9wUCxPMJJII0ygPyrGhU231wXwCASYif13BfYxHPJ5AI0igPyLOiUW33wX0BACYhfl7DfY1FPJ9AIkijPCDPika13Qf3BQCYhPh5Dfc1FvF8AokgjfKAPCsa1XafrO6r2qeqAUjGiI+ecF9jwThpFpBGeUCeFY1qu09W9wUAJD/gvgAAABQE3BcAYBJwXwAAAAoC7pu0CAkJiY6OFpYCkISB+wIAAFAQSnXfhw8fWltbp9ayYMECYfWP48WLFx8+fBCW6oMc96+//vr06RObpQW3b9/u4uIyadKk+A0TZvDgwT4+PjRx+/ZtbnGyjZ07d/KbSdy37t27u7u700RUVNTEiROnfkfQLCgoaNSoUa6urmw2ODi4TJky8Zt8Q6PRXLt27fPnz8IKw+zdu/fBgwfCUn3MmTPn7du3wtLv7Nq16/z588JSAzx79iw2NlZYCiQA9wUAAKAgZHVfMz5VTe6bLVs2bpYUbYw+SGh4C+lh4cKFe/bsEZaaQMeOHSXKK5lWpkyZLl26xGbJSgsXLuzp6enk5CQwP6o6ffo02cP8+fNPnToVExPDryX69u1Lmkuq+vLlywIFCly+fJkmsmTJcvPmzbCwMK6ZxH3r1KkTc9+IiIh06dItWbJk8eLFdnZ2XIPDhw/TTtK3jh49esybNy9//vzFixcvVKgQlZTQQiXMxeO0Am1lZXXr1i1u8QSpW7fuvn372PTXr19FlNTR0fHp06fC0u80atRo48aNwtL4fPnyZfLkybTPdKSZM2emI3r//r2wERAF7mtezDhOqhmkUR6QZ0Wj2u6T1X3Fr5FGIXDfXr16ddGSL18+khg2TTx+/Ji3kB5q1Kgxbtw4Nn1BC1clmJVIsWLF2DX+f//738qVK93c3JYtW0bG2aJFC41GI2jcpEmT9evXc7Pki23atLl79y7f9vz8/DJmzJg7d24bGxuSOZooWbLkvXv3WO2bN29IcElqSeLnzJmTPn16apxGi4ODA03TUq9evWKNE9y3R48eHT16tGHDhiQrJNn3798vUqQIW9be3p5+kkqSxZLOklL37t2bDDUyMvL58+f+/v6nvkNrePfuHbVhCzL3Ff8SQhvq1q3blClT5s6dS6rt7Ozctm1bKqlevTo5NztY2sNFixbRMZKqjhw5csCAAeSpdJiUQ2rcvHlz2m3BagsWLMjvwevXr/Mq/4W+IGXPnp2+LdD0xYsX6UM1dOhQYSMgivh5Dfc1FvF8AokgjfKAPCsa1XZfMnFfjp49exYqVEhYKo1q1arR4oZmGbr+yufr16+pUqUiH6VpUsPKlSuXK1eOBI6MdsSIEVQraE8a17dvX242ODiYf5uW2LBhA0nn7t27ySBTp0795MmTT58+kefRMZJ0UoNDhw4VKFDA2tqaNJc2wZZavXr1hAkT2DSn0VL2bc+ePRUqVMicOTNZY9OmTVesWEFWzRYnB6Vjp+8YO3fu/Oeff65cudK6dWtSZzJ18sssWbI0/w7t8MuXL9lScdqb1uS+bLuGoKOePn362LFjBw0aRDnPkSNHu3btXF1dPTw8AgMDuQegq1atSuWUMdrhiRMnzpo1i1x/5syZdLyk8mT/rBntJ6k2mRZtl3yafD0iIuLjx49Zs2bVvQ1M3weWL1/OzY4aNYpywqsHCSN+XsN9jUU8n0AiSKM8IM+KRrXdl8zdlzyGM5suXbrUqVOHTZPk1axZkyZatWpF8kQTJF62trbkUoULF966datgNk57T7Rx48Zp0qTJly8f9wt9WnzSpEm0ZhI+2iUSQScnJ1YlhaNHjzo7O79+/Xrt2rWNGjUiN92/fz9X+/z5c9JQ9tv/O3fuZMiQgZWTC5YpU2bx4sVsluTSxsaG1kPltLdUlT17dlqQJooWLdqnTx/WTPq+devWzdPT8/jx47lz5z579iwrbNKkCUl2+fLlyWt9fX3btm2bLl06UuRhw4Zdvny5du3at7+TJ08e7k4zQUdHDmrU876k3X/99RdNvH37NiAgQFgdF/f06VPqVm9vb+oLEnFBLe0V7Wrx4sXpeMeMGUOfARJc+qpA7uXg4HD//n1Be+7rAX3BqFKlyoABA+LXgwQQP6/hvsYink8gEaRRHpBnRaPa7kvm7tu1a1d2G48ZGMHUp3379v3796eJkiVLDhkyJE67wlKlSjVv3vzixYukd4JZ0iNSyYYNG5LnDR06lNs0LZ4iRYoePXqQs5LenTlzhuSJ27r4TWKCzJJ2iQybVJIMm3+7lJg1axbtAJtes2ZN/fr1uao//vijQ4cObHr79u20kly5ck2YMOHGjRu3bt2i2n79+t3ScunSJfb3bdL3jdyXNkcrWbJkyXUe3KPJxJMnT2ijWbJk+fjxI+WKkvnbd2ia/8jss2fPqKXIM7sM+ipSunTpatWq1apVK1OmTKTv+fPnpy7gDpPjypUrVDtnzpzOnTvTmnXdl90Rnzx5Mnt6gT1Xzf7obdSoUborZNy7d69ixYoVKlQIDQ0V1sXFTZs2jT5CwlKgRfy8hvsai3g+gUSQRnlAnhWNartPVvc141PV5FskQMJSHfd1d3e3sbEha9m0aRN5qpOT059//km6Zmdnd/To0Tie+8bpPOTAnz137hxpFvkW2aqXlxdNX7t2LU67eNOmTblF/Pz8GjVqxKZ9fHyaNGnCVeny+++/Z86ced68eYbeVNCuXbtFixaxaRLflStXclVkEkyFyfOKFClSu3btFStWkPs2aNCgd+/e5LiOjo408csvv5CvkxDHSds3ctZ9+/aVKFGC5H7BggW0CfLyblpatmxJR3337l3WcsqUKVRVrly5unXrkrNWjg+VcPr76NGjlClT/reN79DuvXjxgpslQ6V+CQsLoy8AtC1PT09e23gMHjyYth6nfW0F7dKxY8eELbQUK1bM39+fTZPUsu4mr02TJk1QUFC8ptoHQrJmzTps2DDd51IYlBD6yAlLgRbx0RPuayxmHCfVDNIoD8izolFt98nqvuZF76/RBe5L1kvuu3379jZt2tAFuHv37q1bt/bw8CA1ZG9LkOi+tAhplrOzM3uPAeHt7R0Xf3HC19eXvG3kyJH//PNPvnz5zpw5w1UJoJYkZ3z508XFxYU9sHHr1q20adPy7wo3btyYRI0mpk+fzh6Bpf0hsStcuDCJ3erVq2lv79y507Fjx4kTJ7JFpOzbtm3bfv755woVKjD1pBQVL1785MmTGo2mU6dOo0aNYs1Ipkm4u3btSmlZuHBh586dyYm3bt1Ked68eTPlPE+ePFzvBAcH29racptgXLlyhb5+CB4CPn/+/Nq1a+fPn09KzT3RoQt9jaH9pwak73SY69bpOXVJiHPmzMk9KFygQIGbN2+y6TFjxtAR/ddUC2lZhgwZDIlvHNxXFLgvAAAABaFg99WLwH2JWrVqtW3blkzr+vXrJGfp06dv1aoV90ynwH1JjrkF+bPsvq+uZgnc9+jRo5UrV6bCqKioNGnS8B8SEFC/fv1ly5YJS+NDe1upUqVr165VrVp11qxZXDkJIqkwe3jj8OHD5LLMfWnW399/9OjRdMik+OnSpSM95V6IJn3f2PO+bJoOnCSyQ4cODRs25F7dQAJ94MAB9p4HWi2578qVK7t06eLm5ka7Snnmuy8JbooUKT5+/MhmiU+fPlEz9swJBykp+fSECRNoVeXLl6f+Klu27I4dO/htOHx8fMaPH0/HniNHjosXLwqr4+KaNWs2b948Nh0REZEyZUr+I8i6HD9+nA5KWMoD7isC3BcAAICCSP7u+7///Y/dsqXp8PBwa2trmuV+G86XVxcXF1qWewKBPxsdHU0qVrhw4UOHDkVGRpKPsrenCdz39u3btPJp06bFaV857OjoSJ49YsQIclPyUb6/Um25cuXILLl7jV++fLl58yZ72RaDfLFp06bkqb/++mu0FhJWMk4nJyc/Pz+uWZz2/b7kvrT1wYMHFyxYsH379iSR5NYkkdzjsNL3je++58+fp9TRgsOGDePeU8bup/Ldd9WqVbQtUu18+fIFBgby3ZfInz//jBkzWAntBh0UZVLwpAdthXunb82aNd3d3UmvixYtWqdOHd2/TovTPp7RuHFj7nloPtS5Dg4O7969W79+PQnr/PnzSfqFjeJz586d3bt3C0t5wH1FgPsCAABQEMnffUkoSd1Gjx7NZitVqkTuyN0NLVWqFPc+14CAgLx586ZMmZK9c1cwGxISQh5Gq0qRIkWmTJl8fX0Fi8dpn74lt2bvKIjTPqtADkdX/e3btx87doz/jltS3vHjx+fIkYPa29nZpUqVitZMxjZo0CCuDYPbVdpQlixZ+vfvr/ukRJ8+fTZt2pQrV67Zs2e/evWKPfsbp31FGi3C/rublH2jNmSBdevW3bx5844dO1q0aJE1a1ZqEBQURH6cOnVqsnBOAXv16rV37176MvDLL7/Q1v/888/Q0NCLFy+S+2bOnJlU/t+di4s7efIkuSMdJq2NjpQUOSIigqtlrFu3jrLasGHDvFrYMdJKyLBpl/gtKXWTJ0+mVTVr1ox/O5mDvlSw/zZHkm1jY0NbFPfaOO0XJO41GnqB+4oA9wUAAKAgZHXfBJ+qjnodEbzW5/OzcGGFXGg0midPnnC6KZiN0/4CXfzfNFy6dImvfQkSGxv7Wgv3RIEhqIGhlzOQfW7cuJGkkFwwZ86cJMGc7ZGJci8uSHDfaDeqVKnSpk2bGzdukDiSj/L/B7K/vz9tiPsPEWSle/bs8fPz494BHKf9izqyZN1/D0E7TwtevXpV5DDp28X+/fvPnDmj12j5zJ0798CBA8LS75A3c4dJOWGvfUgc9C0imxb62kC7J6wGWuC+5iXBcRJIAWmUB+RZ0ai2+2R1X0PXyNjIqJtT1hyrN2h35kZhJ64Iq0FCkFAm+BIxkAgose+/I6wD3zF0XjPgvsYink8gEaRRHpBnRaPa7vvB7vvq3M1jdQZ62lT1SFHF274OxBcAxaF7XvOB+xqLeD6BRJBGeUCeFY1qu+/HuC+70evj1JRKKPxr9d/j1ATiC4ASER894b7GIp5PIBGkUR6QZ0Wj2u6T233/u9GrtV6Kc10mQ3wBUC7ioyfc11jE8wkkgjTKA/KsaFTbfbK67zmXP7zT1aVce6WsxrkvAoFQeghPdR4ecF8jUe1fn5gXpFEekGdFo9ruk9V947Rvcri3eMeBIh33ZGu2J+u/zzzsSocnfQFQKnBfAAAACkJu9+UIP33tnMtU73R19+Vv65WyGvQXAIUC9wUAAKAgfpj7MrjbwJ7WVXamqQn9BUBxwH0BAAAoiB/svhzsNjDe7wuA4oD7AgAAUBCyum+CT1X/8P/rBgAwFriveUlwnARSQBrlAXlWNKrtPlndV/waCQBQIuLnNdzXWMTzCSSCNMoD8qxoVNt9cF8AgEmIn9dwX2MRzyeQCNIoD8izolFt98F9AQAmIX5ew32NRTyfQCJIozwgz4pGtd0H9wUAmIT4eQ33NRbxfAKJII3ygDwrGtV2n6zuq9qnqgFIxoiPnnBfY8E4aRaQRnlAnhWNartPVvcFACQ/4L4AAAAUBNwXAGAScF8AAAAKQqnuGxERcenSpWfPngkr4iOxGQAg0cB9AQAAKIik674PHz60trZOrWXBggVcuZubW5cuXYYNG7Z8+fIhQ4a0aNGCLqtRUVG8RY1oBgAwEbgvAAAABSGr+xr1VDW5b7Zs2fglX7586dat26pVq/iFBJUMGDCAm5XYDABgFuC+5sWocRIYAmmUB+RZ0ai2+2R1X/FrpABd9x0/fvyJEyf4JRxU7urqyqYlNgMAmAXx8xruayzi+QQSQRrlAXlWNKrtPsW47/Xr14cPH86rFzJ06NAHDx5IbCYsBQAkFvHzGu5rLOL5BBJBGuUBeVY0qu0+xbjv7NmzxZ2VatetWyexmbAUAJBYxM9ruK+xiOcTSARplAfkWdGotvsU4759+/blVepBo9EMHTpUYjNudtq0aa9fv+bVAwCMQ/y8hvsai3g+gUSQRnlAnhWNartPVvc16qlqct/s2bNzs/379+dV6ufXX3+V2IybJr2mDfEqAQDGIT56wn2NxahxEhgCaZQH5FnRqLb7ZHVfY/n8+TM37erq+ubNG16lEKodM2aMxGbcLNwXABOB+wIAAFAQSdp9+Zw7d27NmjXCUh5Uu3//fonNuFm4LwAmAvcFAACgIBTjvrGxsf369QsODhZWaKHyHj16xEluxgH3BcBE4L4AAAAUhGLcl/j69Wv//v0PHz4sKD906NDPP/8cHh7OZiU2Y8B9AdDL52fhwWt9ol5HCCt0gPsCAABQELK6r+lPVX/69MnV1bVLly5//PHHtm3b6GePHj1mz54dHR1tVLMVK1Zk02JtbR0SEsJfFgDACDtxZVeGemc7Tgw/fU1YxwPua15MHydBHNIoF8izolFt98nqvuLXSOnExMTcv3//2LFjoaGhwjoeIs2ioqLef0dQBQDgeHbgjKdNVY8Ulffla3Nv8Q69t4HFz2u4r7GI5xNIBGmUB+RZ0ai2+xTpvgAA2SD99UpVjU5eb4f6O+1q6d4GFj+v4b7GIp5PIBGkUR6QZ0Wj2u6D+wIAEoDTXwrPlNV3ZajHvw0sfl7DfY1FPJ9AIkijPCDPika13Se3+yIQiGQQ3va16eeujA2eHQzwEB09PeC+RiKeTyARpFEekGdFo9ruk9V9VftUNQCK5sHqXZ4pqjDrPVCwnW/OFn7FfsF9XwuBcdIsII3ygDwrGtV2n6zuC/7P3p2AN1GtfQCHFmih0FKgBdkpIFgXFISWHVll30S2sitXroqyXu8VXKl+XAUREUSMIAhdKGUH7ZW1WpbKKostxYpQKC2tlKVQun0vGRimJ8nJJJMMmcz/95yHZ3LmZJK+cyb5Z5imAJojBN+YCh22PTY0xve5fWHv4npfAADQLmRfALDobvD1bB3lESI90ctA9gUAAA1B9gUA8+5+v69/V9MTvQxkXwAA0BBkXwAwA3/XDQAA3JKq2Ve3V1UDuDFkX8fC66RDoIzqQJ01Tbe7T9Xsy3+PBAAt4h/XyL624tcTZEIZ1YE6a5pudx+yLwAowj+ukX1txa8nyIQyqgN11jTd7j5kXwBQhH9cI/vail9PkAllVAfqrGm63X3IvgCgCP+4Rva1Fb+eIBPKqA7UWdN0u/tUzb66vaoawI3xXz2RfW2F10mHQBnVgTprmm53n6rZFwDcD7IvgKspuHmL7QKA+5B9AUARZF81UT3R0OS05M8j2NkDAEbIvgCgSCSyr4qonvn5/0JD4zeaJ9HlQhF/AcxC9gUARZB91YTsiyan0TxJi/sH4i+AWapmX91eVQ3gxpB9HYv/OonsiyanCfNEiL973/osNTU1MzPz9u3b7HxSjD9dwcXpdvepmn3575EAoEX84xrZ11ZW62kadNDQmCbOEyH+/jR1bnJysjPiL3+6govT7e5D9gUARfjHNbKvrazW0zTooKExTTpPhPgb9+bHzoi//OkKLk63uw/ZFwAU4R/X/Ox75cqVgoIC8WZ+fn5WVpZkfQlLly7dunUr2+s06enpX331VWFhIbvCyazW0zTooKExjZknxvgb4oz4y5+u4OJ0u/uQfQFAEf5xzc++np6ex48fF2/u2bOnSpUqkvUPXL9+vWrVqlu2bGFX2CgxMTEqKio6OjoyMnL16tUrV640GAwbN25kxxUXnzx5kp4e2+t8VutpGnTQ3KZlZLxx7NgEYfn33yf+9derpmPkNNN54qT4y5+u4OJ0u/tUzb66vaoawI3xXz352dfLy+v06dPizYSEhBo1akjWPzB79uxSpUoNGDCgd+/e3bt379Sp07hx46QDehn1KYl6evbsKR02a9asoKCgZs2atWjRIjQ0tF27dn5+fsHBwdIxgqSkpLJly7K9zsd/nTTNNNQ++qjj1KmtqL37brutW1/My5tpOkZ+e+ut1sLWmGYph9k6XmyffNJ53bpBpv32tfDwjhER/U37ndSo5mvWPHi4Gzem04+8d2+Y6Uib2pIlPWie37lzd/nxxwP++c/mpmPkNLPzxBnxlz9dwcXpdvepmn0BwP0oyb7e3t5ysu/x48dp5IwZMz755JMFCxYsXrw4JCSkc+fO0jH0KHPmzAkPD3/ttddocLjRHCPpMEZ6erqvr++qVavYFcbsW65cObb3YTObaYKCKjdoUPn554MqV/ai5PTSS0+bjuG3hITR1ITl0aOfHDYsmFq9en4VK5YTlqmdPTvJ9I52jBdbmza1p08PEZalT8D0ppxWv77f2LFPmfZLmx2bFRtzX6r5mDFPijevXHmTKv/5591M72hTc2r2zXdO/AXQHGRfAFDEgdn3l19+qV27tmT9XdnZ2c2bN1+27MH5ifz8fIrIERHmv7j06NGjli6cMDVmzJjGjRtLrzkWUfb19PQ8deoUu+KhMptpKIeNH9+MFvLyZjZq5O/n52U6ht9CQ2uNHv0E00k9tDXTwZaareOljXkCZp+PkAgtNTnZ147Nio2570PJvjKfar4x+3JbyK4vVyL+gm4h+wKAIkqyL3PNw65duxo1aiRZX3zixImGDRvOnz9f2hkZGVmzZs07d+5IO0Xys+++ffs8PDy2b9/OrjCi7EtraVOtW7c2GAwuEhH42ZfagAGPli3rcevWjNTUf9Kyv783tUGDmpw7d+8KhI0bX2jXrna5cp61alU6depl6pk2LcTLy7NSpXKNG1dZsaKPuFnTLGtpm2bHt25dS8yCw4YFd+hQR1het25Q27a1aaFPn0bvv98+3+QJmD6flJRJ3bo18PYuU6+eX0zMvcsk6O7//ndr2rKPT9kzZ16RZl9a9c477aZMaVW9us9TTwX++OMw00fhbFbOffnZl36uVq1q0l2efDLghx+GcrZM7ezZSV261C9fvkzTplUHD25iNvtaeqrSCohPxmqjWbRp06aEhATEX9AnZF8AUMTu7FtUVPTYY4+dOXNG7ImIiHj22WclQ4p37tw5d+5caQ+9VVevXn3JkiXSTimZ2Zfe9evXr9+2bVt6Guw6I+Gah5s3by5evLhJkya1atVatGjRQ08JnOxLgSk+PoyC76RJzW/fnvn009UpS1HQpKhEC82b18jLm0n9AQEVXn756ZSUVyh7UWKju1NseuKJgJ49G+7bNzot7XVxs0yWtbRNS+OHDw+m+EsLly+/Ucro998n0k0KzcJVGWK2Y54Ac5MegpIipcMDB8a8+mqLGjV8hO3T3UuXLjVq1BOU5q9dmybNvrSqTBmP7t0bREcPbNnyEeFpyN+s1fvmG2tOa+fP7yK08PCO0uxLN6OiBhw/PoFSfqdOdTlbpr1GVaVV27cPjYsbRlnZNPtynqq0AkKnnEaz6Pvvv0f8Bd1SNfvq9qpqADdmd/Y1NXTo0PHjx7O9EvQO3atXr759+7IrJORk30OHDgUGBvbr149CbZ8+fbKzs9kRJa/3pXy8YsWKmjVrTpo0qeQox+O/TlrKvtWr+1AkothEeZTC2S+/jKLlJUt6CAO+/LI73dy/fwyFqpo1K9IYynDSLZi9GIDJspa2aWn8qlV9PT1LU/A1GHpTSgsMrPDFF92vXp1avnwZ4ZSn9Lwm55qHn3+++7iUJvfuDYuI6E/Lhw6NE+7eo0eQeBcm+7ZrVzs3dwYtz5nTkR7Rps1avW++seZ16/oOHPio0Hr3bijNvkKjH/Zf/wqtVKmccNPslinO0h2//rqnMMbsNQ+cpyqtgPxGs2j58uVr1qzZtm3bwYMHU1NTc3Jy2KkmD3+6govT7e5TNfvy3yMBQIv4x7X87BsXF+fl5bV//352xX2UUNu3b9+sWbPMzExm1bFjxyiqJhvFxsb6+fkJy4T6T548KR28efNmX1/fCRMmFBQUXL16lcJ0UFBQSkqKdEyxud91u3HjhtmU7FhW62kaZSiHdehQJzp64K+/3o1E1Fav7kcJ6eDBscJNSqh0MzJyQL4xSDVuXIVuUly7ePHeWV452ZezTbPjKfVS9l25sm+/fo1nz24bFvZ4376NaCMBARVu3757tlhm9hUet0GDysHB1YQWFXX3QaV3zzfJvuKqefO6mM2vcjZr6b751q55WLSoe506vvSBhLYvzb6mWxaybGLivaqazb5ynqpNjWYRfZb77rvvoqOjd+zYceLECdNjSib+dAUXp9vdh+wLAIrwj2s52ZcC5ezZsyn4WrqSoaioKCYmplGjRj179rx+/Tq7uri4ZcuWlImfNof6aa0wLDExcdCgQRR8DQaDeN/CwsIxY8bUqFGDArTYWWwu+6rDaj1No4z0el+h7do1ktLS8uX3Lt795ptedDM+/t43cFG0osjl41N25sxQoYeCHWVTZrNMluVv03Q8tXbtavfv35hC3uHD4ykEUwrs06fRyy/f+xoKJvtKn4D0pnDWc+nS56VbZu6eLzv72rRZS/fN52bfHTtGlLp/Knfu3Of42ffIkfE0mD63CP0LF3Yzzb5ynqpNLdJ4zcPy5cuFKx8OHjyYlpbGTjV5+NMVXJxudx+yLwAowj+urWbfYcOGUcRs06aNpTO+ly9fbt68eUBAwOLFi81+IYN8YWFho0aNunDhAtNPmx08ePDUqVOlnSdPnvTw8JD22CT3YubZr9fnZdn8X8lW62kaZUyz740b0xs0qNy2be3jxyccOjQuJKRmw4b+1Hnt2jSKUH/8MenSpcm1alWaOPEZYfzIkY9TbM3MvHv5r9iYLGtpm5bG5xu/BFc4YUnL9IgeHqXpZlzcvd/xkkY35glIb966NaNZs8DGjats2/YiPRw9tPDtaXZkX1s3a+m++dzsGxMziJbXrRtEnxaoXJ6epbOzp3C2XLeuLw3buzfMYOhNH0hMs6+cp2pTo1kUGRlJ2XflypXr1q3bs2dPamoqO9Xk4U9XcHG63X3IvgCgCP+4tpp9Dxw4YPV7xOh92u7rEWXKz89ngnVGRsbSpUuV/E3jjN2HYqt0TRgxOzP+KLvOMqv1NI0yptmXGiWk4OBqpYyeeirw8OHx+caIRhmxdOlSXl6eXbvWP3/+NWFwfHxYvXq+Zcp4iBee5pvLsma3yRl/9Ojdk5pTptx7zs8++0hg4L0LHqg98UTAq6+2EJaZJ8DcTEl5pUOHOrQpeub+/t6xsYOZu1OjhD1u3L3sK101f36XChXKmn0Uq5vl3Nds9l248G72pajauXM9uunr6/Xhhx1oC02aVOVsedWqvpSDaTxtc9q0EDH7Ssdbfao2NZpFUVFR0ssekpOT2akmD3+6govT7e5TNfvq9qpqADfGf/W0mn3d2+WdidFl20SWDtnSaFDSZxFyTgPzXyfNZl9Ou3jx9fT0yUxnZuabWVklTvHmGy+E+OOPSWIw5TSz21TemCdg+nzoOVv9W3FWm5LNmt6X09LSXqcQTAvZ2VNMq820mzenM18YZ7bJf6r85sDsy5+u4OJ0u/tUzb4A4H6Qffko/q71bkd12PBIr7U+HW09DcywNfuioZk2B2ZfAC1C9gUARZB9rRLjL7V1FTvFVu0m/zQwA9kXTXlD9gWdQ/YFAEWsZl80Sy3Gt/PF7Qmm/Uxj6mkaZdDQbGqRyL6gb8i+AKAIE84YkTjva/ylt3W+z0V5hAhZNrpc2/XVnz/5oUE472u1gMxN0yiDhmZTQ/YFnVM1++r2qmoAN2Y1uuk8+z4Ivh6hUWXb7ur6GnO9r9UCMjdNowwamk3NgdkXb+uaptvdp2r25b/EA4AW8Y9rnWdfCr5rve5e6Ss90cuwWsDw8HCDwRAfHy/cNI0yaGg2NQdmX/7sBRen292H7AsAivCPaz1nX+H7fXd1e53/xQ42FTDS5GpgNDQ7GrIvFOt49yH7AoAi/OM6Uq/ZV/7fdbOvgJRXKLVQdqEEEwWmIiPZHigJ2Rd0u/uQfQFAEf5xbSm6gci+AiYkJGzatGnNmjUrwJzPZ7zDdoEJmj80i2gu4W8a65Nud5+q2Ve3V1UDuDH+q6el6AYi+wp45MiRHTt2rF+/nuLLd2Bi4cx32S4oiWYOzR+aRTSX0tLSpLNLPryta5pud5+q2RcA3I990Q1E9hUwOTn54MGDFFw2bdoUDWA7mjk0f2gW0VzKzMyUzi4A94bsCwCK2BfdQGRfAdPS0iiyHDlyJCEhYQeA7Wjm0PyhWURzKSfH+oXpAG4D2RcAFLEvuoHIvgJSWMnMzKTUkpqamgxgO5o5NH9oFtFcun37tnR2Abg3ZF8AUMS+6AYiFBAAQE2qZl/dXlUN4MYQ3RRCAZ0BbzfqQJ01Tbe7T9Xsy3+JBwAt4h/XiG5WoYDOwK8qOArqrGm63X3IvgCgCP+4RnSzCgV0Bn5VwVFQZ03T7e5D9gUARfjHNaKbVSigM/CrCo6COmuabncfsi8AKMI/rhHdrEIBnYFfVXAU1FnTdLv7VM2+ur2qGsCN8V89Ed2sQgGdAW836kCdNU23u0/V7AsA7kfT0W3v3r1btmxhe9Wl6QICAGgOsi8AKOK86OaM79u/evVqRESEsLxp06aRI0eOHTs2Li6u5ChVOa+AAABgCtkXABRxUnS7fPlyqVKlzp07x64oKTExMSoqKjo6OjIycvXq1StXrjQYDBs3bmTH3ZeUlOTj4yMsf/vttwsXLly2bNm8efOEnvT09AdDLbP1QfmcVEAAADAL2RcAFHFSdLty5Qpl38zMTHZFSbNmzQoKCmrWrFmLFi1CQ0PbtWvn5+cXHBwsHXP9+vXCwkJhOSUlhQYIy3fu3BkxYsSQIUOys7PpJo1p0KBBWFjYzZs3xfuaJedB5XNSAQEAwCxVs69ur6oGcGNOim5C9s3KymJXcKWnp/v6+q5atUraSSG1lGVdunQRR+7bty8gIKBly5ZCGhatX78+Pj5e2iNl9kHlc1IBdQ5vN+pAnTVNt7tP1ezLf4kHAC3iH9d2R7fMzEwKpkwGtWrMmDGNGzcuKCiQdqakpCQlJSUb7dixo1KlSsIyof7U1FTp4D/++KNp06b9+/cXe65du1arVq2JEydKRpVg9kHlc1IBdY5fVXAU1FnTdLv7kH0BQBH+cW13dMvIyKDs+/fffzP9ly5dYnpE+/bt8/Dw2L59O7vC+CturVq1unz58tmzZ4VrHvbv3z906FB2nBE9KMVl8eaUKVMCAwMtnYHmPKhMTiqgzvGrCo6COmuabncfsi8AKMI/ru2ObsLvuuXk5Eg7z507V61aNYqt0k5BcnJy/fr127ZtW1RUxK4rLo6JiQkKCqIFMfveuHHD39//1KlT7NCS9u7d6+npKX41BIP/oDI5qYA6x68qOArqrGm63X3IvgCgCP+4tju6paenU/a9du2a2JOWlta8efMhQ4aYBs1Dhw4FBgb269evSZMmffr0Mb1SokOHDnPnzi2WZF8yc+bM4cOHlxgnkZeX9/bbb5crV27BggXsOiOrDyqTkwqoc/yqgqOgzpqm292navbV7VXVAG6M/+ppd3S7dOkSZd/r16/TMoXd2NhYCpoUfHNzc5mRmzdv9vX1nTBhQkFBwdWrV3v16hUUFCS9aGHr1q00ICMjo7hk9j1//nyFChXMnkWmzqeeeorW0uOy64ysPqh8TiqgzuHtRh2os6bpdvepmn0BwP04KbqlpaVR9t24ceP777/ftGnT2rVrf/XVV8yYxMTEQYMGUQY1GAxiZ2Fh4ZgxY2rUqHHs2LFi42US/v7+K1asENZKsy/5+OOP69atKyTsv//+m4ZNmzbt0Ucf9fb2fuONN8xeWyznQW3ipAICAIBZyL4AoIjC6JaXlXP26/W5F9nv8aXs6+XlVa9evXHjxkVFRd25c4cZQMLCwkaNGnXhwgWmv6CgYPDgwVOnTi02plLpX504c+ZMpUqVxJv5+fnR0dHCckZGRoMGDSZOnLhhwwYhDZsl50FtorCAAABgE2RfAFDE7uiWGX90X9i7sVW7Zew+xKwSmH7Jg3wUas1+6dhff/316quvsr0OYulB+ewuIAAA2AHZFwAUsTW65WXlJH0WsbXJkCiPkLXe7SwFX/2wtYAAAKCEqtlXt1dVA7gx+dFNONEbU7HT5qBB0WVbx1TsiOBbbEsB2XVgGd5u1IE6a5pud5+q2Zf/Eg8AWsQ/rmntBzP/s2zgpLV1em2o0XPjI72ohxqCr8hqAcPDww0GA+ePKoMpflXBUVBnTdPt7kP2BQBF+Mc1rV1Trs3dvFsmVEi9aLa2zz//PDo6+vDhw2xxwbJI7rQER0GdNU23uw/ZFwAU4R/XtHbu+MmrGvaJ9AgRw9y+kbM3BPbAeV9GeHj4u++++05wt3fvox4KvitXrvzf//6XlJTE3gEs409LcBTUWdN0u/uQfQFAEf5xHXn/ctW4Ldt++8+S2IAeQvzd0eEfiL8Mg8FAhfqwyt0TvQLqiY6OpuB7+PBh029VAw7+tARHQZ01Tbe7T9Xsq9urqgHcGP/VU8y+4q9qZf58dEf7f0R6hkaWDonxwVW/D8THx1OV1oz91//uox5KvUlJSRR8c3Jy2DuAZXi7UQfqrGm63X2qZl8AcD+2Zl9BQe7t3/6zZGenSZzv9wUAAHA4ZF8AUMS+7Cuy9HfdAAAAnAHZFwAUUZh9AQAA1ITsCwCKIPsCAICGqJp9dXtVNYAbQ/Z1LLxOOgTKqA7UWdN0u/tUzb7890gA0CL+cY3sayt+PUEmlFEdqLOm6Xb3IfsCgCL84xrZ11b8eoJMKKM6UGdN0+3uQ/YFAEX4xzWyr6349QSZUEZ1oM6aptvdh+wLAIrwj2tkX1vx6wkyoYzqQJ01Tbe7T9Xsq9urqgHcGP/VE9nXVniddAiUUR2os6bpdvepmn3BVE5OTmJi4sWLF9kVJckcBqA+ZF8AANAQrWbfP/74w8PDo5zRp59+yq5+eNLT069fv872mmMwGIYPHz558uQvvvjitdde6927N+WDvLw8+4YVFhZ+//33WVlZTL997ty5Y+umPv744ytXrrC9zvHnn3/SD8v2mnPu3LkPP/yQ7bVRUVHR0aNHc3Nz2RUqovL+/fffbO9969at279/P9trAX2CotnC9iqA7AsAABqi4exbo0YN8eZ//vOf6eZYPVE6b968DRs2sL0KDBky5O2332Z7S7p169bIkSOXLFnC9FPPP/7xD/GmzGGiunXr7tixg+21y5YtW3x8fMaMGfPdd98dOXIkOzub0valS5d69ux58+ZNYUxsbOzzzz8v3qVq1arnz58XbwrojvHx8UynTJS/KUyfPXv2woULzCoKvp06dWI6zTp8+HC9evXY3vuowi+//PKrr746ceLEUaNG9e3bt1WrVqmpqcww+tlLlSp14sQJpl/K7p+UYmhOTg5N1NOnT9MHJ3b1fQEBAaZ1EHXr1m358uVsb0n0w86aNevxxx+vWLEi7azRo0dfu3aNHWQXZF8AANAQN8m+Y8eOHW5Uv359emsXlsm5c+ckdzKjbdu2M2fOFJYPGImrmJsyPfbYY8J7/P/93/8tXrzYYDAsXLiQ0nDv3r2LioqEMW+99dbu3btL3O0+6g8PDxeWZQ4TUeyeP38+02mKwuvRo0ejo6M/+eSTzZs3Wzq/e/ny5ZUrV1INKfZ17tz5/fff/9e//kVJkZ6VMIDiWpkyZTIyMoSb1apVi4iISExMLCgoEDfy448/1qlTR7wpoBBJT0Da89lnn40bN46iJ+2O4ODgRx55pHz58qXumzFjhjjy0KFD9O+HH374yiuvPLi/ZfRYQUFBbO99+fn59Knp008/Xbp0aWRk5FNPPdW0adPMzExmmJB9+Z+jZP6k9HD0eaZ79+7PPvtsgwYN/Pz8SpcuLf6kVIdi42lm2o8ff/wxRdUpU6bQ5xzKqd7e3j169BgwYECvXr26du0q3SZp1KiRdK4eO3ZMsvIe+ihIhf31119p+eDBg3T4vP766+wguyD7AgCAhqiafR14VTWTfUVjxoxp3Lgx2ytP69at6e6WbgrE/GrWnTt3ypYtm52dTcsU5lq1avXMM8+0adOmf//+b775Jq0tNuaSN954g72nBCWSlJQUmcOkPf/9738p/oo3KSYKz0RAwZRSFBWHwpaXlxclQopftEBPeM2aNeIwxogRI1q2bPnzzz9fu3aNPlfQQs+ePcW1ISEh9HPRT1q9enXaDm2TNkjLR44cEQbs2bPHdHfMnj2bIuatW7fEHgqylAgpF9LnBHqeO3bsoA8z/v7+NJKy440bN4RhFFUpEwcEBAQGBlJE7tOnz9NPP/3BBx+I2zGVnJxM82TXrl1r166lrVF8Z0fcN23aNBp59uxZdkVx8fXr1ymYSotpSuZPGhYWRp8fKLsvW7Zs48aN8fHxAwcOrF27NoXdpKQk8aKR0NDQQYMGvfTSS1ReKsucOXMqVapE9/rqq6/oA9W8efOEYTQbKZFTpqSnR4+1fPnynJwcKhftAtPTwPSp7IsvvhBvTp06lWamZL39kH0dy4Gvk3qGMqoDddY03e4+VbMv/z3SJjKzL727i+/3w4cP79ixo7C8YcOGdu3a0ULfvn2F60FnzJhBuY0SxqOPPrpq1SrmZrHxGtPu3bt7e3tTBFy/fr2wHbr722+/TVv28fGhp3T69GmKZcIqSz766CMmszJoLQUjmcOkPb/++mvVqlXpaXz88ccUCsuVKxcbGyuu7dGjBz3PRYsWUTAVT81STqKQRLH1t99+E0eKKJBRvrx9+7Zwk37qw4cPFxsjPi1TqX19fekRKZzFxcUJ10LQvxMmTBAvSDh48CAFu/vbu4eyYKNGjSxlVspz48ePpy2YPc9K8ZeeKgXK6dOnGwwGCspUc3aQRGpqapkyZdq3b097atKkSXQXdoQRBcdatWr9/vvv7AqjrKwsCpf8633t+ElpLX2QGDp0KAXWH374gdIzDaZl6ZgLFy7QBI6JiaFZZ3pJCY1v2LAhfQygWUcFodlOAZf2F6VM2jVnzpxhxouX+ebl5dHnFrNXztiBf1wj+9qKX0+QCWVUB+qsabrdfW6efUeMGCGc3BLiCxECweDBgydOnEgLTzzxxGuvvVZs3OCTTz7Zq1cvCjGXL19mblJoaNasWdeuXSlfvv766+JD091Lly49evToLVu2UDb6+eefKVKIj272JPFLL73EdpVE96KHkDlM2kPZwsPDo3LlymPHjt26dat4Ya5V9GPOnTuX7S0u7ty5c3R0tLAs/VkoOdHHgCVLluzYscPf35/yqLiq2HiCmXKksJycnEzPR7pWIIQzs7+8RZt99tlnxXO9UlRh4WnUrFkzKSlJ7OdcCEv7zuwTENHHAIqAlCBXr15NzzwhIcE041IKp5nD//0wO37Sf//737179xY+h9BHHUr8r7766pQpU8QBhw4deuSRR+iTzLBhw+gJmGZf4WPJrFmzhJlAz5B2h/BLb1OnTn3hhReY8QIqHVW4RYsWaWlp7Lri4vfee8/SZTCW8I9rZF9b8esJMqGM6kCdNU23u0/D2ZdiAdtrkn3XrFnj6elJ7+UrVqygnBoYGPjll19SripfvvxPP/1ULMm+xSYXOUhv7tu3j8IHpZBffvmF4iAtC9dx0t2lv++1bdu2bt26Ccvr16/v0aOHuEokZG6+CRMmyBwmLtNPQYnw66+/No1uVj366KN0R/EmxW7hKgj6t06dOlRqWqb4JVyNyqABu3fvpqi9aNEiqklUVFSTJk0mT54srM3JyaHPBsLvVDFnNFu1aiX9L3hRUFDQDz/8wPYa0U6sXr06VZi2+corr0yaNIni3d69e5s2bWr2uRUb43KZMmXY3vvoKfXt25f2Jn3OGTJkCOXF5557zs/P77vvvpMO+/PPP81uZNy4ceJvp9n6kwrXb5w8eVK4SZmeZsvvv/9+6dIlcQxF4dmzZxcbvzyEnuTOnTvFVVKPPfaY+DuOFGqFiU251tvbmxJ5iaHGc/ZUQ9pBwhU4puhznbDH5eMf18i+tuLXE2RCGdWBOmuabnefVrNvsTHWsF0m2ZdSL2Xf1atX9+/fn96AR40a1a9fv8jIyICAAOF8m8zsS3eh8EGx7PH7YmJiikvenWzcuLFPnz5Tpkw5f/68cHWsuEoUHh7Ov3KU1k6fPl3mMGF53bp1lN7Mnly0KjY2tmzZsuKpPqpqxYoVxe80+OCDD4KDg69fv055yN/f/9SpUw/uafTyyy/PmDHj4MGDlJibN29OCZJqJf0KNorCwhcgULJcuHCh2P/222+bflcDBTIPDw9O9rp161ZcXJyvry/9yJs2baLYTXGTHp16pOdl6QkkJCTMmzfvv//9L+04syc46Wds2LBhy5Ytaa9Jz2pT8KWtSaPh2bNnvby8xJuCQ4cOUXiV7iObftJz587RzOSfm6esT7OIYj3FYvopmEtcBBSIa9WqJZ56p59IvHyFpseePXseDDWiAErh3lLwLUb2dQH8eoJMKKM6UGdN0+3uUzX7qnBVNZN9Sfv27QcMGEAx5dixYxSCK1Wq1LdvX/FKRyb7UjgW7yi9KZz3NQ0fTPb96aefWrVqRZ2Uvby9vRMTEyVj76FNLV26lO2VoLVbtmyROUxYpsBt9qIFvoyMDAqslHSlpzmXLFlCcVAyqrhZs2aLFi2ihZkzZw4fPly6qtgYu1u0aMF0StFDTJw4kcJlvXr1tm7dKvbv2rXLx8dH+qUQgqeffpqiEtMpdeHCBdqJ4lXIxcaPAbR3xOhPOb5BgwY9e/b86KOP3nvvvXLlylWoUGHkyJFMpLtx4wb9XKZXMtAwuov0S5pp+6VLl5ZehkGZNTQ0lDk3b+tPSinzyy+/ZDoZ69evf+uttyju16xZkyI+u7q4mH5MyvfCck5OTpkyZfjfskxPRnpZhSlk34dOhddJPUAZ1YE6a5pud5+q2VcFptn3//7v/4RTtrScmZnp4eFBN8X/I5aG17CwMLqvGKGkN/Pz8ymTPfrooz/++COlrqNHjwrfnsZk35MnT9LGKW8VG7/NKiAggHL2m2++SamIIvicOXOKjRdlvvzyy2a/T6DYeIpx9OjRxbKHCT777DP6ASknUS6k0EbP+a+//qKUQ5lJcqd7Zs+eTUHwmWee8fLy6tGjh/RraykN+/v7b9iwYePGjR9//PGdO3dyc3PpB1+8eHGx8ffGKBTSlh9sq7iYkpanp+fVq1elnVJnzpyhjwGUp4ODg6X5jz4eCN+3xUhISKBo+8ILL9AHCUsxrk6dOpSlhNhKz5kSJ33kENdu3769Vq1awqlcysEUB0+fPj19+nRfX9/333+fOeUZHR1NHzOEwdeuXfvhhx9CQkKktRVQmP7ggw+E/2qgvfz888/TZGBOtNv6k9LzpF1An6/oJ718+TK7+j56Vt27d+/Vqxe7oriYpjH9UFT8b775hgLrJ598Iq2DWadOnZL+BqQpZF8AAHBvrpV987Jyzn69Pvci+wWr8plm399++43y6LRp04SbFE0CAwPFaPLkk4vHM54AAGerSURBVE+KvzFGqatevXoUlShJmN6k5NexY0faVOnSpSkgUjpk7l5s/N0jytbi5aoUK9esWUPv+qtXr965c6f4xQUUvyiumQZTCtYDBw4Uv19W5jDBl19+2aJFCwouZcuWpefs5+dHdaDYLR0jWLly5cKFC7du3WqaLLOzs+mjQrHxN7fatm1bvnz5ihUrtmvXTvyveXpo0/8ub9iwoVANS37++WcK3PJ/gyolJYU+LdSsWbNJkybsOqNNmzZVrly5WrVqlMtpd9BTlf5BCvopKKq2bt16+PDhVBDx23ApgPbs2ZN5/suWLaO8SFurW7cuhXja5ltvvWV6jnbPnj20KSqI8G1uI0aMYC7qFdj6k1ISHTduHCX15557jl1nnACzZs2iR6SnbfaX/+gDjPA1z5TF6cnTE+Pn2mLjR0GaG2yvBLIvAAC4N1fJvufX7tzV9bXYqt0ydt/94wUPS1FR0V9//SVGH+ZmsfG/lc1+95YoMTFR+n2ullCapNRC4eydd975/vvv6d/Ro0d/9NFHzHcmyBzmJGlpaVb/OEix8avQ7PuTZlZxQmRubi7lUcriZr8JjpLijh07lixZQp9D5NSKxiQlJdHPa3oJhCgvL+/YsWOHDx82/YPSyln6E2tz586VXj7BSE9PFycbBWXpdSC2WrRoUQ0j+vBm+pft+JB9AQBAQx5y9r19OfvA+A9jKnaMLN0qxqfjww2+6qNUfebMmZ07d5r9ZSyRzGEAdqNAf+0+dp01yL4AAKAhqmZf6VXV59fu3P7E8EiPUHpr3BI0YENAd70FXwD3gOzrWLr97RPHQhnVgTprmm53n6rZl94FH5zoLdVKaHHNRyH4AmgXsq9j8esJMqGM6kCdNU23u0/t7Lu2Qgcx9aKhoblHYw91iUhkXxvx6wkyoYzqQJ01Tbe7T+3sm5eVkzR/zaa6/WIqdYrybE09a73bxVbugvO+ABrFf/VE9rUVv54gE8qoDtRZ03S7+9TOvuJyZvzRnwe/Fe3dPsanY3TZNoi/ABrFf/VE9rUVv54gE8qoDtRZ03S7+1TNvqZXVYungSNLt1rr3R7xF0Bz+K+eyL62Mn2dBDugjOpAnTVNt7tP1ezLkRl/9Jehbz/07/cFAFsh+wIAgIa4SvYVKP+7bgCgMmRfAADQENfKvgCgOci+AACgIci+AKAIsi8AAGiIqtlXt1dVA7gxZF/HwuukQ6CM6kCdNU23u0/V7Mt/jwQALeIf18i+tuLXE2RCGdWBOmuabncfsi8AKMI/rpF9bcWvJ8iEMqoDddY03e4+ZF8AUIR/XCP72opfT5AJZVQH6qxput19yL4AoAj/uEb2tRW/niATyqgO1FnTdLv7VM2+ur2qGsCN8V89kX1thddJh0AZ1YE6a5pud5+q2dcmf/zxh4eHRzmjTz/9VOhMSUnJysqSDjtz5sxff/0l7QEANSH7AgCAhrh09q1RowbT2bVr1y+++ELaM3ny5PDwcGlPdnZ2fHy8tAcAnAfZFwAANERj2bdq1aopKSnSnjfffHP+/PnSnh9//LFOnTrSHnLixImjR48ynQCgHLIvAABoiJayb1pamr+/Py38+eefsbGxCQkJBw4cGDp06MCBA8eNG/fKK68Iw/bs2dO4cWPpHcns2bObNm1669Ytph8AFEL2BQAADVE1+9p0VbVp9t21a1eLFi1o4ddff+3Tp09Xo6CgoJYtW77zzjs7d+4Uhh08eLB27drSOxJKvY0aNfrggw+YfgBQCNnXsWx6nQRLUEZ1oM6aptvdp2r25b9HMkyz79q1a3v27CntKTae0P3444+lPcnJyZUrV5b2COit19fX9++//5Z2vvfee8wvzwGATfjHNbKvrfj1BJlQRnWgzpqm293n0tn3kUcekfYsW7Zs7Nix0h4yZ84cir/SnpycnNKlS1+7dk1Ylq5q1aoV86tyFK/pgaQ9AGAT/nGN7Gsrfj1BJpRRHaizpul297lu9iW5ubnSm998883rr7/esWPHK1euXL16dd26dXPnzn3xxRcnT54sHUaaNGkifNXD1KlTFy5cKPa//fbbnTp1ejAO2RdAMf5xjexrK349QSaUUR2os6bpdve5dPZlbN26tXnz5s8999ytW7fq168/adKk+fPnU5YtVarU+PHj09PTxZEvvfTSxIkTi4qK6tWrR/cS+3ft2uXj41NQUCD2IPsCKMQ/rpF9bcWvJ8iEMqoDddY03e4+VbOvwquqDx8+TDF3+fLlu3fvrl27dn5+fmFh4SuvvDJ27NjJkydTir1z544w8syZM97e3i1btgwODpYm3by8vF9//VW8WYzsC6AY/9UT2ddWCl8nQYAyqgN11jTd7j5Vs69C6enplH1PnTpFEbZ///4BAQHVq1dv0KABJV1aS/3SwT///PPs2bOt/h4bsi+AWbkXM89+vT4vq8QV82Yh+wIAgIZoKfuSn376KT8/X1i+ceOG3X/NeNGiRTWMPDw8UlNT2dUAUFycsfvQOv8u+8LezYzn/V0YZF8AANAQjWVfR8nLy7t2H7sOAO5L/XZzlGfrKI+QrU2HJH0WYfY0MLIvAABoiE6zLwDIdDf+eoREl2uzpdHgmEqdTE8DI/sCAICGqJp9dXtVNYCmCfGXUiy1TbX7bHikp/Q0MLKvY+F10iFQRnWgzpqm292navYV3jvR0NC03qLLtaF/11XucnF7QiSyr0Px6wkyoYzqQJ01Tbe7T+3sy3YBgMtL27A7ukzre6nXq906/y6bgwbivK+T8OsJMqGM6kCdNU23uw/ZFwB4xOAbW7X72godEobNwvW+TsWvJ8iEMqoDddY03e4+ZF8AsIiCb5RnaGTpEOmJXgb/uEb2tRW/niATyqgO1FnTdLv7VM2+ur2qGkCL7n6/r19n0xO9DP6rJ7KvrfA66RAoozpQZ03T7e5TNfsCgFbg77oBAIBbQvYFAEWQfQEAQEOQfQFAEWRfAADQEGRfAFAE2RcAADRE1eyr26uqAdwYsq9j4XXSIVBGdaDOmqbb3adq9uW/RwKAFvGPa2RfW/HrCTKhjOpAnTVNt7sP2RcAFOEf18i+tuLXE2RCGdWBOmuabncfsi8AKMI/rpF9bcWvJ8ik8zIW3LzFdjmHzuusdbrdfci+AKAI/7hG9rWV1XqioclpyZ9HsLPHCSK50xVcnG53n6rZV7dXVQO4Mf6rZySyr434r5NUz/z8f6Gh8RvNk+gyISrEX/50BRen292navYFAPeD7KsmZF80OY3mSdrWf6gTfwE0B9kXABRB9lUTsi+anCbMk/NbJkZ5hux967PU1NTMzMzbt2+z8wlAl5B9AUARZF81IfuiyWniPDm/5WWKvz9NnZucnIz4CyBA9gUARZB91YTsiyanSefJ+c1342/cmx8j/gIIVM2+ur2qGsCNKcm+V65cKSgoEG/m5+dnZWVJ1pewdOnSrVu3sr1Ok56e/tVXXxUWFrIrnIz/OonsiyanMfPEefGXP13Bxel296maffnvkQCgRfzjmp99PT09jx8/Lt7cs2dPlSpVJOsfuH79etWqVbds2cKusFFiYmJUVFR0dHRkZOTq1atXrlxpMBg2btzIjisuPnnyJD09ttf5rNbTNOiguU3LyHjj2LEJwvLvv0/8669XTcfIaabzxEnxlz9dwcXpdvch+wKAIvzjmp99vby8Tp8+Ld5MSEioUaOGZP0Ds2fPLlWq1IABA3r37t29e/dOnTqNGzdOOqCXUZ+SqKdnz57SYbNmzQoKCmrWrFmLFi1CQ0PbtWvn5+cXHBwsHSNISkoqW7Ys2+t8VutpGnQ++qjj1KmtqL37brutW1/My5tpOkZ+e+ut1sLWmGYph9k6XmyffNJ53bpBpv32tfDwjhER/U37ndSo5mvWPHi4Gzem04+8d2+Y6Uib2pIlPWie37lzd/nxxwP++c/mpmPkNLPzxBnxlz9dwcXpdvch+wKAIvzjmp99vb295WTf48eP08gZM2Z88sknCxYsWLx4cUhISOfOnaVj6FHmzJkTHh7+2muv0eBwozlG0mGM9PR0X1/fVatWsSuM2bdcuXJsr/NZradppgkKqtygQeXnnw+qXNmLktNLLz1tOobfEhJGUxOWR49+ctiwYGr16vlVrFhOWKZ29uwk0zvaMV5sbdrUnj49RFiWPgHTm3Ja/fp+Y8c+ZdovbXZsVmzMfanmY8Y8Kd68cuVNqvznn3czvaNNzanZN98J8Zc/XcHF6Xb3IfsCgCL849qm7PvLL7/Url1bsv6u7Ozs5s2bL1v24Lq0/Px8isgREea/uPTo0aOWLpwwNWbMmMaNG0uvORZR9vX09Dx16hS7wsms1tM00FAOGz++GS3k5c1s1Mjfz8/LdAy/hYbWGj36CaaTemhrpoMtNVvHSxvzBMw+HyERWmpysq8dmxUbc9+Hkn1lPtV8Y/bltpBdX650SPzlT1dwcbrdfapmX91eVQ3gxvivnvzsy1zzsGvXrkaNGknWF584caJhw4bz58+XdkZGRtasWfPOnTvSTpH87Ltv3z4PD4/t27ezK4wo+9Ja2lTr1q0NBoPCiCAf/3WSn32pDRjwaNmyHrduzUhN/Sct+/t7Uxs0qMm5c/euQNi48YV27WqXK+dZq1alU6depp5p00K8vDwrVSrXuHGVFSv6iJs1zbKWtml2fOvWtcQsOGxYcIcOdYTldesGtW1bmxb69Gn0/vvt802egOnzSUmZ1K1bA2/vMvXq+cXE3LtMgu7+73+3pi37+JQ9c+YVafalVe+8027KlFbVq/s89VTgjz8OM30Uzmbl3JeffennatWqJt3lyScDfvhhKGfL1M6endSlS/3y5cs0bVp18OAmZrOvpacqrYD4ZKw2mkWbNm1KSEhQHn/50xVcnG53n6rZFwDcj93Zt6io6LHHHjtz5ozYExER8eyzz0qGFO/cuXPu3LnSHnqrrl69+pIlS6SdUjKzL73r169fv23btvQ02HVGwjUPN2/eXLx4cZMmTWrVqrVo0SIlKcEhONmXAlN8fBgF30mTmt++PfPpp6tTlqKgSVGJFpo3r5GXN5P6AwIqvPzy0ykpr1D2osRGd6fY9MQTAT17Nty3b3Ra2uviZpksa2mblsYPHx5M8ZcWLl9+o5TR779PpJsUmoWrMsRsxzwB5iY9BCVFSocHDox59dUWNWr4CNunu5cuXWrUqCcozV+7Nk2afWlVmTIe3bs3iI4e2LLlI8LTkL9Zq/fNN9ac1s6f30Vo4eEdpdmXbkZFDTh+fAKl/E6d6nK2THuNqkqrtm8fGhc3jLKyafblPFVpBYROOY1m0ffff++o+AugOci+AKCI3dnX1NChQ8ePH8/2StA7dK9evfr27cuukJCTfQ8dOhQYGNivXz8KtX369MnOzmZHlLzel/LxihUratasOWnSpJKj1GYp+1av7kORiGIT5VEKZ7/8MoqWlyzpIQz48svudHP//jEUqmrWrEhjKMNJt2D2YgAmy1rapqXxq1b19fQsTcHXYOhNKS0wsMIXX3S/enVq+fJlhFOe0vOanGsefv757uNSmty7Nywioj8tHzo0Trh7jx5B4l2Y7NuuXe3c3Bm0PGdOR3pEmzZr9b75xprXres7cOCjQuvdu6E0+wqNfth//Su0UqVywk2zW6Y4S3f8+uuewhiz1zxwnqq0AvIbzaLly5evWbNm27ZtBw8eTE1NzcnJYacagPtC9gUARRyVfePi4ry8vPbv38+uuI8Savv27Zs1a5aZmcmsOnbsGEXVZKPY2Fg/Pz9hmVD/yZMnpYM3b97s6+s7YcKEgoKCq1evUpgOCgpKSUmRjik297tuN27cMJuS1WQp+3boUCc6euCvv96NRNRWr+5HCengwbHCTUqodDMyckC+MUg1blyFblJcu3jx3lleOdmXs02z4yn1UvZdubJvv36NZ89uGxb2eN++jWgjAQEVbt++e7ZYZvYVHrdBg8rBwdWEFhV190Gld883yb7iqnnzupjNr3I2a+m++daueVi0qHudOr70gYS2L82+plsWsmxi4r2qms2+cp6qTY1mEX2W++6776Kjo3fs2HHixAnTYwrAjSH7AoAiyrMvBcrZs2dT8LV0JUNRUVFMTEyjRo169ux5/fp1dnVxccuWLSkTP20O9dNaYVhiYuKgQYMo+BoMBvG+hYWFY8aMqVGjBgVosbPYXPZ1BZayr3i9r9B27RpJaWn58nsX737zTS+6GR9/7xu4KFpR5PLxKTtzZqjQQ8GOsimzWSbL8rdpOp5au3a1+/dvTCHv8OHxFIIpBfbp0+jll+99DQWTfaVPQHpTOOu5dOnz0i0zd8+XnX1t2qyl++Zzs++OHSNK3T+VO3fuc/zse+TIeBpMn1uE/oULu5lmXzlP1aYmXPOwfPly4cqHgwcPpqWlsVMNwH2pmn11e1U1gBtTmH2HDRtGEbNNmzaWzvhevny5efPmAQEBixcvNvuFDPKFhYWNGjXqwoULTD9tdvDgwVOnTpV2njx50sPDQ9pjk9yLmWe/Xp+XZfN/JfNfJ2Vm3xs3pjdoULlt29rHj084dGhcSEjNhg39qfPatWkUof74Y9KlS5Nr1ao0ceIzwviRIx+n2JqZeffyX7ExWdbSNi2Nzzd+Ca5wwpKW6RE9PErTzbi4e7/jJY1uzBOQ3rx1a0azZoGNG1fZtu1Fejh6aOHb0+zIvrZu1tJ987nZNyZmEC2vWzeIPi1QuTw9S2dnT+FsuW5dXxq2d2+YwdCbPpCYZl85T9WmRrMoMjKSsu/KlSvXrVu3Z8+e1NRUdqrJw5+u4OJ0u/tUzb7890gA0CL+cW01+x44cMDq94jR+7Szr0fMz89ngnVGRsbSpUuV/E3jjN2HYqt22xf2bmb8UXadZVbraRplTLMvNUpIwcHVShk99VTg4cPj840RjTJi6dKlvLw8u3atf/78a8Lg+PiwevV8y5TxEC88zTeXZc1ukzP+6NG7JzWnTLn3nJ999pHAwHsXPFB74omAV19tISwzT4C5mZLySocOdWhT9Mz9/b1jYwczd6dGCXvcuHvZV7pq/vwuFSqUNfsoVjfLua/Z7Ltw4d3sS1G1c+d6dNPX1+vDDzvQFpo0qcrZ8qpVfSkH03ja5rRpIWL2lY63+lRtajSLoqKipJc9JCcns1NNHv50BRen292H7AsAivCPa6vZ172lbY6PLts2yiNkW/DQpM8i5JwGtlpP0yjDaRcvvp6ePpnpzMx8MyurxCnefOOFEH/8MUkMppxmdpvKG/METJ8PPWerfyvOalOyWdP7clpa2usUgmkhO3uKabWZdvPmdOYL48w2+U+V35B9QaDb3YfsCwCK8I9rnWdfkrZhd3SZ1uv8Om9vNjLGt7PV08BW62kaZdDQbGrIviDQ7e5D9gUARfjHNbJv8f34ezdwlGm9/Ylhm+r25ZwGtlpP0yiDhmZTQ/YFgW53n6rZV7dXVQO4Mf6rZyT7x1TR7rZ1fp3p3xi/zhe3J5iuZRpTT9Mog4ZmU4t0XPbF27qm6Xb3qZp9AcD9MOGMEYnzvsZfeltfpWts5bt5V2gxlTodnBB+O+PvYhkFZG6aRhk0NJuaA7MvgBYh+wKAIlajm86zrxB8Y3w63E29HqHbnxxxPnaXdIDVAjI3TaMMGppNDdkXdA7ZFwAUsRrd9Jx9KfiuLd+eOdHLsFrA8PBwg8EQHx8v3DSNMmhoNjVkX9A5ZF8AUMRqdNNt9qXgu65K17iWY5kTvQybCnj35DEamuKG7At6pmr21e1V1QBuLNKW6KYf8v+um30FpLxCqYWyCyWYKADbOST74m1d03S7+1TNvvyXeADQIv5xbSm6gci+AiYkJGzatGnNmjUrwJzPZ7zDdoEJmj80i2gu2f03jfmzF1ycbncfsi8AKMI/ri1FNxDZV8AjR47s2LFj/fr1FF++AxNzeo9iu6Akmjk0f2gW0VxKS0uTzi75+LMXXJxudx+yLwAowj+uLUU3ENlXwOTk5IMHD1Jw2bRpUzSYeCe4G9sFJdHMoflDs4jmUmZmpnR2ycefveDidLv7kH0BQBH+cW0puoHIvgKmpaVRZDly5EhCQsIOMPFhlVZsF5REM4fmD80imks5OdYvTDeLP3vBxel296mafXV7VTWAG+O/elqKbiCyr4AUVjIzMym1pKamJoOJbW9+xHZBSTRzaP7QLKK5dPv2benskg9v65qm292navYFAPdjX3QDEQoIAKAmZF8AUATRTSEUEABATci+AKAIoptCKCAAgJqQfQFAEUQ3hVBAAAA1qZp9dXtVNYAbQ3RTCAV0BrzdqAN11jTd7j5Vsy//JR4AtIh/XCO6WYUCOgO/quAoqLOm6Xb3IfsCgCL84xrRzSoU0Bn4VQVHQZ01Tbe7D9kXABThH9eIblahgM7Aryo4Cuqsabrdfci+AKAI/7hGdLPK1gJeuXKloKBAHJCfn5+VlSXeZCxdunTr1q1sr9Okp6d/9dVXhYWF7ArV8asKjoI6a5pud5+q2Ve3V1UDuDH+q6dpdAOGrQX09PQ8fvy4OGDPnj1VqlQRb0pdv369atWqW7ZsYVfYKDExMSoqKjo6OjIycvXq1StXrjQYDBs3bmTHFRefPHmSnh7b+zDg7UYdqLOm6Xb3qZp9AcD92BrdgGFrAb28vE6fPi0OSEhIqFGjhnhTavbs2aVKlRowYEDv3r27d+/eqVOncePGSQf0MupTEvX07NlTOmzWrFlBQUHNmjVr0aJFaGhou3bt/Pz8goODpWMESUlJZcuWZXsBAFwJsi8AKGJrdAOGrQX09vaWk32PHz9OI2fMmPHJJ58sWLBg8eLFISEhnTt3lo6hLc+ZMyc8PPy1116jweFGc4ykwxjp6em+vr6rVq1iVxizb7ly5dheAABXguwLAIrYGt2AYWsBmez7yy+/1K5dW7wpyM7Obt68+bJlD/5DMz8/nyJyRESEZNQDR48etXThhKkxY8Y0btxYes2xiLKvp6fnqVOn2BUAAC4D2RcAFLE1ugHD1gIy1zzs2rWrUaNG4k1y4sSJhg0bzp8/X9oZGRlZs2bNO3fuSDtF8rPvvn37PDw8tm/fzq4wouxLa2lTrVu3NhgMt2/fZkcAADxsqmZf3V5VDeDGbI1uwLCpgEVFRY899tiZM2fEAREREc8+++yDOxQX79y5c+7cudKezMzM6tWrL1myRNopJTP7Jicn169fv23btvQ02HVGwjUPN2/eXLx4cZMmTWrVqrVo0aKHkoDxdqMO1FnTdLv7VM2+/Jd4ANAi/nGN7GuVwgIOHTp0/PjxbK8ERc9evXr17duXXSEhJ/seOnQoMDCwX79+FGr79OmTnZ3Njih5vS/l4xUrVtSsWXPSpEklR6mBX1VwFNRZ03S7+5B9AUAR/nFtNbqBkgLGxcV5eXnt37+fXXEfJdT27ds3a9YsMzOTWXXs2DGKqslGsbGxfn5+wjKh/pMnT0oHb9682dfXd8KECQUFBVevXqUwHRQUlJKSIh1TbO533W7cuGE2JTsbv6rgKKizpul29yH7AoAi/OOaH92g2N4CUqCcPXs2BV9LVzIUFRXFxMQ0atSoZ8+e169fZ1cXF7ds2ZIy8dPmUD+tFYYlJiYOGjSIgq/BYBDvW1hYOGbMmBo1alCAFjuLzWXfh4VfVXAU1FnTdLv7kH0BQBH+cW0puoHIjgIOGzaMImabNm0snfG9fPly8+bNAwICFi9ebPYLGeQLCwsbNWrUhQsXmH7a7ODBg6dOnSrtPHnypIeHh7TnYeFXFRwFddY03e4+VbOvbq+qBnBj/FdPs9ENpOwo4IEDB6x+j1hkZGROTg7b61D5+flMsM7IyFi6dKkD/6Zx7sXMs1+vz8uy+QfB2406UGdN0+3uUzX7AoD7sSO6gRQKyJex+1Bsla4/tZt4+adEdh0AgO2QfQFAEUQ3hVBAqyj+rvVuT6WgEHx0xkI7TgMDAIiQfQFAEUQ3hawWMDw83GAwxMfHs+v05O7Z38pdosu2oYJEebb+X+sJOA0MAPZB9gUARaxGN2RfPqsFpOpFR0cfPnyYXaczQvxd692OanK3eYTiNDAA2EHV7Kvbq6oB3JjV6Ibsy3cvyaHZ3oTTwDG+nS9uTzBdyzS27uAIeFvXNN3uPlWzL159ANwP/7iORPaVzWAwUKE+rHL3RK+AeqKjo6l0hw8fNv2WMb1J/2FfdLm7YZfaxlp9NjzSc2vTIUmfRQjnfa3OQ7YLHAGF1TTd7j5kXwBQhH9cI/vKFx8fT1X6vGzz/91HPZR6k5KSKPg6+wvLXJwQfKPLttnSaHBMpU77wt7NjD8qHWB1HrJd4AgorKbpdvch+wKAIvzjGtnXVvx66tPd4Fu2TZRHiPREL4Nft0j8yqBz8MsOLk63uw/ZFwAU4R/XyL624tdTh4zf79vN9EQvg183zEMn4ZcdXJxud5+q2Ve3V1UDuDH+qycyh63wOikl/++6YR4+FJiumqbb3adq9gUA94PMAa4A8xAAZEL2BQBFkDnAFWAeAoBMyL4AoAgyB7gCzEMAkAnZFwAUQeYAV4B5CAAyqZp9dXtVNYAbQ+ZwLLxO2gfz8KHAdNU03e4+VbMv/7UJALSIf1wjc9iKX0+whF83zEMn4ZcdXJxudx+yLwAowj+ukTlsxa8nWMKvG+ahk/DLDi5Ot7sP2RcAFOEf18gctuLXEyzh182x8zAnJycxMfHixYvsipJkDtM0ftnBxel29yH7AoAi/OPasZlDD/j1BEv4dbN1Hv7xxx8eHh7ljD799FOx32AwDB8+fPLkyV988cVrr73Wu3dv2mZeXp7krjYMk2PUqFFr1qyhBbr7f/7zn3fvY4YlJydPnTo1PDxcuHn27NlmzZqVHOIU/LKDi9Pt7lM1++r2qmoAN8Z/9bQ1cwBeJ+3j2HlI2bdGjRrSnlu3bo0cOXLJkiXSTkI9//jHP8SbMofJN3ToUCH75uTkVKxYccGCBZ999ln58uXFAXFxcYGBgZTRR48e/d///rdBgwbBwcGNGzemnseNqGf9+vUPtuhQmK6aptvdp2r2BQD349jMAWAfx85D0+z71ltv7d69W9ojon7xhKvMYXL8+eefP/30U9euXemZ792798yZM02aNBFW+fj40L/Lly8/ceJEXl5eRkbGuHHjNm/efPv27UuXLu3YsWPvfbSFq1ev2nfKGcBdIfsCgCKOzRwA9nHsPGSy77Fjx9544w3Jetbrr7+ekpIicxjba8GGDRtatGhRtWrVRo0aPf/884sWLRoyZIiwqnz58kVFRWPHjl27du358+cPHTrUr1+/hQsXnj59+sCBA9WqVet1H6Xky5cvl9wwgN4h+wKAIo7NHAD2cew8ZLLvRx99xM+stHbZsmUyh7G9XCNHjoyKitq1a1edOnV++eUXobNHjx4NGzZs3rw55dqNGzcOGDCgYsWKFJEnT57866+/dujQ4eR9devWvXLlSslNAugdsi8AKOLYzAFgH8fOQyb7vvTSS5KVZhQVFb3++usyh4k333vvvaysLMl6Myj7Ll269J133lmwYMExicTERHHMX3/9VapUqWrVqt24cYOe+cSJE/95Hy1fu3ZNsj0AUDf76vaqagA35tjMAXidtI9j5yElyEceeUS8SQlSstK8CRMmyBwmLlO8pgeSrCyBMuvmzZsff/xxGvbpp5927ty5UqVKI4369OlDYff06dPCyNmzZ9OqZ555plOnTk899VSrkqjHefEX01XTdLv7VM2+/NcmANAi/nFta+YAfj3BEn7d7JiHubm54nJ4eHh2drZkJYvWTp8+XeYw8SY/+37//fcDBw5s0aJFVFQU3SwoKAgODt6zZ09RUdHQoUOnTp0qDDt+/HiTJk1GjBgRGRk5b968YcOGUSZetWrV6tWrv/vuu6ysrLp160p/Fsfilx1cnG53H7IvACjCP67tyBw6x68nWMKvm8J5uG/fvqVLl7K9ErR2y5YtMoeJN/nZVyBc7yss0/Zr1ar1wgsvdO3aVfzqhilTpmzdulX4noeffvqJsu/ixYuHDx9uMBhCQ0OPHTuG7AuW6Hb3IfsCgCL841ph5tAhfj3BEn7dFM7DwsLCl19++ezZs+wKI+ofPXp0sexhIluz7/79+4OCgkqVKjV58mTxz8Xl5+fTv9Lsu2TJkubNm48YMaJ+/fpHjhxB9gVLdLv7kH0BQBH+ca0wc+gQv55gCb9uyufhnTt3Jk6cGBcXx/T/+OOPAwcOzMzMFG7KHCbgZ9/bt2+fOnWqU6dO3333XURERO/evatXr7569erk5OT27duXK1duwoQJ4t3Hjh27adMmepQXX3xxxYoVX375ZVpa2sGDByn7Vq1a9datWyW3bV3uxcyzX6/Py8phV5TELzu4ON3uPlWzr26vqgZwY/xXT+WZQ2/wOmkfFebhzZs3w8PDhw8f/s4773z//ff07+jRoz/66CPhzKv8YYsWLaph5OHhkZqaKr2vVFZWVkhISP/+/Y8fP/78888vW7bs+vXr4todO3ZQzD127Jhwc9y4cRs2bNi2bZv4HcCEblJKln6zhE0ydh9aV7nLvrB3M+OPsuvuw3TVNN3uPlWzLwC4HxUyB4BVqs3DgoKCM2fO7Ny5My0tjV0nwRmWl5d37T5mlas5t+aHKM/QKI+QrY++kPRZhNXTwACagOwLAIqoljkAODAPneRe/PUM3VS339qKnfingQE0AdkXABRB5gBXgHnoPEL8pRpSi63abX1gD5wGBk1D9gUARZA5wBVYnYdoDmxCFF5XucvF7QlsrQFcnqrZV7dXVQO4sUhrmQPZ1yZ4nbQP5qHz/BX9U/T9877rKj0XW637lsaDhfO+mK6aptvdp2r25b82AYAW8Y9rZA5b8esJlvDrhnlot3vBt3SrDTV7r/XpmDDiHen1vvyyg4vT7e5D9gUARfjHNTKHrfj1BEv4dcM8tA8F37uXN5QOEU/0MgP4ZQcXp9vdh+wLAIrwj2tkDlvx6wmW8OuGeWiHu9/v69eZOdHL4JcdXJxudx+yLwAowj+ukTlsxa8nWMKvG+ahrfB33fRAt7tP1eyr26uqAdwY/9UTmcNWeJ20D+bhQ4Hpqmm63X2qZl8AcD/IHOAKMA8BQCZkXwBQBJkDXAHmIQDIhOwLAIogc4ArwDwEAJmQfQFAEWQOcAWYhwAgk6rZV7dXVQO4MWQOx8LrpH0wDx8KTFdN0+3uUzX78l+bAECL+Mc1Moet+PUES/h1wzx0En7ZwcXpdvch+wKAIvzjGpnDVvx6uqC9e/du2bKF7VUdv26Yh07CLzu4ON3uPmRfAFCEf1wjc9iKX09b3b59m+1S7OrVqxEREcLypk2bRo4cOXbs2Li4uJKj1MavG+ahk/DLDi5Ot7sP2RcAFOEf18gctuLX0yaXL18uVarUuXPn2BUlJSYmRkVFRUdHR0ZGrl69euXKlQaDYePGjey4+5KSknx8fITlb7/9duHChcuWLZs3b57Qk56e/mCoZbY+qFX8umEeOgm/7ODidLv7VM2+ur2qGsCN8V89kTls5cDXyStXrlD2zczMZFeUNGvWrKCgoGbNmrVo0SI0NLRdu3Z+fn7BwcHSMdevXy8sLBSWU1JSaICwfOfOnREjRgwZMiQ7O5tu0pgGDRqEhYXdvHlTvK9Zch7UJpiHD4UDpyuoT7e7T9XsCwDuB5nDZQnZNysri13BlZ6e7uvru2rVKmknhdRSlnXp0kUcuW/fvoCAgJYtWwppWLR+/fr4+Hhpj5TZB7UJ5iEAyITsCwCKIHO4rMzMTAqmTAa1asyYMY0bNy4oKJB2pqSkJCUlJRvt2LGjUqVKwjKh/tTUVOngP/74o2nTpv379xd7rl27VqtWrYkTJ0pGlWD2QW2CeQgAMiH7AoAiyBwuKyMjg7Lv33//zfRfunSJ6RHt27fPw8Nj+/bt7Arjr7i1atXq8uXLZ8+eFa552L9//9ChQ9lxRvSgFJfFm1OmTAkMDLR0BprzoPJhHgKATMi+AKAIMofLEn7XLScnR9p57ty5atWqUWyVdgqSk5Pr16/ftm3boqIidl1xcUxMTFBQEC2I2ffGjRv+/v6nTp1ih5a0d+9eT09P8ashGPwHlQ/zEABkUjX76vaqagA3hszhWA58nUxPT6fse+3aNbEnLS2tefPmQ4YMMQ2ahw4dCgwM7NevX5MmTfr06WN6pUSHDh3mzp1bLMm+ZObMmcOHDy8xTiIvL+/tt98uV67cggUL2HVGVh9UPszDh8KB0xXUp9vdp2r25b82AYAW8Y9rZA5b8etpk0uXLlH2vX79Oi1T2I2NjaWgScE3NzeXGbl582ZfX98JEyYUFBRcvXq1V69eQUFB0osWtm7dSgMyMjKKS2bf8+fPV6hQwexZZOp86qmnaC09LrvOyOqD2oRfN8xDJ+GXHVycbncfsi8AKMI/rpE5bMWvp03S0tIo+27cuPH9999v2rRp7dq1v/rqK2ZMYmLioEGDKIMaDAaxs7CwcMyYMTVq1Dh27Fix8TIJf3//FStWCGul2Zd8/PHHdevWFRL233//TcOmTZv26KOPent7v/HGG2avLZbzoLbi1w3z0En4ZQcXp9vdh+wLAIrwj2tkDlvx62kqLyvn7Nfrcy+a+RJfyr5eXl716tUbN25cVFTUnTt32BHFxWFhYaNGjbpw4QLTX1BQMHjw4KlTpxYbU6n0r06cOXOmUqVK4s38/Pzo6GhhOSMjo0GDBhMnTtywYYOQhs2S86C24tcN89BJ+GUHF6fb3YfsCwCK8I9rZA5b8esplRl/dF/Yu7FVu2XsPsSuu8/0Sx7ko1Br9kvH/vrrr1dffZXtdRBLD2oVv26Yh07CLzu4ON3uPlWzr26vqgZwY/xXT2QOW1l9nczLykn6LGLbYy9GeYREl21zcesv7Ahdwjx8KKxOV3Blut19qmZfAHA/yByqEU70xlR6bmvTF9eWbx9dtjWCrwjzEABkQvYFAEWQOZxNPNG7sVbvzUEDqaTUEHwZVudheHi4wWDg/F1lANAJZF8AUMRq5kD25ROyLKfF+Hamf9dWaG+6Ck1+o0kYHR19+PBhdgcAgM4g+wKAIpHIvspYLWBeVs7hyfPW+XWOLB0ixLgYnw6x/l04v+KmZ+Hh4e+WRD00A1euXEmTMCkpib0DAOiMqtlXt1dVA7gxq9EN2ZfPagHF5YvbEn58dmykZyh1rvVqi/hrlsFgoPn230EvfX4f9URHR9MMPHz4sOkXq4ESeFvXNN3uPlWzL/8lHgC0iH9cI/taZbWAzIWqD04DUwIu3x7xl0GFosn2ednm/7uPeij1JiUlUfDNyclh7wAK8GcvuDjd7j5kXwBQhH9cI/taZXcBL25L+F/rl2KrdEX8NcWvKjgK6qxput19yL4AoAj/uOZENxAoLCDn77rpGb+q4Cios6bpdvch+wKAIvzj2mp0AxTQGfhVBUdBnTVNt7tP1eyr26uqAdwY/9UT0c0qFNAZ8HajDtRZ03S7+1TNvgDgfhDdFEIBAQDUhOwLAIoguimEAgIAqAnZFwAUQXRTCAUEAFATsi8AKILophAKCACgJlWzr26vqgZwY4huCqGAzoC3G3Wgzpqm292navblv8QDgBbxj2tEN6seYgELCws3btzI9roFflXBUVBnTdPt7kP2BQBF+Me1U6Obe1CtgLm5ueHh4VlZWcLNn376yWAwhIaGLlmypOTA4j///DMkJITpNPXNN98MHz6c7XUN/KqCo6DOmqbb3YfsCwCK8I9rB0Y3d2V3AYuKig4cOHDYnMTERFrLjP/uu+/q1q17584d4eb58+dr1Kixfv36pk2bFhYWpqamvvjii8Kqixcv+vv7i3ccP378b7/9Jt4ULVu2bNiwYWyva+BXFRwFddY03e4+ZF8AUIR/XHOiGwjsLmBeXl6pUqUqVqxYqaQKFSpQf35+vnRwbm5uw4YNH3300QkTJowePXr48OEUWz/99FMKxEIaPnv2bO3atYXBly5dqlKlinjfp59++uDBg8Ly7du3xVT95Zdfjh07VhxG/cyDPkT8qoKjoM6aptvdp2r21e1V1QBujP/qyYluILC7gIWFhZRx09PTmX7qoX5aK+2cOnUqRdvp06e/9dZbs2fPnjVrFo2JiYkRB6SmptapU0dYZrLvM888k5iYKCyPGTOG7uhpVLp0aXGZ0PKCBQvEez1ceLtRB+qsabrdfapmXwBwP3ZHNxDYXUD52Zfu6+3tvX//frEnKiqqWrVqubm5Yg9l31q1amUa/fbbb/7+/sIyefLJJ8Xse/78+ZSUlPNGAwcOpAwtLJMXX3zR9NJhAABXg+wLAIrYHd1AYHcBZWbfr7/+2sfHZ9WqVdIx7du3f++996Q9Fy5ceOKJJ5oZBQcHe3p6CsuEsq/Z633r1asXFxcn3hw2bNjKlSsl6wEAXBGyLwAoYnd0A4HdBZSTfQsKCsaOHbtjxw7pAErDlSpVyszMlHampaX9/fffwjJzzUNGRsbJkyfFm4LU1NSyZcuK3xpB+vXr567fmAYA7gTZFwAUsTu6gcDuAsrJvqZ+++03X1/f7du3M/2UXA0Gg7DMZN9vv/22f//+4k3BtGnTRo4cKe1p06bNrl27pD0AAC5I1eyr26uqAdyY3dENBHYX0I7su3v37qpVqy5bZualeOjQoWvWrBGWmexL/bRWvEk2bNhQvnz548ePSzsbNGhw6tQpac9DhLcbdaDOmqbb3adq9uW/xAOAFvGPa050A4HdBRSyr6+vr39J1GOafXNzc+fOnVuxYsVPP/1U2i+Sn33j4+MrV64cEREh9pCbN2+WLVuW/pV2PkT8qoKjoM6aptvdh+wLAIrwj2tOdAOB3QWkONu4cePs7GymPzMzk/rz8vLEnujo6OrVq3fr1i05OVkysIQXX3wxMDAwyKhevXoeHh7CMgkICBD+7MW1a9deeeWVqlWriimZnlXPnj3/+c9/du/evUuXLiW2+FDxqwqOgjprmm53H7IvACjCP6450Q0EKhTwzJkza9euZXtLGjdu3PLly9PMof7Ro0cXG880v//+++fOnRPvlZWV9fXXX3/wwQfz5s2T9j90/KqCo6DOLij3YubZr9fnZeWwK0zodvch+wKAIvzj2iHRzb2hgM7Aryo4CursmjJ2H4qt0vV/oRMubvmZXSeh292navbV7VXVAG6M/+qJ6GYVCugMeLtRB+rssij+ri3fnl5A1vk+d+jVT8yeBtbt7lM1+wKA+0F0UwgFBABnuHv217/LWu929DIS6RH6Y4vR/NPA+oHsCwCKILophAICgJMI8TemYse78Zda6RDOaWD9QPYFAEUQ3RSyWkA0NDQ0R7UYn7s5OMa388XtCezLjW4g+wKAIpHWohuyLx8KCABOcnFLfHTZ1kLq3dpo8MbafbY99mLSZxE476se3V5VDeDGEN0UQgGdAW836kCdXZkQfGN8OmwLHhrj+9y+sHcz449KB+h296maffkv8QCgRfzjGtHNKhTQGfhVBUdBnV2WMfi2ifII4Zzo1e3uQ/YFAEX4xzWim1UooDPwqwqOgjq7pru/4la1m+mJXoZudx+yLwAowj+uEd2sQgGdgV9VcBTU2QXh77pZhewLAIrwj2tEN6tQQGfgVxUcBXXWNN3uPlWzr26vqgZwY/xXT0Q3q1BAZ8DbjTpQZ03T7e5TNfsCgPtBdFMIBQQAUBOyLwAoguimEAoIAKAmZF8AUATRTSEUEABATci+AKAIoptCKCAAgJpUzb66vaoawI0huimEAjoD3m7UgTprmm53n6rZl/8SDwBaxD+uXTy67d27d8uWLWyvujRdQJfFryo4Cuqsabrdfci+AKAI/7hWEt1u377Ndil29erViIgIYXnTpk0jR44cO3ZsXFxcyVGqcl4B9YxfVXAU1FnTdLv7kH0BQBH+cW13dLt8+XKpUqXOnTvHrigpMTExKioqOjo6MjJy9erVK1euNBgMGzduZMfdl5SU5OPjIyx/++23CxcuXLZs2bx584Se9P9v7zzAoyjeP04IPbRIE1Caf6oCAtIRFBAQERBECKA0wYYURVSKIhIQVIo0KaEECEkooSO9RHoLiHQIIKEktBCkc/l/cyP72+zebvYquez387zPPbMzs7uz7+y+8929ub3Ll/9XVRt7d6qPmxxocvS9SlwF/ezVmLb7qH0JIU6hf107LN2uXr0K7RsXF6csSM6gQYNKlChRsWLFKlWq1KhRo06dOrly5SpXrpy8TkJCwuPHj0X61KlTqCDSDx48aN++fZs2ba5fv45F1ClevHjHjh3//fdfaV2bGNmpcdzkQJOj71XiKuhnr8a03edR7WvaWdWEpGH0o6fD0k1o32vXrikLdLl8+XLOnDnnzJkjz4RITadNgwYNpJo7duzIly9f1apVhRqWiIiIiIyMlOfIsblT47jJgSaHw41noJ+9GtN2n0e1LyEk7eEm6RYXFwdhqtCgKdKpU6eSJUs+evRInnnq1Knjx4+fsLJhw4YcOXKINEB+dHS0vPKZM2fKlCnTokULKefWrVuFCxfu0aOHrFYybO7UOG5yICGEEJtQ+xJCnMJN0i02Nhba98aNG4r8S5cuKXIkduzYkT59+tWrVysLrD9xq1at2pUrV06fPi3mPOzcubNt27bKelawU8hlabFv37758+fXegKts1ODuMmBhBBCbELtSwhxCjdJN/Fbt/j4eHnmuXPn8ubNC9kqzxScOHGiWLFitWvXtlgsyrLExIULF5YoUQIJSfvevn3b39//yJEjyqrJ2bp1q6+vr/RqCAX6OzWImxxICCHEJtS+hBCncJN0u3z5MrTvrVu3pJyYmJjKlSu3adNGLTT37duXP3/+5s2bly5dulmzZuqZEnXr1h05cmSiTPuC/v37BwQEJKsn4/79+wMHDsyUKdPYsWOVZVZS3KlB3ORAQgghNvGo9jXtrGpC0jBukm6XLl2C9k1ISEAaYnfx4sUQmhC+d+7cUdRcvnx5zpw5u3Xr9ujRo5s3bzZt2rREiRLySQsrV65EhdjY2MTk2veff/7Jli2bzafIyKxQoQJKsV9lmZUUd2ocNznQ5HC48Qz0s1dj2u7zqPbVD/GEEG9E/7p2WLrFxMRA+y5duvSHH34oU6bMc8899/vvvyvq7Nmzp1WrVtCgQUFBUubjx487der07LPPHjx4MNE6TcLf33/WrFmiVK59wYgRI4oUKSIU9o0bN1Dtyy+/LFWqVJYsWXr37m1zbrGRndqFmxxocvS9SlwF/ezVmLb7qH0JIU6hf12nKN3uX4s/PTXizkXle3yhfTNnzly0aNEuXbqEhYU9ePBAUQF07Njx/fffv3DhgiL/0aNHrVu3/uKLLxKtqlT+rxMnT57MkSOHtPjw4cPw8HCRjo2NLV68eI8ePZYsWSLUsE2M7NQunHQgsYm+V4mroJ+9GtN2H7UvIcQp9K9rHel2ZePeLU37Ls7zRuzmfYoigfolD8aBqLX50rHz589/9tlnylwXobVTfRx2INFB36vEVdDPXo1pu4/alxDiFPrXtVq63b8Wf2jAZEjeUJ9qC7PV1RK+5sFeBxIj6HuVuAr62asxbfd5VPuadlY1IWkY/egpl25XNu5d/2qPsAy1kBmR9w0YhW+iAQcGBgYGBQXp/LEcUcPhxjPQz16NabvPo9qXEJL2SFG6De0/IKhR17Ccr4X51sQibNnzzSh8JVJ0IO4cwsPD9+/frywjhBBiP9S+hBCnSFG6hWT8T/LSHLPg4OB169YdP35c6VxCCCH2Q+1LCHGK0JS079D+A6a/1T3Mv354ptpCzCVNeMjTkM99FQQFBY1LDnLCw8MhfPfv369+swQhhBAHoPYlhDhFitpXmu8bFxm1qWHPsIy1Q31rLsr5OuWvgsjIyHXJQQ5U7/HjxyF8FX/vTAghxDE8qn1NO6uakDSMce0rcu5fi//7x6CIAk1CfaotyMr3PChhnHQJdKNnoJ+9GtN2n0e1r/4YSQjxRvSva7X2lYiLjNra/Eud9/uaE31/EoPQjZ6BfvZqTNt91L6EEKfQv651tK9A63/dTIu+P4lB6EbPQD97NabtPmpfQohT6F/XKWpfokDfn8QgdKNnoJ+9GtN2H7UvIcQp9K9ral970fcnMQjd6BnoZ6/GtN3nUe1r2lnVhKRh9KMnta+9ME66BLrRM9DPXo1pu8+j2pcQkvag9iWEEOJFUPsSQpyC2pcQQogXQe1LCHEKal9CCCFeBLUvIcQpqH0JIYR4ER7VvqadVa1DfHz8nj17Ll68qCxIjsFqhHgeal/XwjjpEuhGz0A/ezWm7T6Pal/9MdIuzpw5kz59+kxWfvnlF2Xx0+Py5csJCQnKXFsEBQUFBAT06tVr/PjxPXv2fOutt6AP7t+/71i1x48fz50799q1a4p8x3jw4IG9mxoxYsTVq1eVuTKCg4O3b9+uzLXFsmXLTp06pcy1YrFYoqKi7ty5oyywxciRI9EdylziavSva2pfe9H3JzEI3egZ6GevxrTd58Xa99lnn5UWBwwY0M8WKT4o/fXXX5csWaLMdYI2bdoMHDhQmZucu3fvdujQYfLkyYp85Hz00UfSosFqEkWKFNmwYYMy1yFWrFjh5+fXqVOn2bNnHzhw4Pr161Dbly5devPNN//9919RZ/HixU2aNJFWyZMnzz///CMtqhk6dGiLFi2QuH37dkRExPr165U1nvDaa68tX75cpKHCIeulIjQjXbp0hw8flnK0wIo+Pj5XrlxRFhBXo39dU/vai74/iUHoRs9AP3s1pu2+NKJ9O3fuHGClWLFi2bNnF2lw7tw52Uo2qF27dv/+/UV6lxWpSLFokLJly4ox/qeffpo0aVJQUNBvv/0GNfzWW29ZLBZR55tvvtm8eXOy1Z6A/MDAQJE2WE0Csnv06NGKTDUQr1FRUeHh4T///DMkptbzXajG4OBg+BBas379+j/88MPXX3/dvXt3tEpUwH1FhgwZYmNjxWLevHnnz5+/Z8+eR48eSRuBVEVmaGjo9OnTP/30U9SvWLFixowZq1WrtmzZMqnayZMnofIHDx48cuTIsWPHlihRomXLlsipVatW1qxZjx8/Lt8g2qN/S4N7BshlrJUjR46DBw/iVuHChQvKSsR16F/X1L72ou9PYhC60TPQz16NabsvjWhfiU6dOpUsWVKZa4yaNWtida1FgaRfbfLgwQMIu+vXryPdpUsXKLxKlSpBwLVo0aJPnz4oRT7UWO/evZVryvj8889PnTplsJo8Z9SoUZC/0uK+fftESwTQoB999BGc4+PjkzlzZujLV155BQk0OCQkRKqmoH379lWrVv3zzz9v3bqF+wok3nzzTam0evXqOC4caYECBbAdbBMbRPrAgQOiws2bN3H4jRo1eueddz755JMKFSpAPd+4cQNFcokMAQ1t/dVXX6EOfF6oUKFWrVpB3EM0Y1MPHz6UaiYkJED7yo9LzQcffODr65slSxbU9PPzq1KlytGjR5WViOvQv66pfe1F35/EIHSjZ6CfvRrTdp9Hta8LZ1Ub1L4QXuPHjxfpgICAevXqifSSJUvq1KmDxNtvv/3jjz8iAeEF3ZYjR45SpUrNmTNHsYgKZ8+ehYaDooIEjIiIENvB6gMHDsSWobHQJGis/PnziyIthg8frjWZVYDSadOmGawmz9m7d2+ePHnQjBEjRrz88suZMmVavHixVNq4cWO0c8KECVCTku68ffv2zJkzIVv/+usvqabE6NGjmzVrdu/ePbGIo96/f3+iVeIjDVfnzJkTexwwYMDatWvFXAh8duvW7bXXXpNvR4DbhuDg4KJFi06cOBHyNF++fNi7spKVJk2a/PHHH0hAJSumCF+7dg2KVn++L5T0sWPHOnbsCJ2NnUJ/Q7KjE3HsOBlOnz6tXIE4h370pPa1FxfGSTNDN3oG+tmrMW33eVT7uhCD2rd9+/aQv4lPNBM4efIkFlu3bt2jRw8kXnrppZ49eyZaN1i+fPmmTZvu3r37ypUrisXHjx9XrFixYcOG0Jeff/65tGus7uPjAyW3YsUKCDJorOrVq0t7t/mQ+MMPP1RmJQdrYRcGq8lzoC3Sp0+fO3fuzp07r1y5UpqYmyI4zJEjRypzExPr168fHh4u0vJjuX//Pm4DJk+evGHDBn9/f/lz2UTrA+bChQuLdExMTIknFC9eHM5B79SsWXPNmjXi6a8EbkUqVKiAoldffRXbLFiwIOqjC9599115tYsXL6IT5TOAtYD6Dw0NReKzzz7DPQ+6u1+/fr169dq3b5+82pAhQ7RmfRCDUPsSQgjxIrxY+0IeKXNV2jckJMTX1xfiZtasWdCp+fPnnzhx4u3bt7NmzSp+ayVp30TVJAf54o4dOyC5RowYsW3bNshBpKOiohKtq8t/77Vq1ao33nhDpCMiIho3biwVSQjNrU+3bt0MVpPSOIpChQpNnTpV/5moTUqVKoUVpUXIbjELAp/PP/88XI10u3btxowZI9WRQIXNmzdDak+YMAE+CQsLK126NCSmKIVilh4bC6KjowsUKHDo0CF5ZqL1PRXol9jYWNxpNGvWDNtRVBCcPXs2Q4YMylzrDBP5Kx0uXbqEfo+Li5NVsQ1uY8QBEoeh9iWEEOJFeKv2BTZFnkL7QvVCA82bN69FixYYgN9///3mzZuHhobmy5dPfO9vUPtiFejdEiVKvPiEhQsXJiZfHSxduhS6rW/fvv/884+YHSsVSQQGBupPV0Vpv379DFYT6UWLFpUvX17xJNUgixcvzpgxo/TsE17Nnj279CKFoUOHlitXLiEhAQLR39//yJEj/1vTSvfu3b/66qvdu3dDMVeuXLlNmzbwlfwVbNC+w4YNe+WVV3CvAgeid/LkyQPFLP1ITmLnzp2Q4D///HOlSpVs6mxw+vTpzJkzKzL37duHmxm5u2bMmCGe90N8f/LJJzrqltrXeah9CSGEeBFerH1totC+4NVXX23ZsiW00cGDByGCc+TI8fbbb0vvCFNoX4hjaUX5onjuq5hfm6jSvuvXr69WrRoyIf6yZMmyZ88eWd3/wKamTJmizJWB0hUrVhisJtIQ3DYnLegD9QnBCqU7e/ZsKXPy5MlVq1aV1UqsWLHihAkTkOjfv39AQIC8KNEqu6tUqaLIlNOtW7f69evDFdIcjFOnTs2fP18xbwE6vnTp0t9+++2kSZOgodFfL7/8MqrJ6yRaFb+Pj498ojA2W6NGDcVj8rp164p53suXL0d32Jx8IqD2dR5qX0IIIV6ER7WvB2ZVq7XvTz/9JB7ZIh0XF5c+fXosSu/BlYvXjh07Yl3p6al88eHDh5BipUqVWrNmzb1796KiosTb0xTa9++//8bGhwwZkmh95XC+fPmgs/v06QOJCQk+bNiwROuX+927d9f6xRXyP/jgg0TD1QRjxozBAUZERFy4cCEhIQFtPn/+/KZNm9auXStb6T8GDx7coUOHSpUqZc6cuXHjxvJ35UIN+/v7L1myZOnSpSNGjHjw4MGdO3dw4NCjidbpCpkyZcKW/7etxMSrV6/6+vrevHlTnimndu3acheBW7duyX+EJ0D7pXf61qlTJyQkZOXKlWXKlKlXr56Yoi1RvHjxoUOHiqf+cHiTJk3QL/Jn3rjJwY2H+KMNHMgzzzwTGRkJt9y9e/f48eOK9wpT+zoPta9r8UCcNAN0o2egn70a03afR7Wv/hgJ7l+LPz014s7FlKdpaqHWvn/99Rf06JdffikWq1atmj9/fulFB+XLl5d+MbZ9+/aiRYtmyJBh+vTp6kUoP+gwbMrHxwcCEaJKsXqi9ft9aGvxjgIAWQkNh1F/3rx5GzdulN5KC03Zo0cPtTCFsH7nnXekWaoGqwkmTpxYpUoVKLmMGTOizbly5YIfILvldQTBwcG//fYblKX6b9iuX7+OWwUkTpw4Ac2aNWvW7NmzQ4lKj2yxa/GmNjkvvPCC8IZNoHhy586NxjRv3rxVq1bwv5+fX9myZRV/TTdt2jR4tWHDhkWtiMm7UKtdunRRTLTYsmULDhNtEy9Wa9++fXx8vLxCmzZtpMkq6GjcisAz2ClWgcKG7pdXpvZ1Hv3rmtrXXvT9SQxCN3oG+tmrMW33pRbtGxcZtb3doMV53ojdnOxn+B7GYrGcP39eUsaKRQCZpf/HCnv27IFiU+aqgJoMDAwMCAj47rvv5s6di88PPvhg+PDhincmGKzmJmJiYlL8c5BE66vQIiMjlbky4BDonjlz5kREROB+QMs/uLtYsWLFn3/+qfXuMwno5oMHD+7fv1/9386J1h+66f/DHJgwYcKzVnCvgv0qi4k96FzXidS+9qPvT2IQutEz0M9ejWm77ylr3/vX4o+Pmb+8WItQn+oLsrz6dIWv54GqPnny5MaNG6EylWUyDFYjxoFovvUEZRmxE/V1LYfa1170/UkMQjd6BvrZqzFt9z017RsXGbXtvQELstZdlLtBWIaai3PXN5vwJSRtoB89qX3tRd+fxCB0o2egn70a03afR7Xv4SHTpAe9i3LVD89YC37HJ4UvId6LfvREaWBgYFBQkP7EGCJh2l+fuBa60TPQz16NabvPo9r34urtC7LVxVhIo9HMY+PGjQsPDxd/iE0IIYQ8XTyqfcGdi3E7OnwnV8Dra3Zbkq8xn/sS4u0EBgZ+nxzkQPgGBwevW7fu+PHjyhUIIYQQj+Np7StxNnjVyjLvhfpUh/xdVboN5S8h3k5QUNC45CAnPDwcwnf//v0XLlxQrkAIIYR4nKemfQX/ewzsU22hXz3KX0K8l8jIyHXJQQ5U7/HjxyF8Fa9hJoQQQp4KHtW+OrOqzwav2tig51N/vy8hxBl0rnFiEPrQJdCNnoF+9mpM230e1b6hur8HT3TF/7oRQp4iKV7jJEXoQ5dAN3oG+tmrMW33pS7tSwjxaniNOw996BLoRs9AP3s1pu0+al9CiMvgNe489KFLoBs9A/3s1Zi2+6h9CSEug9e489CHLoFu9Az0s1dj2u7zqPY17axqQkwCr3HnoQ9dAt3oGehnr8a03edR7UsIIYQQQshThNqXEEIIIYSYBWpfQgghhBBiFqh9CSGEEEKIWfCo9jXtrGpCTAKvceehD10C3egZ6GevxrTd51Hta9q3aRBiEniNOw996BLoRs9AP3s1pu0+al9C0gIPbty6smnfUzdc4+pMj9mDmwlKv6hIJY7SsafrQy3zOt8+dTd6ncccs6fuZ4fNJB2kb97bfTpmpGepfQlJC1yxRjGTW+zmfUq/qKCjHDP61l6jx1K5sYPSqhnpWY9qX62ZJQ8fPpw3b97169eVBYQQY4gYfWzML1c2hZrQjo3+xWDIM7mjHDD61l6jx1K5sYPSqhnvWY9q39jY2GPHjkmL9+/fP3DgQEhISPPmzfv16zdy5EhZXUKIHYgYjYvfYtlvQru8MdRgyDO5oxww+tZeo8dSubGD0qoZ71mPat/p06e/+OKL0uLly5fTpUt37ty5ggULrl+/vnjx4rK6hBA7MHmMFiHvj9HTtm/fjjvqEydOxMTExMfHK91kekc5YPStvUaPpXJjB6VVM96ztrXvrl27AgICunTp0vUJSLds2TIqKkpZ1R5mzZpVsWJFaTEuLg7aF5/QxIcOHbpx44asLiHEDkweo0XICx/y67JlyzZs2LB7925EPcQWpZtM7ygHjL611+ixVG7soLRqxnvWtvY9cuTIl19+OUDGF198AZ26du1aZVUDXLt2LTg4eMGCBT179ixSpMjCJ0DyYpszZ84MDw8PCQlRrkYIMYzJY7QIeXO+HY5IEhERgaiHm37c8SvdZHpHOWD0rb1Gj6VyYwelVTPes7a1rxqoYejUCxcuKAsMcObMmSpVqtSuXbtkyZJ+fn61n1C1alVss0aNGrVq1WrYsKFyNUKIYUweo0XIC/4mcNasWYh6uOnfvn17dHS00k2md5QDRt/aa/RYKjd2UFo14z1rVPsuX74cslWRGRsbGx8fn6DBrVu3FK9uUMx5OH/+PLTv7du3ZVXs3iYhJNH0MVqEvLDvf0GQmT17dnh4OO74T5w4oXST6R3lgNG39ho9lsqNHZRWzXjPGtW+Y8eOrVSpkiKzRIkS6XR54YUX5PUV2vfo0aOo8/DhQ1kVu7dJCEk0fYw2HvJM7igHjL611+ixVG7soLRqxnvWqPbt2rVrx44dFZmnrURrgKKTJ0/K6wcFBcnf87Bq1Sp/f39ZeRL2bpMQkuhcjB43rv/PP/dV57vWEhK2RUWFnT276tGjvVKmkV3L62jVNx7ynHGUQbN5pO42Lc+orVevgEWLflXna1mq8q1XGD3mKjN+VttlLu+g27e3HzwYHh298uFD+4KbS8zeK9pV5rEDNG7Ge9ao9q1cufKoUaOUuXZy6dKlnTt3Sou9e/du3ry5rJwQ4iBGYvTJk8t8fdNXqlRGkd+gQbWaNSuo67vQZs/+0c8vq/jqJkuWTOvXTxH5Wrtu1KhmnTovq+to1Tce8hxzFIa07NmzffJJGynn5ZdLP/NMrseP94nF8eO/yZMnl0X7SOVWu/bLWF2d74xpeUZtmTNn6tfvA3W+lrnEtzly+KW3hfpstGny88F9pu53Yegv0Vp0aOnSxUaN6iPya9WqqK5sMYHH9Nvmwl3Lz2oXbtYlHSTswIHQKlXK+vj4iEs+QwbfUqWKiiLjl6STpr6ijccrZ8zgAboj3GmZ8Z61oX3HjBkzevToscnJnDlz586dkUCR8yIYrFu3DpdKWFiYsoAQYj8pxmjYd9/1EAH64MFweb7BEOawIRAXLpy/WrWXdu4M3rs3pE+f9pGRM0SR1q4HD+7ev38ndR2t+sZDnsOOev31quXKlRDpW7f+hEhChWPHIkROy5avw3SOVG44hPLl/0+d74xpeUZt6pFS31zi27CwkXPnBsI++qg1/AYPi8WVK8erK6tNfj7MnPnDgAHdpCLFojNms98t1v4qUuTZ6dO/79q1BRQDKqxZMwn51au/VLFiKfV20rzH9Nsm37WTJj+rXbhZl3QQbN++kEyZMuJOYMaMIWfProIOxn0RLn9RavySdNJsXtFG4pV6U5IZOUkMHqA7wp2WGe9ZG9q3bdu2LVq0eEcDFLVr1065jj08evQoJCQkb9686kkUhBDH0I/RMNzxFy9eWDyS/OqrZEOIOoShsvSEwKDprPLHHxOx05CQEeoi9a7V5mHtq+UoDPA+Pj5xcZuQXr9+ihBJwcHDsPjo0d7cuXP89tvXOkcqN53BQMeNotRm2pLcMza3IGWqR0r9nbrQt7BZs4bCRX/+OVNdZNDeeef1F198QWtRmP4R2SzS6neLtb+kB1cTJnyDCj/88InFzdpXslTrMYudbdM5e6VMnbNaywxuSm6u6qAWLV7D4W/aNE1dZLHVeJ1WaeXrmLSK+oq2GItX8k0pGmDzJBE1pXSKMUeYTrjTX1HLdFYx3rM2tK9bOXny5AsvvJA/f/4pU6Y8fvxYWUwIcQj9GA1DgEbs+/33Qc88k6tQoXzyqajyEHbnzs6PP34XdRAc+/RpL6avHT688KWX/q9v3w6izr//7qhXr8rAgf89FZgxY0iTJrVy5cqeP/8z33//kXrX+/aFYNfYrLpIvushQz6Gwjh1ajnSH374TocOTdV11MOJMOMhz2FHrVv3O/IXL/4V6WHDPitQIE/69Ok//7wdFnfvnouiv/9epHOkcrM5GGi5Ubhi/vyfypUr4e+fc/Dg7gkJ29q1a5w9e7a6dStjj6Ka8MzUqYNLliwCAYcK8fGRouju3Z3YCNZFm7HljBkzSCOl1k7l5kLfWmyppTp1XpZ2PW/ecBzm2rWTxWLv3u179QqwyM4HjOg48EyZMqJax45NFYsWjRNY2gLG++efL/DNN13kTRKm1e+W5NpXVPvii46Wp6d9U4nHLLbaJt+1lE7x7NVqg/x6V282ImK0+Cpffq+itSm5uaSDYmM3QlyiheoiYfLGa11o9+7tQuPhYfRI5cplxPcJwlq1qi/CCwwSFg6Ubqp1rmjJjMQri0bD1CcJ2omAX6JEYV/f9IULQ78Nsjw5QJu9IDeb4U7nwDG+iKPLl88fTcLGpVnFUVFhrVs3QHzD7n788TP1voz3rKe1r8VimTRpks2/mCOEOIxOjBbWtWsLhDMMPJ9++l66J1/aCpPHaFRDWBkzph9GKcTKSZMGiPz+/TthLYxhSGPgx7hy4cIaUdSjR6uePdsuXPhL27aNUOfs2VXqvVepUhZFb79dV1pLmLRrMYiKkCrP10nLzXjIc9hRyMmQwVeInmbNXu3cuTnuB8T3myNG9CpYMK+opnWkcrM5GGi5EYeM9oiRqVGjmiiC3oJuGD7885w5/eR3CNmyZcGw9O23XevXT3p1ujSSde/eCqPjJ5+0CQ0dWaNGeRRJI6XWTuXmQt9abKkljPGlSxcTafEgTdxl3b+/G0Py5MkDLbJ+x4qVKpWBNg0KGrJixW+KRYv2CYwtZM2a+dln80DG2XxQp9XvluTaF9VQumfPPMvT076pxGMWW22T71qkjZy9Om2wee0jnSOHH6LQZ5+99+67DbHZHTuC9TclN5d0EPaI/QYG9lQXCZM3WOtCw7WJqNKp09vTpn2HcwxieufO/w6kQoWSzZvXE+lLl9ZhrQkTvpHW0rqiJTMYr2w2TH2SQIyi9P3331q6dKz4gsui2wtysxnudA4ce4HCRj8uWPDza6+9Ij86bApyfMmSMWgYWqLel/Ge9bT2JYS4A50YbbH+DBlBCoEGaYQYEcWkUilGX7yYNAtfhEuLNfjWq1dFpDGsYqTHcDVnzjDUQehR7+Xo0cXYss2iGze2vvlmbZRiIAwPHyXli11v3ToDd//Sc2UpXz8tN+MhzxlHwQNVq76IRL58/lOnDkb4zpw50717u954o4Z4OmLRPlK52RwMJFO4EYcMt+/dm/SEDI5CUcuWrz94sMdi/V6yaNGCUjWMZ+fOrRaLlSuXwaBosT4xwjAZENBE5GNFuFo9Uur0nat8K0ytln7/fZAYdO/e3ennl7VAgTxCUGJ8xYiIc9KSvN91vsHXOYEbWO8N9u+fL60oN/1+x66hA3BTAfUg/C/yn5b2TQ0eE6Zum1hRfsGmePbqt8HmtY80lNOqVROQxk0mNjtsWNJTQJ1Nyc0lHTR//k/Y7+zZP6qLhNkMVvILDYoWrW3duoEounp1E7oPbhGLWtrX4BVtMRavJFNEAPVJIv2GTzKtXlCYOtzpHHhMzFp50cOHe+VHhzsx3DjhalXsQjLjPUvtS0haQCdGwyBYEZgmTx6IAAeDSMKQmZCwTZRKMXrDhqRpYShF2IVBvRUvXljayJkzKzCMoUKTJrXkG79zZ2dw8LBPP32vadM6Yi/qBlisk7RmzBgChYEwJ54fW6y7Llw4f968uevXryr/dlJnzFMPJxZ7Qp4zjkIIRqyHGkhn/cZw+vTvkcCInjVrZhyatBGbRyo39WBg0Xaj/JCjosJQFBY2Uix+8EGz554roK4G+/jjd31900OIQ5dgldGj+0lF8tmBWjuVm6t8K0ytlqKjVyIHY/Pq1RPhSSTgt9jYjTgEm/2uo+R0TmCtM0eYfr9jRaiNsmWL48yHJ6EeRP7T0r6pwWPC1G1TrGjk7DXYBq30o0d70z35lkNnU3JzSQetWTMJ+xo79it1kTB5I21eaGL+zJgx/7s20S+SxNTSvvpXtNyMxCubDbPYOknkzyaEafWCwmqqwp3OgYupyePG9ZeK5Ec3dOinKMWQAbfbfIOk8Z6l9iUkLaATo2G40U+nQnpiIYUwMUUsIKDJlCmDhEETSBs5fnyJ+CVQz55tpcwHD/bUq1cF4vWLLzpOmjQgnYZ+kuzIkcW4j2/wZJIcEs8/X6BQoXy4oYe2lqppjXNa47HxkOeMo5YuHYtFjNl58iS9LQjDCRbFl33SA1fJFEcqN/VgoONGI+pBUQ32ySdtUPP69S1ihIZGkYqksURnp3JzlW+F2VRLpUsXa9PmDZxXb79d9+LFpGE+NHQkzoqRI3uLCvKj01FyOiew1pkjTL/fa8rmPMjtaWlfSyrwmDCbbdO6YLXOXoNt0ErLVZfOpuTmkg46dWp5Oms0UBcJkxqpdaGJn8bi1kVa5ZVXyhUrVkiktbSvzhWtsBTjlVbDLLZOkkGDPlRsX6sXFKYOdzoHLr51kQcixdHh/MHFKHpZvk1hxnvWE9rX8vDRlY17T09fenjINHwijRxlJUKIE+jE6PPnV6dPn75//05nz64Stn//fF/f9BjvRQUphMXErPXx8XnrrVfVG7l/f3fVqi9WqVK2e/dWiDvSXKslS8ZgcebMHyxPvvayOcFObhi2FYoNg2KuXNnLlCl29eomeb5+Wm7GQ54zjhLfzaWzTue1WJ/v5s6dA4slSxZRb82S/Ejlph4MdNxoRD0oqlms044xpFmsrzeCBJd+NPPPP39kyOArxhKdncrNJb6VzKZa6tUrwN8/Z5Eiz/7+e9KE75de+r9Klcqg2okTS0UF+dG1alVf/jBPvqhzAmudORYD/V4z9Wnfp+sxyWy2TeuC1Tp7DbZBKy1XXTqbkptLOgj7hdtxNeEuV11qkTVS60LD3T7SnTs3F/XFDF3prMOpJU3YEG8XEdpX54pWWIrxSqthluQnCYqwHfWprtULClOHO50Dx3by5fNv27aRKBITSxRHhzodOjTFFSqNF5IZ71n3at8HNxMODZy82L8+WiO3xf4NkI9S5QqEEIfQidHDh3+OoV3xMyYMD8gUv8eSh7BOnd5GTPnmmy6HDoVv2zZLerrw7bdd/fyyHjsWcffuTvGrXvHkYNeuOYhNH33UesWK3xo3Tvoti/ypsDBEWKx+4EBobOzGiRO/RR00SRRJu96wYQoCeu3aL9+5s1PRJK203IyHPGccBUMQR/tHjOglFsUhSy920DlSueEQihUrtH79FMlWrZqg5UYj6kFUy5gxQ2Bgz9Onlw8Z8jHGEulFHK+/XhVj3siRvadP/x77lcYSI31ncZFvJbOpltCAdFaEn/v0aY80hIVUQe4EHCNKV64cDxGgXtQ6gbXOHIuBfq+Z+rTv0/WYZDbbpnXB6py9RtqglVaoLq1Nyc1VHSQmWOfJkwt7wXX399+LpkwZ9Mor5USp1EidC61p0zridWN79swTvzYTb2awWH+FliOHX3j4qEGDPsycOVM62W/dtK5otenHK52GKU4SaE0sooWbN08PCRkRETHaotsLclOHu4sX1+kcODQxFuFGqOGiRQsiLV4zAu3+6afvLVs27tSp5Wht/vzPSLOSJDPes27Uvtf3Hl32XFMhdle/9M7uD7/46/uh+ERaZC57rhnqKFcjhNiPTozGiNioUU1F5sKFvyCm/PLLF0g3bFi9Vq2KIh+RrmvXFlBOKIWWEvfikZEzoAOkr6iggLNnzyb9x1LHjk1RH4bA1Lx5PXmMFobRTvqrs0KF8iHy/vvvDlEk3zVCKgYS8SsHeb5WWm7GQ54zjoKJlwBs3TpDLCLWY1H6TZvOkcoNhyDqSMyc+YOWG+WHfPBgeDrZ7jDMP//8/7Rv5cplMGCgAtzYrl1jadfovgIF8iA/Z06/adO+y5Llf98hau1Ubi7xrWSzZ/+IvUCUyDNv396O0b1KlbJicfnycagzeHB3qYLcCdHRK8UzzgbW+SSKRZsnsGILCkux37X+v61GjfIe0L6p0GOS2Wyb1gWrc/YaaYNWWqgu3O/pb0puLuwg3LSXLFkknRVcd+XKlZCUpbyRWhfapUvrmjSpJZ7OIqj++uuX0pYhCkuVKop86D8xewG306JI54pWmH68smg3THGS3LwZ+d57b2AUQE62bFnE+8V0ekFuNsOdzoFD0eJeDhcXzhC0HDsdOvRTi1X7li1bXLShQoWSQn8rzHjPukv7QtQuyPYqGrG+dvuruyMU7UMO8lG6IFtdyl9CnCfFGG2X3bu36+TJZdJvelK02NiN4vEAwhOCpvrd48g5fXp5VFSYusglZjzkudZRanPmSFN0o45hcBLrXriw5saNrYpSjExnzqwQv69XWIo7TT2+ldv586vlP/dWLNp7ArvW6DHHzIVt0N+UyzsoLm7Tzp3B6q/g5aZzocXHRyLH5o+30E3qTIvuFW2v6TRMcZJAlWq10zHTOXBhc+cGprPOZZdy0B6d10ca71m3aN8HNxPEE9+dH/R6/MD2USEfpagTUfDNS6fPxsfH37t3T7khQogxDMbotGrGQ57JHeWA0bf2Gj2Wyo0dlJpt8ODuAQFNfvvt688/b5c3b+5ixQrdv79bXc2mGe9Zt2jfQwMmhFqf+D66r3dTgtJ1tQJQc12379G4mJgYKmBCHMPkMdp4yDO5oxww+tZeo8dSubGDUrPNmTOsbdtGFSuWql79pY8/fjcmZq26jpYZ71nXa1/Lw0eLn0n6cZt6qoPaUCepoTnqbdm46cCBA9HR0XFxcZS/hNiLyWO08ZBnckc5YPStvUaPpXJjB6VVM96zrte+sZuTzpXV5Vuqm2XTlpdtgfqLh41DE4X85T8eE2IvJo/RxkOeyR3lgNG39ho9lsqNHZRWzXjPul77np6a9Ch3T4//fhadou3o2hf153X9etGiRUL+xsTE8NEvIXZh8hhtPOSZ3FEOGH1rr9FjqdzYQWnVjPes67XvkeGzsO+D336nbpZNO/D1YNSf+26vOXPmREREbNmyBQ3lo19C7MLkMdp4yDO5oxww+tZeo8dSubGD0qoZ71nXa197n/tu79In1Prcd+bMmSEhIatWrTpw4EBcXJxyu4QQbUweo42HPJM7ygGjb+01eiyVGzsorZrxnnW99rV3vu/S0s1Rf/7gUdC+4tHv9u3bY2JilNslhGhj8hhtPOSZ3FEOGH1rr9FjqdzYQWnVjPes67Wv9T0PDULtec9DaPa6ofNCoH2Dg4MXLVq0ZcuW6Oho5XYJIdqIGH1s9C+4+E1oOHCDIc/kjnLA6Ft7jR5L5cYOSqtmvGddr30Tk97vOynU2Pt9V1drm9TQdz4PCwtLsa2EEC1EjDa5GQl5dJRjRt/aa/RYKjd2UFo1Iz3rFu1r/V+3t0JT+l+3P9v3TGplngZhM4OpfQlxBlx0sZv3Cds0MXjJ8PHzB48K/ibQVDZ78lSEkZCQkGXLlm3fvt3m10d0lGNG39pr9FgqN3ZQWjUjPesW7Quu7z26IFvdUOvTX/XkB+T8Ub1dkkLPXDtsxG8QvqGhoZzzQIhLOHDgAG4gIyIicPHPNhk4ZBz4hidvS1S6JjlmdpQD0Lf2Qo+lcthBaZUUe9Zd2jfRKn8jCjYRj6BXv/TOlre6bXytIz5XWP/M4r8nvlbhC9BQ/taNEJdw4sSJ3bt347LHXW+4ycAh48Bx+HBCiq+LMbOjHIC+tRd6LJXDDkqrpNizbtS+4NLps+s+HBKWPekBcDLzezWsVS8x1UE89IXq5TvOCHEJuHXEBY/rCLeRG0wGDhkHjsOHE1J8TbiZHeUA9K290GOpHHZQWiXFnnWv9sUuse8tGzctGjp2fuWkSQ74nD9oVOi8EEn1Qu8K4cv/tiDEJeDywd0jrvno6OgTJgOHjAPH4cMJKf49pJkd5QD0rb3QY6kcdlBaJcWeda/2xS6xezFLZkHbL6B957b8bKaVWVZEWghf/qcxIYQQQghxK+7VvonWWyUIcCja5Z0GJD33bd1r2rRpU6dOnWIFCSzKZyWjMh/6EkIIIYQQd+B27Xvv3r24uDgo2vUf/wjtG9Gh/5w5c2bPnj3DChJYXLVq1ZYtW4TwRWU+9CWEEEIIIe7A7do30Sp/4+Pjd3w5OumVZx//uHz58oiIiAVWkMCifEoyhS8hhBBCCHETntC+gqhBk6F9d/cft2fPnm3btm2xggQWdeYjE0IIIYQQ4ipcoH2vbNp3eMi0FG3jax9D++Jza6+RClNXxjaVuyGEEEIIIcQ5XKB9IVWVr+912rBN5W4IIYQQQghxDhdoXz73JYQQQgghXoELtK+cW7duXb169eLFi+fOnTuVHGhcaF987lKhqCmBjWBT2CA2y9nAhBBCCCHESah9CSGEEEKIWaD2JYQQQgghZoHalxBCCCGEmAVqX0IIIYQQYhaofQkhhBBCiFlwsfbV4bD1NcD4VCrcU6eUVQkhhBBCCHED1L6EEEIIIcQsUPsSQgghhBCzQO1LCCGEEELMArUvIYQQQggxC9S+hBBCCCHELFD7EkIIIYQQs0DtSwghhBBCzAK1LyGEEEIIMQvUvoQQQgghxCxQ+xJCCCGEELPgIe376M69VWXeg/bF54nDR6h9CSGEEEKI5/GE9rU8fvxnq68hfIWtadzz5IkT1L6EEEIIIcTDeEL7Hug7BpJ38TMNL0RsxifSm7p8T+1LCCGEEEI8jNu174nx4RC74ZnrxG7eh8WYdTvDMtVGTuSg8UetQPveu3dPuRohhBBCCCGuxr3aN2bZ1jDfGqE+1c/OXY1FaNxbt27t+nUWckLTV98+fo7Qvsik/CWEEEIIIe7Gjdr3+t6jC/3qJb3bYej0xCfC9+rVqxC7m3v9lPQwOOur+xeuxiIyKX8JIYQQQoi7cZf2/ffcpaUFm0Lg7uo8VOQI4Xvx4kWI3aNHj/7Roi9KF+VrdGTrTmQK+Zt8G4QQQgghhLgSt2jfBzcTVr8UkPSbtgafPX7wMNH60FcI33Pnzgnte+SvwytqdEadpaVanzl8VMhfPvolhBBCCCHuw/XaF2IXkheiFvIXIjjxyWwHSfhKHD9wCMI36aW/tbqePX0GFTjzgRBCCCGEuA/Xa99dnYcmPc0t2PTfc5cSZdN8JeGLxMUnRO85uDh/Y9Rf3/or5HPiLyGEEEIIcR8u1r6Hh06HkF3oV+/63qOJMuErpvlKwldoXFF04o/IBdnqYq2tfUZJRZS/hBBCCCHE5bhS+56duzrUp3qYb42YZVsTkwtf8dBXLnzvWREVDs9eKl6Ftm/cXMpfQgghhBDiJlymfWM37wvPXCc0XbUT48MTDQhfsZZUbW9g0gPjsEy1/wpbpa5GCCGEEEKI87hG+8YfjRZ/Vnyg75hEw8JXIFX+s8ewpPkSuesf27hdqzIhhBBCCCEO4wLte/fK9eXFW0K2/tnqa8vjx4myV/lKv2/T17JC/sbFxq5v2hvbWfzcW6f2/yWtoqxNCCGEEEKIQ7hA+257bwAE67rqXR7dSdK195K/ylc89NURvgIhf2MvXFxZqQO2tqZpL+lRsc5ahBBCCCGEGMcF2vfuleuQv/hMtPUqXyFh9YWvQKx79tDRdc36HN213651CSGEEEIISREXaF85YraDQvgaf3br2DNjQgghhBBCjOAu7StwYM6ufK6wgNqXEEIIIYS4BLdo34tPcEC2ipkPTm6EEEIIIYQQNW7RvhKOaVZJ/jq5HUIIIYQQQuT8P2vRyQcKkvquAAAAAElFTkSuQmCC;" vertex="1" parent="1">
                    <mxGeometry x="31" y="38" width="771.36" height="580" as="geometry"/>
                </mxCell>
                <mxCell id="23" value="" style="outlineConnect=0;dashed=0;verticalLabelPosition=bottom;verticalAlign=top;align=center;html=1;shape=mxgraph.aws3.alexa_skill;fillColor=#5294CF;gradientColor=none;" parent="1" vertex="1">
                    <mxGeometry x="320" y="46" width="28.57" height="30" as="geometry"/>
                </mxCell>
                <mxCell id="24" value="" style="outlineConnect=0;dashed=0;verticalLabelPosition=bottom;verticalAlign=top;align=center;html=1;shape=mxgraph.aws3.lambda;fillColor=#F58534;gradientColor=none;" parent="1" vertex="1">
                    <mxGeometry x="397" y="44" width="27.97" height="34" as="geometry"/>
                </mxCell>
                <mxCell id="25" value="" style="outlineConnect=0;dashed=0;verticalLabelPosition=bottom;verticalAlign=top;align=center;html=1;shape=mxgraph.aws3.cloudwatch;fillColor=#759C3E;gradientColor=none;" parent="1" vertex="1">
                    <mxGeometry x="710" y="42.68" width="32.5" height="36.64" as="geometry"/>
                </mxCell>
                <mxCell id="27" value="" style="shape=image;imageAspect=0;aspect=fixed;verticalLabelPosition=bottom;verticalAlign=top;image=data:image/png,iVBORw0KGgoAAAANSUhEUgAAAcQAAAHECAYAAACnX1ofAAAABmJLR0QA/wD/AP+gvaeTAAAgAElEQVR4nO3deYBcVZn38d+5t6p6SzoLYQkDzCjqCCgQmvQCGacHQnezdHeCNKO44iiMMyiLEBjZmohoWERUZgyKaBjnfbVR0h2klwRsReiujgHGd9hRR1nCErL3Uts97x9JMEB6v1W3lu/nP4qqcx44XfXcc89zz5EAAAAAAAAAAAAAAAAAAAAAAAAAAAAAAAAAAAAAAAAAAAAAAAAAAAAAAAAAAAAAAAAAAAAAAAAAAAAAAAAAAAAAAAAAAAAAAAAAAAAAAAAAAAAAAAAAAAAAAAAAAAAAAAAAAAAAAAAAAAAAAAAAAAAAAAAAAAAAAAAAAAAAAAAAAAAAAAAAAAAAAAAAAAAAAAAAAAAAAAAAAAAAAAAAAAAAAAAAAAAAAAAAAAAAAAAAAAAAAAAAAAAAAAAAAAAAAAAAAAAAAAAAAAAAAAAAAAAAAAAAAAAAAAAAAAAAAAAAAAAAAAAAAAAAAAAAAAAAAAAAAAAAAAAAAAAAAAAAAAAAAAAAAAAAAAAAAAAAAAAAAAAAAAAAAAAAAAAAAAAAAAAAAAAAAAAAAAB8ZoIOAADSobK++Rwj3SQpImu+Gyr2bny4o2NH0HEhe5EQAeSdqpObDlTIvCApvNfLr8qaaw6bFb6zra0tFVRsyF5O0AEAgO/C7nv11mQoSQfK2JV/3h7/7+q6JacGERayGwkRQN5xjNwx/vVR1tj7q+ub1y08ZcmxGQsKWY+ECKAgWelkx7EbquqbV1XUnzk/6HgQPBIigELmSPpESKnnK+ubv35iU9PMoANCcEiIACCVGunyZMw8XVW35LyWlpaxbrkiT5EQAeAvDt5dePO7qobm04IOBplFQgSAdzpSVr+oqm9eW9XQdHTQwSAzSIgAMLrFsuaxqvrmVQtPO+2goINBepEQAWBsjqRPOKnw89UNS1prWlpKgg4I6UFCBICJKbPWXuttjz9bVbfkPLW28vuZZxhQAHknmUrZNDZ/iIxdWdX/WLSyvvnv0tgPMoyECABTYXW8kXqrG5quCjoU+IOECABT51hrvlJV39gcdCCYPhIiAEyb86WgI8D0kRABYPoWBB0Apo+ECCDvhFw302e9zshwf0gDEiIAACIhAgAgiYQIAIAkEiIAAJJIiAAASCIhAgAgiYQIAIAkEiIAAJJIiAAASCIhAgAgiYQIAIAkEiIAAJJIiAAASCIhAgAgiYQIAIAkEiIAAJJIiAAASCIhAgAgiYQIAIAkEiIAAJJIiAAASCIhAgAgiYQIAIAkEiKAPGStNUHHgNxDQgQAQCREAAAkkRABAJBEQgQAQBIJEQAASSREAAAkkRABAJBEQgQAQBIJEQAASSREAAAkkRABAJBEQgQAQBIJEQAASSREAAAkkRABAJBEQgQAQBIJEQAASSREAAAkkRABAJBEQgQAQBIJEQAASSREAAAkkRABAJCUZwmxorGxtKWlxQ06DgBja2lpcSsaG0uDjgNTl49jaIIOYLoqFjceFnLdSyT7EUkHSkoYmcc9o5Wp1w9YtWHDHYmgY8T4Ft3+oU+GI0VXGtccaKW4F089Hkk4n177hbUvBx0b/FFbWxsaKp79KcfqfCu7QFJI0iuS+YnrOrc+cv/P/+RXX9UNS2qttb/0q72JiHa35/zv6XgyOYZByNkBrK1tmTFSnLjUenaZjEpGeduz1tirBro62jIaHCbspB/WfcgNOW1FpcUHvP2vMTGS0OvPb1ptUsmPbWjdMBRMhPBDdX3zYmv1DRl9cJS3xGX13VjcXPt47+qt0+6PhOi7TI9hEHJuACsqzguH9nvtXBm7XLtmhOOz6jfWXtq/tuPh9EaHiar7Xt27VBL6r0hpuFpm9D/DLS9t0c5NOxOu637n0dTApWqVl8EwMU1VdUsqZOxNkv5hgh/ZbKQb5zjxb3Z2dsam2i8J0T9BjWEQcmoAq+ubF1vpm5KOmsLHrZG5J5Vyr1i/7md/8Ds2TEzFysbS2aWJlUUlRec4rhl3DdtLWW186mWl4ikZ1+wMOaHLN1wT/fdMxIqpqzr1zENkk1fLms9qarUKf7LSNQPd7XdLspP9MAlx+oIewyDkxAAubGhc6FjnZkkf8qG5nJ/W56rFqxq+Ei6OXO6GnfBkPje0ZVCb/vjGm//shN1XXet8dMO10Yz+4GF8E1zKmIwBK1060N3+0GQ+REKcumwZwyBk9QDuKphxrpf0cfkfa85O63PNST+sPzdSErk1FHFnTbWN1557TSM7Rv7ygpFCIeepolD4zL4v9z3tR5yYur2WMr4i6QC/2zey9xnp4r7ujucn8n4S4uRl2xgGISsHcNHpp8+JJ0OXG+lCScXp7MtIf/akq3NpWp8rTvpB3Qmh4vDdkZLwu6fbVjKW0ManXpH13jZExlg35HRZr+ycx1t7mfEHoLquudEac4tk35vmrhIy9i7Xc69+pOfe18aMiYQ4Kdk4hkHIqgHcc4VijXe9kdk/w93nzLQ+25208tTDQ2XmP8Olkeox6mUmbetLW7X91e37/HeOMSkn4tz5aHL95ym8yQyflzImY4uRVhTHtt3W29s7sq83kBAnJpvHMAhZM4DVdc2NntGtRjo8yDhyYVqfrWpvr50RLi9ZFS6NLHEcP1PhLtazevnJjUrFk6O+x7jOYChkvrzhqvXf8rt/7JLmpYzJeEHWXB894djvq7X1LRdBJMSx5cIYBiHwAayua66yxt4smUVBx7KXrJ7WZx0rZ/GPGm6OlEUucEKTK5iZrKGtQ9r0h03jvs8JuZvl2s88ftVv29MZTyHJ5FLGpBj91jHOpX2d9/5qz0skxH3LpTEMJoyAVJ1yxnuNE/qqlT0ryDjGkZXT+myyeFX958JF4VvcSGhmpvp8/fnXNbx9ePw37i68cdzI2b+98pH/SX9k+SngpYzJWJeyzsW/7bn3f0iIb5WLYxhE5xkfwJr6lrkpxZdJushIRZnuf4qyalqfDervrm9QyP1euDhySKb7HrXAZlTGumHn18Ve6My+1r7NaQ0uv5jKhqazZM3Xgl7KmISkjP2B8cyD1uj/ZrLjLE2IuTiGCRl7lxK6JvpAx6uZ7DhjA3hUS0tkxvbY5yXTKml2pvr1VZZM64N0yl2nvNeEw6vCpeFq4/8y4YRtfXmrtr+y7wKb0RjjpEzY/J/3pv7mn9pa2+JpCi0vVNY3/52RbpZUGXQsU5SSlNGN/rMtIVad2lgt69wsqxODjmWKdhpjbjEzwyv62tomcEto+jIxgKayoeksY80KSe/KQH+ZEOi0Pgi1/1U7L+yVrIqUhhuMcQL/4lvPauOTG5Uco8BmNI5jhpyIe9WjVw7cmobQclrlaUvf56Ts9Vm+lJGVsiUh5uEYvihrvnLYrPCdbW1tqXR2lNb/WZUNS2uM9W6RVJPOfgKSlLE/CGJan0m1rbWh0N8U3xieEfmC6zqhoOPZ20QLbEbjhNzNJuyc/9iXo/f4GFZOqjx56X4KeZcpt5YyskrQCbEAxvAJGS2LdrXfn64O0jKAxzc0/W3IOl+xsi3paD/LZHxanymLf3jqpeGS0HI34vqxfVNavP771zS8bXr1Tk7I/YMTcpY+emX0dz6FlTP2Wsq4TtKUdxJCcAmxAMdwnYz9UrSrw/fvq68DWNHYOC8Uc66W0b9o1zlZhcPqJcksz8S0Pt0W/7D+dLfI/W4QBTOTlYgl9cqTG2XtNDcZMlIoHOo3TtGZG658aKM/0WW1fFzKCFQACbGQx9CT9OOk3Ms3dP/ct++rLwNY0dhYGo47X7DSlyWV+9FmDkv7tD5dTv7Rae9zw/pppCRyTNCxTMa2l7dp2yvbfGmrEApvKusaTzLGvUmyxwUdSz7JZEJkDN80aKXvhIvsVx/u6Ngx3camN4CtrU5l/6MfNtbcJOmvpxtMnknbtN5vbxbMlEQaTBp2mEk361ltfGqjkrHJF9iMxrgmFnJCKzZcE73Wt0YDVlPX+H5r3OUFspSRcZlIiIzhqF6WNddN9w7dlAdw99mEN0k6dqptFIC0TOv9UttaGwodXnx7UUnks8Z1pnLeWdYY2jqsTX943fd2d+14Y/758asG2nxvPEMKeikjg9KZEBnDCXvKGnvtQFfHlL6vkx7A6sVLj5Brr+MKZVJ8ndb74eRV9cvCRZHrQhE3e7ZvmqbXnn9dIxPZwWYKnJDzYtg1/7j+qvWPpKWDNGApI7PSkRAZwylb53nmsvVrVz8+mQ9NeABPPKXp4KSra2XNPynDD7zmEV+m9dNRd1ddo1Mc+n6oOOL7eWdBS8aS2uhHgc0YQpFQf1GZe1bfJX0vpa2T6WIpIxC+JkTG0A+ekfmZ4zqXPXL/z/80kQ+MO4BH19WVlZqSC6x0paSM7VeZ56Y1rZ+Kf/jhP1REIiV3h0siR2SqzyBs27hN2zb6U2AzKiMvFAq1l3ul5/S2ZtcetyxlBMevhMgY+m7ISt82TvyGaGfnmNtbjT6Ara1OZd9jHzfS1yXN9ztCSJritH4yTlhVd0CZ4/4wXBppcILcay1DprODzWQZx8TdkHv7o1cPXJL2zsaxaykjdaOVOSPoWArVdBMiY5h2myR7fUls++29vb37/IHY5wDuvkK5RdLRaQ0P0hSm9RNRe1dtsRsq/l5xSeScXC+YmayR7cN67Xn/C2xG44TMFrcocsGGK/r+K2Od7sZSRvaYakJkDDPuGWvs1fu6Q/eWAVxY33iUY50bZXRa5mLDbhOe1o/n5FX1yyLFkevccP4UzEzW679/XcPbMrhxkJEc13nRuOZjj121/tfp7o6ljOwz2YTIGAbMmAeNTV3W373m0TdfkqTa2tri4aJZN0v6vKSCmk1koVes0acHutq7J/vBk39Ud1a4qOj7oSK3ELZvGlMyltTGpzZO4ogonxjJdd1HrC07/fHW3q3p6KK6bsmp1tgfSDooHe1jaiaTEGvqmxo8mbvEGAbNMzL/Xhzbellvb++Io9ZWZzgy62eS/lUkw2xwkLG6v7Ju6aTWEU65+9Rvl8wsaSMZ7hIqCqn8oACq1K2USqZOsNr5cuUNi97nd/OVDc1LrbG/ED+kOau6oanJk7lfjGE2cKzsBSNF5W1qbXWcqkce/TS3SLOOY4x3V01Ly4Q21T7proaWSFnRBcr/mplJKT+wXOGiYJ5htimvJJEY8fWZxdralhnG6k7lx5E+BamisbHUWvMDMYZZxcqcUfnIo59wZMxngw4G+zQvtSOxZCJvDBe5N5IL38kYo9mHzA2s/1TS2++4GxZ+zq/2hiKxD0ua41d7yLxwzCyVtF/QceCdjNFnHUlHBh2IT+KS+mTsH4IOxC+OtR+YyPvcSOjQdMeSq0pmFat0doCnVyXNWX415Zi8+a5K0rMyeli7vrcFw8o5KugYfPRHSVFJ6X/GKSPMBxzl/vlZnqS75LiHR7vbT4h2dRxurJokPRV0YNNlJzg2XsqjVHsMcw6ZI+MENIV2/Tuo1cqU+dVWgJ60smdEu9v/NtrVvijk2XcZa++UlNNHpk2Ysfmw/drTkrck2t3+7mh3e3Uy5R0u6W7t+i3OZbNzuojGSA84jj0+2t3+mWjnz1/c83p/T/uaaM2CD1jpU5JeCTDEjNj5RlZsj5q13EgwBTbGdRSKRJ7MeMfZaZNkLyqJbTtmoLvjF3tefHhtx8v9PR2fNSnng0YmZzdQLxBvGOmKneWRY6Lda9r3vLhh3Zo/R7vbP2nkLZT0ywDjm7Zc3TX9KWvstdGxtj5rbfUGpFVH19X9LN+f9UmOJBUbjKmozLfJSN4pP7BcQ5sHlRjJ0N0dIxWVRGScnL9qnq4JPV/bv+7epySdvbBhycnG2puMtCCDMWIsVsPW6FupVORrG9a1jbov4u7n+U7K5Y1dcm2G+LKsOf+w8sgHJ7oP6O96egb7u9tXOOHUETL2DuXprZnBNwYz/8xdDjHGaPahmSuwCYVDcsK59vXylWdk2lzXPXKgu/2KiW42sb5r9QMDNQuOt8aeLel/0xwjxmaNTJtxzJED3e1XjJUM99bf3b4uWrNgQS7eocuVb+yglVaEiuz7oz2r75jKSRF99933UrSr43w5OtrI3peOIIPkpTwNbx0KOoysVjKzWKWzS9PfkZEiJeH095O91lk5x/V3rz57StsRtrZ6A10dbcmId5SRrpCU5t3a8Xa7l6Mq+rtXn93ftXryFyatrd5Ad/uqYTv8nt1jmBPrOtl+y9T3A3ajne1PSmrcNa23N0vmGD/azQZD24cVmVGsUIQam9HMPmSORraPyPPSdyczUhKRgiriCdaT1jqXD/Tc68sF54Y1a4Ykrag8een3jetdw+G4GfG0NfaaMZejJuF3PT2DklaceErT3bmwX2s2zxDXydgF0e72T6bjtPld0/rjjtt9a8a3TbUDZaXBN3YGHUVWC0XctBbYOI5RKKDNAAJj9dLupYyj/UqGext44N43oj3tF6aM/QCFN2mzp+hpwstRk/Hw2o6Xo10d5+8qnsreO3TZ+M19QkbLol3t96e9p12FN20VjY2/yJdTqRMjCcUGR1RUVrD7eo9r5oEzNfjGoBKxhL8NGylcFvG3zew2aKXvhIvtVx/uaN8RTXNnv+3qeEbS2ZUNS2tkvZuNdEKauywEvh0qMBG7i6cas/XMx2yaIb64+yrzmIwkw71sWLNmqL+7fUUy4h0uq28pxx80HXxjiAKbMRhjNOdQ/zd8CYVDckNZezfIT56kuz038Z6B7vYrHu7oyOj60EDXvX0D3e2Ldt/d+WMm+84jnqS7k3LfM5miJ7/sLrypyLY7dNmQEHcaY65zyiPvm2rBjF82rFmzKdrTfqFjvZx+JspLeRraOhh0GFmtuNznApvCKaRZ57g6Ntrd/sn1998fZAWhHejqaNtZHnm/ZC+SlJaTRfJUWpejJuwvxVNH7i68yWhS3pcgb5kmZOxdSuia/gfaXw0wjnfo61nztKSzK+saT5Jxbs7FZ6KGt4+oaEaxQpFsvCueHeYcOtu3Aptwcd4X0myQ7GXR7o6sevD6iba2uKTbaupb7k4pvkzSRUb+7Q6UZ560ssv23hghG+wpnqpobLwzFHOuDrJ4KpAZojVaY13nA9GujvOjD3RkVTLc20DPmgcHahYcn4vP0+wqsGGWOBY3HFL5/OkvGTuuo3Bx3l54bDTWfjza3b4w25Lh3vq62zYPdLdfYbxUVhdtBOQVK30qWrPgg9mWDPe25w6dHB0jo54gYgjiW/yTga72jwTQ79Ts3vGmsq7xIWOc/5GUgQfZ/JEYSWhkZ0zFM7hgHk35AeUa3DyoxPAUC2yMFC7N20KaIWPMCf3d7TnzgHx07X3PSWqsqm++R9KHg44nCwwZY2qiXav/V93t4787C+x+NK6hqr7555ImdOKPXzI/QzRalfE+fTDQs+aPkv1V0HFM1tBmdrAZk5HmHjJ3yqfT7SqkyYal+DSw6p3SQ9lZwFrnh0HHkBVydwytMfauTHea8W+ykcnZ7VSMnJx7yM9LeRrakrP/yzOiaGaRSmdP/iAJY4zCeVxIY4zJ2XvujmNz7ruaDrk8hp6X+THM00tb7G14+7BS8Zx+kiTt5hw6W8ad3NchXBIO7lgpAL7L20oAvNWON3Zq9vzZQYeRtdyQq9kHzdKWl7ZM6P2O61DBi4JVfevfHSdrV8joSCvdkCwdvmPD+Rt83uki85ghFojkSFIjO2JBh5HVZh4wc8LPEkZKI1NedwRyVdW3ag+p+cailbJ2QNJiWR1srL4THiz5n5pbFrXI5vS3wiMhFpChzYNp3dQ65xlpzqHjF9iEIiE5+VpIA+xD7e21M6pvWdRqkslnrXSe3rlB9/us0U+rb130SNXNixYFEeN0GelF7vkUEM/zNLR5WDPmTb6ApFAUzShS2ewyDW7Zdy2CMcrrQhpgbxUrK8KhoZJzR2LJ5TI6cAIfqTaOfl1966J7nIT3b48se+T3aQ/SJ1bmXi5zC0xsx4iSMQpsxjL7kDmjFtiESyIU0qAg1Hyj5j3hwZInjNVKaULJcA8jqxYv5DxRc8uJF6UrPp/90VF4OQmxwFhZ7dw0KCueTRyNG3Y066BZ73jdcZ3CO9oJBcuTWyfpvdNoosgac55f8aSLlbo8N3FCX3fbZr7dBSgZTyi2I6bimRwRNZryA2ZqaPOg4sPxN1+L5O+ONMA7GRkfrpuz+XbK89bYL+99/iMzxAI1tHlIXopZ4qiMNOewOW9+nUNFFNIAeWLQGHPdvg5DZoZYoDxv1xFRM/abEXQoWauorEhlc8s0tHmwUI52AvKZNTL3pKz90vru1S/s6w0kxAIW2x5TUWkRVZNjmH3wnF27/JhsvvMDYBwbHKsv9vWsfmSsN3EPqIB51tPmFzZTYDMGN+xo5oHTPyIKQCA2yprzozULKvt62sdMhhIzxIKWGE4oGUtqcNOgZszj1uloSspLNLIjxn6wQO5IyOo/5MavjnZ2blfP6gl9iIRYoLyUp+TuH/itL21V6exSikbGMHO/Gdq6cWvQYQAY3zqTcr7Yv+7epyb7QRJigYoPxbXnTqmX8rT15a2ae9jcYIPKYqHikIpnFrEfLAqG49mknebauZFSPoUzEc/K6OJoV/v9U22AKUEBSsaS8pJv3dN0cNOgYoP82I+ldG6ZHIevDApDKOz83Ei/mHIDRi/LmKt8DGk0W410xc7yyAenkwwlEmLBsVaKD7/zlBYrqy0vbBH1NaNzHEclc0uCDgPIiIe++NDrfZf85gzPOCdLenQSHx2U0Qo3bt/fd/FDE1u8mxpP0t1K2vf3d7eveKKtLT7uJ8bBLdMCkxiO78qK+xAfimvnpp2asT8FNqMpnlms2I4Y+8GiYAxc/OsHZXV8zTcWnWWNVkh61yhv9Yz047gxl2+4+KGN0+3XGDPW5flDjmMv7OvseGy6/eyNhFhAvKQ37g/51o1bVTqnRE7o7ae7QNq1m9WMeWXa9tJ2HldB4TCyffpN21GtR7XPKJ/zeSNdJ2nvDX/XWcd8qf+ih37nV5dO2HvWS7gpvfWoqReM1WX9Pe0/VRruZ3HLtIDsvS/naLykp60vbctANLkrFAmraGZR0GEAGfdE6xPx6CW/uS0cMu+Vtd+WtM5Ys7j/kt+cEvUxGUpS3333vSRrz5P0mpV93RhzXTLivb+/p/0nStPiDjPEArGvQprR7Ny8U2XzylRUxo/+aErnlio+FGM/WBSkh7740OuSvpjufqI9HT+Q9IN097MHM8QCYL19F9KM/gFpywubKbAZg+M4Kp1TGnQYAHxEQiwAYxXSjCY+lNCOTTvSFFF+KJpZnNfnI1rZeUHHMFXWy93Y/eRZ74CgY8glJMQ85yX/siPNZG19eau8RCafq80tRkYz9pshk9VHvk3Lh2pOXfr3QQcxWRWNjaUyuiToOLKBMWbRwrqmDwUdR64gIea5iRTSjMamrLa+zHZlYwkVhfK5wMb1PK+nqr7p5kWnnz4n6GAmoqq+sTkUdx6TVBN0LFnCNcb0VNc3rTi2dsnsoIPJdiTEPJaYRCHNaHZuHtTIzhGfIspPZXNL5bh5O0uMSOZLiWTo99X1zZfX1tYWBx3QvlTVLamoqm/+peSslvS+oOPJJkYqsjLLiopsVo9hNiAh5ilrrZKTKaQZtSFpy5/ZwWYsxnFUOqcs6DDSbY6Vvj5SNOuZyvrmT0rZcZ+46tQzD6lqaFopYwck1QYdT5aba6WvDxfNeraqbsl5LS0tPGz8NiTEPJUYSshOspBm1LZGKLAZT9HMIoWL8v+gZSsdZqQfVdcviQa5NlVb2zKjumFJq7zUc7LmPPFbNhmHytiVf94e/+/K+qbTgw4mm/BHlIe8pKdkwt+txSiwGZuRUdm8vJ8lvsnKLnSM+VV1fdOamvqm92Sq34qK88JVdUvOGy6K/95ae60kbv9N3VFG5r6q+ua1C09ZcmzQwWQDEmK+sW892sm3ZlNWW16iwGYsoUhIxeWF9ftsZc7wZJ6samhaeULd0rSW+FfXNy8OzXv1MRm7UhKPE/hnsePYDdX1S35aWdc42j6lBYGEmGeSsaS81PQKaUYzuGVQMc4DHFPZ7DKZwjsiKixrzksZ7/fVDUta/S7aWNjQuLCqvvlXVlor6Sg/28abHCvbYozzdFVd822FWpFacN/cfGa9Xet96etA2vzi5kk/5F9IjGtUNrdgd7CZYa29dk/Rhlpbp/X7UrG48bCq+uZVjnWikniWLjMiMvpioVakkhDzSHw47lshzWgSwwltf21nWvvIdcUzixUqgAKbMRwqY1dW9T8WrW5YMunKz0Wnnz6nsr756yHXeUbSJ5QlFa0F5i0VqdO9uMkVBfEfWQi8pKeUz4U0o9n+ylalKLAZ08x5M/gZtzreWvvLqvrmtcfXLf3AeG/fUzATT7rPGOlyUTCTDQ6VsSur+x4riIpUEmKeSEchzWi8lNXWFymwGYsbcVU8syToMLLFYtd4j1U1NK2sOrnpwH29obquudGd9+pTMnalkdk/0wFibFb6QCFUpJIQ80AylkhbIc1oKLAZX9mcUrmRcMEuKL5NSNacp5B5tqqh6d+qTj21XJKqG5bUVtU191mjDiMdHnSQGNdix7Ebquqb71pY13xo0MH4jYSYB+LDmblV+nYU2IzNOEalc4qP9K9Fu9m/tgJTLmtukBfZVFXfvMNa+0sZVQcdlA/emMibjDGb0h1IBjiSPu0YPZ9vFakkxDxgjKa+g/c0UGAzPiO94Fdb1jqP+tVWFghLmhF0EP4xExobzzO/TXckGbSnIvX5yrrmi49qaYkEHdB0kRDzgOM60aD63v7KVqXiFNjsm1U8YW/0q7XS+Nb7rPR7v9qDf6w135rI+/56VqhTMs+lO54M288YfWPG9vjTlQ1LPqocLicjIeaBcNx8ynFNGh9AHJ2Xstry0pYgus56saH4r391btd6v9rr7e1Nuo5tkbTdrzbhB/vNgT6vl9YAAA4vSURBVJ5775vIO9va2lKO4/2jpHzcHPhdxtr/qqpvXl9Z13hS0MFMRcYTovVy9w/Byg4GHcO+DFw/8EfXhOod1wwH0f/QliGN7OCIqL3FhmL9ieeGT/a73b7Ojscc2QoZPex325i0rdbon6PdHRdP5kN9nR2PyUtVSOpLU1xBqzDGeaCqvun+mtOaPxh0MJOR6YQ4WBIPP5PhPn1jjB4LOobRbLg2+suERg4IRdwOGZPxSpctL2xJ+6YAuSCVSO0Y2RY7f+3HOmt6W3vTUu3U193xfLSrfZGxapL0fDr6wJgSMvYO1zp/O9DVvnIqDUTX3vdctLv9RCPzjzL2D34HmB3MqV5Kj1fVN/+g6tQzDwk6monIbEI0+o/e3racrcIIucm7Jb0SdByjeaL1iZ2PXr2+udhzDw9FQv2ZvJGfGElox2s5O/mfNi/lJUd2jtzR2bJm9rpPd96RiT77e9rXJDcdeKSsOV/Sa5noE1rnyVsQ7eo4/5Gee6f7/9z2d6/+6c6ZRUdYq0sk5UMV8ds5ks5VKvVsVUPz1yoWt8wKOqCxmKr65kxd1v9sZ3nknCfa2gKpiPRL1amN1fKc1ZL2+YCxz26PdrdfMNUPH7eiqtob8X7spVLvzsRD+8YxOvjI+XIjofR3liWs59n4cKLLDiY+uu78dduCiqO2tmXGSHHiUmstO7ykgZFZn7Lepet7On6drj4WnX76nETSvdLKXGCkonT1E7A3JHP9zvLwv2djLkh/QrR6SY69ItrV8WPlybnrJ9QtPSBpvK8a6TNK7yx7Wglxj8obKj8VT3i3eUkv7VdnpbNLNe/d89LdTeCstUqOJJ6yMffMnnPXPB10PHssrGs+1HHsVbLms6JobtqM9GdPunqgu/1uZej3q7Ku8V3GOF+TdLZyuGJzTMb+QZ6ujPZ0/ERZlBfSmRDjsvpuqNhe9XBHR17eS6s5tWmB55nbJP1dmrrwJSHucdz1lctSydRym7Jpvfrc/z37q6Q8f7ctSwzHN6YGvXPWfa6rN+hYRlN5StPxxjE3SZr05tqQJG0x0ori2Lbbent7A6kYW9jQuNB45iZjzN8H0X+GbLDWWzbQs+bBoAOR0pQQjex9qVT4wvXrfpani8VvVV3X3GiNvi3pr31u2teEKEkVrRWlKddZ6SW8c2RtWmYQoaKw5h9xkIyTXxe3yXhyZ3IwtWzdZzr/I+hYJqq6vnmxpFutNO7m2pC0q2DmrogpuuqhzrbXgw5G2jWGVvqm8vssyHWeZy5bv3b140EG4XdCfMZYc3F/z+pOH9vMCRWNjaXhhLvMenaZjPyaHvmeEPeo+mbVgfHt3k+8ROrv03GLYPbBs1V+UHkaWs48L+nF44Px29d9qutSGWV201gf1NbWhoYjsz8jY5crM2vfOcnI3uc4zkWPdK7Ous0PKirOC4f2e+3cPB9Dz8j8TEbL+rtW/28QAfiVELcYacWO8sit2bhQmklVp555iLzUDdp1jtt0pS0h7nHs1xYudBL2R8mEd4Sf7RrHaP6R8xXK4QIbz/NsYjjRFZI+0vnxzpx/GP7ourqyUqf0Mp8v2vJBVMa5NNp172+CDmQ8bxZP5fcYxmX13VjcXPt47+qMHqsz3YSYsrJ3KOlePfDAvRPa3LZQVNU3/YOsuU1G03kwNe0JcY/jlld93LPJb3tJ69tGvSWzS7V/DhbYWGuVGEn8t7fDbVp3/po/Bx2P32rOOOOvvKRzjaz5J0lu0PEExzxnjXflQFfHPcqiwo6JqFjceJgbcm4wVh9V/hZPbbLGXDHQtfrOTHU4nYTYK2MvjHZ1/M7XiPJIbW1taLh41nmyWi5pvyk0kbGEuMeuwhvvOpvyfCnd3//wA1QyK3eeAkiMxF9MxJIfe/DTPWkrr88WC+sbj3Ksc6OMTgs6lgzbbKQb5zjxb3Z2dub0GWZVdUsqZOzNyufiKWs/Gu3p+L+Z6GoqCfFPsro02tN+T1oiykM19S1zPcWXSzpf0mTuIWY8IUpSbWtt8VZ38Hs2kTrH2uldfYaLQjroyPkyJrsLbFKJ1I7EUPLSTD1Un012F23cIunooGNJs8BuxaXb7sK+FZJ8XfrIDrYz2t2RkYu2yfzYDUm61imPHEEynJy+7rbN0e72C1LWWSBjsqK8eCy9rb0jj1+9/hPWKZ7vht1OaepbwSViSW1/NXuX31IJLz6ybeTWzrPXlBdiMpSk/u72ddGaBQus9ClJG4OOJw2skWnzUqEjoj3tF+ZbMpR27VpUEtt2tJX9vKRXg47HXyZjs/iJzBCtrH7iScvW97T7drZbIatuaDrTWnOzpHeN89ZAZohvd9zy4yok5+5k0jtiKistxjGaf8R8hYqyp8DGS3k2MZxYnUgOn9N7bjDPmWWjo+vqykpNyQVWulLSzKDj8UGfY3VpX0/7I0EHkiknNjXNTMTM5Ua6WFJp0PFMkydrG6I9HWsz0dmYCdFKj0m6cKC7/aFMBFNIamtri0cis75kjf5NUtkob8uKhLjHwusXNiaS3ve9lD1gsp8tnV2iee/ePx1hTYr1rBLDif64bEvvxztfDDqebHXiKU0HJ11dm8OFN89YY68e6OpoCzqQoOyueP+KpE8qNwtvnpG1X8hUMpR2JcSdetsPspV93ZGu7K857k61tubcc1e5pOaMM/7KJtwbrfSOgzWN7I393R2XBxTaqI67vnKZl/RavZQ3qbLv/Q/fXyWzgqkUt7JKjiRejMfsR3756U6OTpqg6sVLj5Brr7OyLUHHMkFvGOkmHgH7i8r6pccY2Zske0rQsUyElX3dyFyX3HTgHRs23JHRc15NVX3TrZK5aPc/J4zRd0ZGzPJ8vM+ezWrqmk/wjL4lqUKSZDXshFTVd3/7/ws2slG0KnRcaOHtyUTqs/ImdvUZKgppfgAFNslYcnNiOPmvD5zblZFKtXy0u/DmJknHBh3LPlkNW6NvpVKRr21Y1xbYJuvZrKa+qcHK3JS1uxZZDcvRbTLxr0U7g3nu10gyVfVLzjTG+2ub8tZE1973XBCBQFJrq1Pd/+gSTzrcSbr39a+796mgQxpPxc0V87whZ1UqkWrQBDYinjV/lmbNz8wJMF4iFY8PJW5f9+muSzLSYb5rbXUq+x/9sLHmJvm/TeFUWSNzT5C7m+SSlpYW94Xt8XOttFzS/KDj2c2T9GPP6sqg61SyuxYeOaPyhkXvSyRjP00lU8eMVXiTiR1svKT1RoZi9xRtM5/s/GJuP2eWjSoaG0vDcecLVvqypMD25zPSA8axl/V1dmTtwd3ZKlvGUMY8aGzqsv7uNY8GFsNeSIjwVcVXK09PJb3veklv1BOyi8tLdMB7/C+w2VMwY93Eh9d+dO3LvneAt6hobJwXijlXy+hfNLnna6fraWvsNYVcMOOXAMcwK4ueSIhIi4rrqy5NJZPLvZTdZxWNnwU2VlaJ4eQf4rH4h3vPXRvobvmF6PiGpr8NWecrGSi82STZ60ti22/v7e1NprmvglJT1/h+a9zlhT6GJESkT6tCx7mVN6aS3hes573l6jMUcTX/iINl3On9CSZjyc3x4dg/P3ju2qy60ixElQ1La4z1bpFU43PTQ1b6tnHiNwRVbFEoFjYsOdlYe5ORFvjcdE6MIQkRafdm4U0y1SD7l7+5WQfN0qyDp1Zgk0qmYrGh1Ncf/NT9rb4FCj+Yyoams4w1KzT+xhPj8ST9OCn38g3dP8/HHXSy01+Kp26U9DfTbM0zMj9zXOeyR+7/+Z/8CC+dSIjImGO/UvVeY722VCJ1jLRnB5uDFCoKT7gNL2lTsZHY/5lbNPOf2s7mObNsdVRLS2TG9tjnJXOdpKlc9ayzci4d6L73v/2ODRNT09JSYrfHv2ilf9MUxtBID6Q8c2nQh/5OBgkRGbfwazUNiXjie17SO6S4vFgHvGf8jW/2FMyEElp6/7n3v5KBMOGDypOX7qeQd5mki4xUNIGPPGlllw10d/wi3bFhYvaM4e6t4CIT+MhT1thrs61gZiJIiAjMcTcs/JyXsLfMPWy/maWzRymwsVJ8OP5casg764HPdXHUWI6qPG3p+5yUvd7KnqV9/e5YvSSZ5YfNCt/Z1taWynyEGM8EiqdeljXX5fIYkhARrFaFFs488a65fzX7Y+Gi8F/+Hq3VyODITsX0kXWf7Wa2kCdq6pdUWuudZ2UqZTRD0u9lTVuyKPWfG9asGQo6Poxvd/HUeZIqZTVLRs8aa9qGNLTqdz09g0HHNx0kRGSNRd+tvdCVs8iz3lYTd+769YUPFswJBQAAAAAAAAAAAAAAAAAAAAAAAAAAAAAAAAAAAAAAAAAAAAAAAAAAAAAAAAAAAAAAAAAAAAAAAAAAAAAAAAAAAAAAAAAAAAAAAAAAAAAAAAAAAAAAAAAAAAAAAAAAAAAAAAAAAAAAAAAAAAAAAAAAAAAAAAAAAAAAAAAAAAAAAAAAAAAAAAAAAAAAAAAAAAAAAAAAAAAAAAAAAAAAAAAAAAAAAAAAAAAAAAAAAAAAAAAAAAAAAAAAAAAAAAAAAAAAAAAAAAAAAAAAAAAAAAAAAAAAAAAAAAAAAAAAAAAAAAAAAAAAAAAAAAAAAAAAAAAAAAAAAAAAAAAAAAAAAAAAAAAAAAAAAAAAAAAAAAAAAAAAAAAAAAAAAAAAAAAAAAAAAAAAAAAAAAAAAAAAAAAAAAAAAAAAAAAAAAAAAAAAAAAAAAAAAAAAAAAAAAAAAAAAAAAAAAAAAAAAAAAAAAAAAAAAAAAAAAAAAAAAAAAAAAAAAAAAAAAAAAAAAAAAAAAAAAAAAAAAAAAAAAAAAAAAAAAAAAAAAAAAAAAAAAAAAAAAAAAApNH/B0Jk97BbUJ4dAAAAAElFTkSuQmCC;" parent="1" vertex="1">
                    <mxGeometry x="430" y="36" width="50" height="50" as="geometry"/>
                </mxCell>
                <mxCell id="29" value="" style="shape=image;imageAspect=0;aspect=fixed;verticalLabelPosition=bottom;verticalAlign=top;image=data:image/png,iVBORw0KGgoAAAANSUhEUgAAAZAAAAGQCAIAAAAP3aGbAAAAGXRFWHRTb2Z0d2FyZQBBZG9iZSBJbWFnZVJlYWR5ccllPAAAEp9JREFUeNrs3b9THFeCwHHBDIMtOLlEAgHjRJeAApJTFWMndiIUKHJZ2o0uWLR/ANYfoOIP8PIHeHVVDm1dbaRAIrETCaq0CVUrlJwSQyASVEsBgoEZ7g2tlbwI0Pzqme7pz6e2VNore89uNd9+73X3677ij1sXANKg3yEABAtAsADBAhAsAMECBAtAsAAECxAsAMECECxAsAAEC0CwAMECECwAwQIEC0CwAAQLECwAwQIQLECwAAQLQLAAwQIQLECwAAQLQLAAwQIQLADBAgQLQLAABAsQLADBAhAsQLAABAtAsADBAhAsAMECBAtAsAAECxAsAMECECxAsAAEC0CwAMECECxAsAAEC0CwAMECECwAwQIEC0CwAAQLECwAwQIQLECwAAQLQLAAwQIQLADBAgQLQLAABAsQLADBAhAsQLAABAtAsADBAhAsQLAABAtAsADBAhAsAMECBAtAsAAECxAsgOTIOwT0ksmR/s8KfdOjb0/s0ljuxF/wfLOyVa79ZjX85uBo6VXFQUuRvuKPW44CqS5UaTQffr16ORd+beJ/YX27+vx1dXWzurxxqF+CBW12qdA3U8xPj+XCr+H37f0ff7x2uPjbYfh1q3zkUAsWNC8U6vrn+VtXBjrw/ysq14OXBw67YEFjQ6rZicKtK/nx4U7fJgrjrNCs+y8OwswxIUcjHIR71wbnn+0n5x9JsOB9qmYnBto+9WtUyNbCSrm7jYiOxtxUYXWzeuPhTgbPB3cJkaq6hHlo+E+3snXiaGR2omqERRKFNIRZT0JS9eEkMcwQF1b2O3k0wqjq99PhL/62k8H5oGCROOHH8i9ffjI9mkv4P2foxd2ne7E+BnHWyl0YXt19smeExfufmWxevrouWqBJ5sDqVPdflOef7cdxBoZR1VnT4T8s7mb2eTHBOmlypP/RzaEbD3dWNzWrc8JP5vdffjJTTN+iajhP7vz6pl1XuNJY7tvjxbKz/oLljcrtx7uZPU8E66SfZy6G+chW+ejGw13jrI5dJP761aedf2ShXcLZEuZoj9cOW+l1NKT66EHI8vBKsE65vv10/eK7K+ftxV2PO8ctjKrC2CpF08CzhLlhmCE22qnoUdg6h5YZH14J1unDK+dHx4RhRahVz/zr1Lkc/q5TpdFcQ6XO+PDqguewTkxMTtycCv81/Dhl9o6MWjXxbxR+PeuEid7Tnvk839w90DDl9G62YL03O1E49RQMs8I47gSpVY/V6tRmRdtITI/lwmCqlUU6J6FgnRyln3VrJoRsdbPqJVi1qv/fLpxOnxX6Ji/3t2ttrutvBQlWEi+MZ4l+ujRLrerU3uczljcqjS7n9ypbJNcVrKhZndnVpLeVxnI9X6v2CpPB76yiCtbvjQ/317NZpWa1fpx/+OpTx6Ehd5/smQwKVpMDeM1q2qVC31+/+rQHnrfqpDATbOV5VMHq0WB93sCKg2Y1Z26q0Nye65m1vFFxZ1CwTtHoczGa1cQY9tSnRjhL7RXFX944DoJ10odfgtKstk8GLbQ3WiuvhQnWWcOrJu9Aa1b9k0FLV/Wr3RZ8+qbRWoUjPDc1KFhGWB9pVhbOkhYPr8lg/da3a2OrhrY2ip4U+ccfh7NwfDw4emF8qKWL//HetX3eNzz7+Ah6LDPB8eH+45XBtzvShL+3k7s2C1b3gtXyNkzRqxihWRYdPjwyyd/sOF21OnVHmmgWaYRlPlivcPYUr1+0UPrh8NNBqMdH96UJl9XSaO6snbPmn+1nZINcI6y2mRzpf/rNUKMLEL09vErvJqIdE23DcNZrquGCer2YL43mz3mELfy92XnLNevBavoW4VnD9Z+vXzzn/MsUa+31TAPDVO73V7hwCoWR1ORILqSqntl0+Hsz9XCpEVabRc8chethxp9RDj9vnms/38JKeWFlPxylMMsLhTreOau/oTFpcw9ACBanDC6ujuTu/PIms0ta33pC7Vzr29XQqRbX+O4+2cva+kPWr4HxjQLCeP7RzYvZHGWcsxsikTo3CDlHGMJn8L3orAfrszifwA4n5aObQxlcylGruD14eZDNLf2sMsTu3rXBH77O1rYqghWr5Y1KZh9UFqxOmCnmn34z1K5nvpI/H7TcHp+M7+LgxOrcj/FP1y+G0VYW6uyPO75aZfzh5KwHq8MfepudKDy6OdTbA5DpMe/ixCJ0yqsURlidFmoVmtXDrwSXvDyoVoLVY+amCj25qjU+3O91nJhq5ZUvwbqwulnp4s92tKrVSzcQr15WK7USrPjOhoMuj7FnJ2pDrZ55DmByxHywvRfU6o2HaiVY//I8AadC9PrhzzO98Fh8yYp7W2sVxlY+SihY/zbeTshC5vGrPEOhXKmeIV4asHd7O2tllV2wPjgzXifoChbmhmGGODeV1oUtj4y2xYOXBzce7qiVYJ2iw49i1TNDjO4hesElmxZWyj4RIFjnjL0rCfyniha20pUtC1gtCkOqkKosfEtCsFoYYW1UEvvPNj7cn7ps0ZzoA1/2qhWsj1/WEn7bWLZ63uO1Q48vCFYDp0vy/yGjbP3jj8PpXZLnVPPP9v+c4c1pBauJYKVmHB4tyYdshXh5CaYHLKyUs7kVn2A1LwzFU/d4XvQAxM8zF80TEazMefAyldtjT4/monnivWuDBlxp5Mk1wWouWCm+OxPmidE7iY9u1hbmrXClyGf+sASrCWFK2APfIAmX62jA9cPXnyoXgtXL/qeH1j5nivnOl2tt230u4mX77feWXlXCOKvHVoJCuWrxOn50Y/lVJfwa3+0F+wpghNVRCys9e4M5ZOvetcGn3wyF/4TfhP8ax7DLw0TEqq/445aj8Hvh5zk7t9tWN6tLG7WR1/PX7Xmw4+eZi9P2dG/E8kbl9uNdx8GUsEl3n+79dP1iRv5lJ0f6J0cKsxNvJ3QhWyFhyxuHzzerzY2V1rargoVgdc7Sq0q46GXwpy76fsRMMfy2EPVrfecoWtdb36nWmbDa23BXnEQN+KdJtGC16Lsne2FimPGDcNyvCyfCHVL+z3+9Kx4GYsdDqqPfzyVXX1ecP43Oyh0EwWpJ+AlcWCnPTRUcihOifh2Pwt4OxN6pbXrx2s8e8XKX8HQLK/sufQ25VOgLObOAhWB1aWL49I2DAIKVDmGENf/MZrUgWClx/0XZlrXEKrp3gWC1RxhkWcwCwUqHrfKR71mCYGkWJO6zmIKVaHW+Nui74SBY3Vf/d+E1izgG7w6CYDUm+i58PR+h0Szay7sBgtWMMMKKPkLzw9efzhTz5zfLBy9pF28+C1ZLQq1Cs6It7s76nEn0SfEe2ACe7o+wXPkalPUN/H777/84f4kh2ll4aaPy4f52c1ODXpCmFfPP9n1FVbAa8OjmUJ0fhot2I3i3P1S0rUppLPf9F77ATJP+sLjrsYaGZH17ma2DehcR7EZA2/nOUKP6M3/GWESga3xnSLAaPWNc4uiO5Q2TQcFq0Oqmkwaje8FKieee3MPoXrDSc9JUPblOl6aEHuUTrMYtWUqgK6N7T40KVjMXOg/CYGgvWOkZYRmZ0/HhlcVTwWrO6mbV4zB0/qxzEASr6UGWWSEdZcVdsJr3vz6NQ4enhEZYgtX8COtVxayQTs4HrbgLVksevDREp1MXSPNBwWo5WGaFdIgnaQSrVWFKqFl0aoQlWILVMkvvdIAFLMFq03XvVcWOH8Q/vLKAJVhtsrCy7yAQKwtYgtXOQZaVLGLle0uC1d5Blq+YoFaClRLr21XNIiaLvwmWYLV/kLXv3VTi4IEGwYrFd0/fOAi0l31BBCvGc8vEkPZyP0ew4p0YeiyLNrLiLljxuvPLGw8lYz4oWOkQanV7cVezMB8UrNRcGOefefwd80HBSs+18e6TPccB80HB0ix63/0X7jgLlmZhPihYaBbtPW3ctxGsrp18f/asA42wMaRgdXl4f3tx1xoq9QjnyZINsASru1Y3qzce7noOno+6/8LwSrASoPZM6eNdj2jx0TUEB0GwknP9LN94uGMvGs6qleVOwUrg9HAnDLWcmnx4PXMQBCuhp+YXf9sx/ued5Y2KobdgJVcYYd19sidbvL2GrRpetV9f8cctR6Htxof756YKM8X8pUKfo5FB69vVcOlyHAQrTUKtQrNmJwqTI0ay2RLG2gbagpXiAVco160rA8pleIVgpWnMVRrNTY/lQrzMFg2vaFTeIWhCyM36TmOvXIRBVnG4b3o0HwZZoVlq1au2ykf2ZhCsZJmbKoQARWfn6uvareu17er69tG/D6YuXB3J1VI11Bf9xWTB/RceFjUlTJh71wZnJwqOAyesb9deMhWs+LjyN3kVdRD40MJKWa0EK4kXUls18OFZYa1dsBLqwf85NTk5vHIQBCupwXp5YA8/3lndNLwSLFdUUmL+7zb7FyyDLNLg8dqhfZAFyyCLlAyvbDwrWGkZZNnzyEXLQFuw0nN1tXiRYSFVthUVrDRZelVxeyjLk0FPigqWs5YUWN6oeM9ZsNIn2hzZccjaH/p3/tAFK6XCldZaRqZYaxes1E8M3THMzmTQ9UmwUu/Or28sZpkMIljpEOYItxd3HQeTQQQrHcKs0AK8ySCClRoPXh5olskggqVZdNP8s32TQcHSLNLxB+qVBsHq/Wa5b9gDwsDKlgyClYlm3V70GZV0C398HlgRrKxY3ax9uNwzpenlkWDBytwl+sbDHbfDUzpGtnSVHD6k2lGlsdz3X3ziQ9ApGh2b0RthZdfSq8qNh7uGWmkZF1u6MsLi7VBrbmpwejTnUCRWmMVbuhIs3rt1ZWBuqmCGmEB3n+xZuhIsZCsFwpzdU1eCxUcmiX+aKMwU8w5Fd3lFQbCoVxhnhWaFMdfkiAFXF7gtKFg0X67psVxpNHep0OeAqBWClQ5htFUazY8P910dyU1e7tevOKxvV288VCvBIgalsbfPQ0xezs1NFSSsRaFTYWzlIYbks8SbSkuvKtG08d5/DaiVWgkWSTdTzH//5SdqpVaCRaKFSN27NnjryoBDoVaCRaJ5fVqtBIt0DKzmpgqzEwWHQq0Ei0SbKebDNNDASq0Ei0QLkfrLl5/Y16Fd1rerd359o1aCRfvngGECGKaBDkW7eJZdsIjFrSsDYQ7oqQW1QrCSniq7zbSdPRgEC6lKh4WV8sKK/a0EC6lKtjABnH+2b+9QwaINomX1W1fyUhVTrTy+IFi0QWks9+2VAa/XxGd5o3LnF9+8ESxaEG3LNzsxYEgVK5uyCxYtTf1Cp65/nrdlewemgXef7D1eO3QoBIuGx1Ol0ZxOdczqZu0p9vVti1aCRd1KY7nrxXxpNO9DEp3k2QXBot4ZXxhJTY7kQqq89Nd5YUh19+letAsrgsVJYehUHOoPhQq/uXq53wp6F91/EQZWZXcDBatHzE7UvtGwvPF2Fbb+63DIUHG49irf+FAtSZcKF66O5MaH+uTJwIpu6f2v5tS+1HBt8Jxl7+WN4w86KJGBFYKVEDbA6xmrm9X5vxtYCVavs71U2oXx1P0XB24FClaGfHSGSDI9eBlSVfaMlWBl8cvPpbHc3NSgRxBSYXmjEkZV5oBcyPin6m3qknBhPBVGVTaHQbBkS6oQLNlCqhAs2ZIqEKzTs3XrPwcsyUsVgpUapbHcnyYKHoCIlTuACFY7henh7ERtL2OfCGyjrfLR47VDz1UhWOaJiba6Wb3/ohxq5TVABKsTA65auXznpkFhJBUidf/FgSEVgtUF0WdvZop5U8WPTv0Wfzu0yTqClQjvvi6hXDqFYKVpzHW9WCtXZmeL0bxvce3QXT8EKzWijw9Oj+VKo7meH3aFwdTSRmX5VSWkyvoUgpVukyP9pdFei9e7SC1tHPoQPILVs/G6ejkX4hV+Td0XwJY3Ks83KyFPIVVGUghW5pTGcuO1T+/0Xx3JTV7uT9T4K4Rpbacafl3drDx/XVUoBItTEnZpoG9yJBd9oef49/EOxEKJ1neO/lk+Cm0KE73V15W17SN5QrBoaS75WeH9B8fe/d/Hh/uK596RDJO4rfKJPNViFBXKgUWwAOLi/RJAsAAECxAsAMECECxAsAAEC0CwAMECECwAwQIEC0CwAAQLECwAwQIQLECwAAQLQLAAwQIQLADBAgQLQLAABAsQLADBAgTLIQAEC0CwAMECECwAwQIEC0CwAAQLECwAwQIQLECwAAQLQLAAwQIQLADBAgQLQLAABAsQLADBAhAsQLAABAtAsADBAhAsQLAABAtAsADBAhAsAMECBAtAsAAECxAsAMECECxAsAAEC0CwAMECECwAwQIEC0CwAAQLECwAwQIQLECwAAQLQLAAwQIQLECwAAQLQLAAwQIQLADBAgQLQLAABAsQLIAE+X8BBgBjeAZ+6MGyewAAAABJRU5ErkJggg==;" vertex="1" parent="1">
                    <mxGeometry x="597" y="45" width="30" height="30" as="geometry"/>
                </mxCell>
            </root>
        </mxGraphModel>
    </diagram>
</mxfile>
